<?xml version="1.0" encoding="UTF-8" standalone="no"?>
<!-- Created with Inkscape (http://www.inkscape.org/) -->

<svg
   xmlns:dc="http://purl.org/dc/elements/1.1/"
   xmlns:cc="http://creativecommons.org/ns#"
   xmlns:rdf="http://www.w3.org/1999/02/22-rdf-syntax-ns#"
   xmlns:svg="http://www.w3.org/2000/svg"
   xmlns="http://www.w3.org/2000/svg"
   xmlns:sodipodi="http://sodipodi.sourceforge.net/DTD/sodipodi-0.dtd"
   xmlns:inkscape="http://www.inkscape.org/namespaces/inkscape"
   width="1920"
   height="1080"
   viewBox="0 0 507.99999 285.75001"
   version="1.1"
   id="svg8"
   inkscape:version="0.92.2 2405546, 2018-03-11"
   sodipodi:docname="cammie_down.svg">
  <defs
     id="defs2" />
  <sodipodi:namedview
     id="base"
     pagecolor="#ffffff"
     bordercolor="#666666"
     borderopacity="1.0"
     inkscape:pageopacity="0.0"
     inkscape:pageshadow="2"
     inkscape:zoom="0.7"
     inkscape:cx="1202.8647"
     inkscape:cy="487.3889"
     inkscape:document-units="mm"
     inkscape:current-layer="layer1"
     showgrid="false"
     units="px"
     inkscape:window-width="1920"
     inkscape:window-height="1080"
     inkscape:window-x="0"
     inkscape:window-y="0"
     inkscape:window-maximized="0" />
  <metadata
     id="metadata5">
    <rdf:RDF>
      <cc:Work
         rdf:about="">
        <dc:format>image/svg+xml</dc:format>
        <dc:type
           rdf:resource="http://purl.org/dc/dcmitype/StillImage" />
        <dc:title></dc:title>
      </cc:Work>
    </rdf:RDF>
  </metadata>
  <g
     inkscape:label="Layer 1"
     inkscape:groupmode="layer"
     id="layer1"
     transform="translate(0,-11.249983)">
    <flowRoot
       xml:space="preserve"
       id="flowRoot3787"
       style="fill:black;fill-opacity:1;stroke:none;font-family:sans-serif;font-style:normal;font-weight:normal;font-size:40px;line-height:1.25;letter-spacing:0px;word-spacing:0px"><flowRegion
         id="flowRegion3789"><rect
           id="rect3791"
           width="379.81735"
           height="307.08636"
           x="905.09668"
           y="873.92889" /></flowRegion><flowPara
         id="flowPara3793"></flowPara></flowRoot>    <flowRoot
       xml:space="preserve"
       id="flowRoot3795"
       style="fill:black;fill-opacity:1;stroke:none;font-family:sans-serif;font-style:normal;font-weight:normal;font-size:40px;line-height:1.25;letter-spacing:0px;word-spacing:0px"><flowRegion
         id="flowRegion3797"><rect
           id="rect3799"
           width="436.38589"
           height="189.90868"
           x="557.60419"
           y="1467.8986" /></flowRegion><flowPara
         id="flowPara3801"></flowPara></flowRoot>    <flowRoot
       xml:space="preserve"
       id="flowRoot3803"
       style="fill:black;fill-opacity:1;stroke:none;font-family:sans-serif;font-style:normal;font-weight:normal;font-size:40px;line-height:1.25;letter-spacing:0px;word-spacing:0px"><flowRegion
         id="flowRegion3805"><rect
           id="rect3807"
           width="1006.1119"
           height="294.96454"
           x="2238.498"
           y="1.1570827" /></flowRegion><flowPara
         id="flowPara3809"></flowPara></flowRoot>    <flowRoot
       xml:space="preserve"
       id="flowRoot3811"
       style="fill:black;fill-opacity:1;stroke:none;font-family:sans-serif;font-style:normal;font-weight:normal;font-size:40px;line-height:1.25;letter-spacing:0px;word-spacing:0px"><flowRegion
         id="flowRegion3813"><rect
           id="rect3815"
           width="1240.4673"
           height="165.66502"
           x="-808.12201"
           y="1500.2235" /></flowRegion><flowPara
         id="flowPara3817"></flowPara></flowRoot>    <path
       style="fill:#000000;stroke-width:0.26458332"
       id="path3819"
       d="m 317.0697,161.76405 c -0.86439,-0.6733 -1.71283,-1.37223 -2.6557,-1.93394 -0.50249,-0.35893 -0.78787,-0.10829 -1.32037,-0.0116 -0.56738,0.21966 -1.12827,0.43273 -1.65876,0.73516 -0.70241,0.34805 -1.41605,0.67907 -2.10277,1.05893 -1.75832,0.83252 -4.2753,2.32555 3.71731,-2.17831 0.1106,-0.0623 -0.20989,0.14281 -0.31451,0.21473 -0.27622,0.18988 -0.3606,0.24993 -0.63486,0.44215 -0.74737,0.40372 -1.32861,1.00017 -1.91887,1.5958 -0.63727,0.54113 -1.18404,1.17319 -1.74069,1.79375 -0.52224,0.56426 -0.9043,1.23228 -1.2858,1.89427 -0.41108,0.59113 -0.72911,1.22946 -1.03709,1.87741 -0.30638,0.62045 -0.54824,1.26715 -0.79801,1.91136 -0.27008,0.78373 -0.38626,1.61064 -0.56017,2.41996 -0.1628,0.66725 -0.21302,1.35107 -0.24051,2.03487 -0.0206,0.73919 -0.0169,1.47878 -0.0161,2.21818 0.0759,0.73479 0.21241,1.46138 0.30115,2.19525 0.0293,0.60507 0.20476,1.18069 0.41876,1.74194 0.30305,0.51203 0.53369,1.05951 0.84796,1.56519 0.37097,0.62508 0.61542,1.31038 0.87675,1.9851 0.27953,0.61418 0.48398,1.26098 0.76094,1.87523 0.2013,0.5787 0.6513,0.87578 1.20153,1.08501 0.76089,0.22753 1.56152,0.15245 2.33677,0.28454 0.81894,0.13118 1.63121,0.23209 2.43819,0.42183 0.64622,0.13727 1.24598,0.46384 1.76324,0.8678 0.49895,0.32521 1.03563,0.6033 1.60853,0.77316 0.6554,0.20177 1.27828,0.0159 1.93141,-0.0713 0.88566,-0.19845 1.7155,-0.54194 2.52394,-0.94697 0.15404,-0.0674 0.31035,-0.12977 0.46212,-0.20211 0.56581,-0.26968 0.33647,-0.18374 0.88016,-0.49527 0.14205,-0.0814 0.57452,-0.31418 0.43286,-0.23208 -2.06941,1.19949 -10.64252,6.10913 0.82383,-0.46252 1.99028,-1.16828 -1.00748,0.59297 -4.01066,2.301 -0.11718,0.0667 0.22738,-0.14504 0.33936,-0.22015 0.34155,-0.22909 0.65746,-0.48084 0.97253,-0.74461 0.71381,-0.58038 1.43692,-1.14643 2.12605,-1.75675 0.68504,-0.67458 1.30543,-1.41522 1.9221,-2.1525 0.62455,-0.79423 1.26015,-1.57479 1.81491,-2.42008 0.5951,-0.85373 1.10066,-1.76391 1.60244,-2.67416 0.45453,-0.90977 0.89229,-1.83325 1.22722,-2.79438 0.34721,-0.93538 0.61098,-1.89547 0.65617,-2.89447 -0.0599,-0.95752 -0.10329,-1.92165 -0.2381,-2.87218 -0.12676,-0.80064 -0.34089,-1.58431 -0.59373,-2.35356 -0.23846,-0.76399 -0.52564,-1.51114 -0.72128,-2.28786 -0.0832,-0.69566 -0.25942,-1.35223 -0.51387,-2.00233 -0.3271,-0.58091 -0.65958,-1.15918 -1.01407,-1.724 -0.31065,-0.54092 -0.4831,-1.14914 -0.77819,-1.69713 -0.20495,-0.49556 -0.48509,-0.93778 -0.78523,-1.37823 -0.33615,-0.36186 -0.7538,-0.60824 -1.2155,-0.77626 -0.43696,-0.11636 -0.88955,-0.11059 -1.33794,-0.11223 -0.30946,-0.0465 -0.64696,0.0625 -0.95385,0.006 -0.17539,-0.0322 -0.33806,-0.11387 -0.50919,-0.16395 -0.2716,-0.13819 -0.60256,-0.0909 -0.88313,-0.17816 -0.15356,-0.0478 -0.29025,-0.13909 -0.4391,-0.20003 -0.0638,-0.0259 -0.12279,-0.0717 -0.19137,-0.0775 -0.1229,-0.0104 -0.23686,0.0709 -0.35838,0.092 -0.28247,0.049 -0.56997,0.0664 -0.8554,0.0881 -0.75364,0.1986 -1.50656,0.39431 -2.26086,0.59296 -0.36124,0.14482 -0.71814,0.27692 -1.06635,0.45098 0,0 4.40377,-3.48611 4.40377,-3.48611 v 0 c 0.36807,-0.14012 0.73531,-0.28534 1.11853,-0.3802 0.76885,-0.20057 1.53694,-0.4299 2.32757,-0.52502 0.53652,-0.0545 1.06256,-0.16336 1.56389,0.1004 0.41305,0.14958 0.86146,0.18145 1.27937,0.3226 0.45807,0.0931 0.92932,0.0251 1.39473,0.0571 0.49834,0.026 0.99557,0.0781 1.45616,0.28644 0.52533,0.25285 1.01404,0.59254 1.38374,1.04843 0.31435,0.45576 0.60063,0.92008 0.81558,1.43215 0.28702,0.53954 0.46471,1.13161 0.75274,1.67117 0.36425,0.59816 0.72887,1.19611 1.0632,1.81156 0.26678,0.67355 0.49377,1.34398 0.54647,2.07374 0.17452,0.76613 0.46612,1.49359 0.69498,2.24397 0.27662,0.79402 0.49162,1.61193 0.63336,2.44078 0.16809,0.97577 0.16899,1.97487 0.2748,2.95901 0.0196,1.04457 -0.20569,2.07204 -0.58217,3.04614 -0.30054,1.00418 -0.76025,1.93804 -1.18125,2.89602 -0.51954,0.90824 -0.98219,1.85355 -1.58962,2.70822 -0.55237,0.85734 -1.13266,1.68189 -1.78856,2.4648 -0.58412,0.78205 -1.2733,1.48154 -1.88846,2.23965 -0.67374,0.62311 -1.36044,1.2343 -2.11405,1.76083 -1.99805,1.84027 -4.48225,3.00391 -6.86694,4.29403 1.46465,-0.84835 5.86798,-3.37714 4.39401,-2.54503 -2.3192,1.30927 -4.57253,2.8028 -7.00778,3.91057 -0.84362,0.3768 -1.71937,0.68529 -2.63768,0.81921 -0.71387,0.10246 -1.41219,0.12963 -2.0991,-0.1382 -0.59544,-0.24055 -1.17515,-0.53165 -1.69706,-0.90826 -0.50052,-0.32746 -1.03093,-0.58426 -1.62624,-0.68577 -0.79417,-0.17053 -1.60427,-0.24637 -2.40464,-0.3837 -0.82309,-0.0753 -1.67251,-0.0695 -2.44168,-0.41377 -0.62555,-0.32507 -1.16686,-0.74115 -1.41372,-1.42852 -0.28369,-0.6217 -0.49257,-1.27697 -0.76769,-1.90345 -0.25754,-0.63962 -0.4768,-1.29809 -0.83481,-1.89216 -0.33391,-0.53534 -0.5815,-1.11438 -0.90149,-1.6577 -0.23323,-0.6019 -0.45154,-1.22138 -0.48514,-1.8723 -0.0709,-0.75598 -0.1969,-1.50219 -0.32329,-2.25049 -0.003,-0.74454 -0.006,-1.48915 0.005,-2.23364 0.0167,-0.71406 0.0405,-1.4322 0.19719,-2.13212 0.19394,-0.82776 0.3352,-1.66159 0.52618,-2.48758 0.23572,-0.66279 0.48665,-1.31689 0.77086,-1.95966 0.32769,-0.65471 0.58936,-1.33713 1.01436,-1.93891 0.45342,-0.63462 0.74422,-1.37767 1.25129,-1.98052 0.56672,-0.62064 1.09236,-1.28791 1.72768,-1.83897 0.63818,-0.55182 1.11726,-1.27781 1.8755,-1.6871 0.33401,-0.19695 0.62444,-0.44713 0.95726,-0.64398 1.98496,-1.17399 3.84715,-2.38827 5.88553,-3.388 0.70612,-0.35169 1.407,-0.71379 2.11664,-1.05838 0.5707,-0.25359 1.15125,-0.50286 1.76958,-0.61327 0.5823,-0.10093 1.0617,-0.008 1.54149,0.36403 0.9325,0.62202 1.79314,1.34237 2.69719,2.00428 0,0 -4.76332,2.96951 -4.76332,2.96951 z"
       inkscape:connector-curvature="0" />
    <path
       style="fill:#000000;stroke-width:0.26458332"
       id="path3821"
       d="m 370.34223,162.9784 c -1.11259,-0.80807 -2.36251,-1.41379 -3.64632,-1.89711 -1.02397,-0.33426 -2.09804,-0.38152 -3.16506,-0.40742 -1.17533,-0.0404 -2.35397,0.0901 -3.50808,0.30777 -1.31911,0.21858 -2.61657,0.54942 -3.8876,0.963 -1.08572,0.33864 -2.15482,0.77169 -3.14082,1.34122 8.04947,-5.23971 4.07699,-2.31699 2.32262,-0.92451 -0.72366,0.52255 -1.30752,1.19795 -1.89854,1.85908 -0.52287,0.60949 -0.98462,1.26898 -1.41314,1.94732 -0.45575,0.75774 -0.93679,1.49869 -1.35803,2.27664 -0.38915,0.81499 -0.7167,1.66472 -0.94313,2.5395 -0.15854,0.84247 -0.27334,1.68942 -0.28067,2.54707 0.0156,0.80568 0.036,1.61111 0.0455,2.41691 0.0101,0.92957 0.0116,1.85926 0.009,2.78888 -0.0578,1.03612 0.0975,2.05927 0.21225,3.0853 0.11276,0.96784 0.1402,1.94228 0.16092,2.91554 0.0719,0.76219 0.17433,1.524 0.39489,2.25812 0.20759,0.66807 0.60462,1.2169 1.01732,1.76927 0.43519,0.5374 0.8132,1.10465 1.30389,1.59389 0.55058,0.54381 1.12374,1.05559 1.73681,1.52668 0.64913,0.44257 1.40165,0.67096 2.12021,0.96606 0.74679,0.24302 1.47548,0.52852 2.24692,0.68664 0.80322,0.17979 1.59769,0.35461 2.41988,0.43984 0.87908,0.23322 1.77951,0.34175 2.68433,0.40748 0.81923,0.0495 1.64026,0.0461 2.4606,0.0498 0.94345,-0.091 1.82126,-0.4485 2.72375,-0.70938 1.02074,-0.41572 2.03208,-0.85494 3.04864,-1.28421 2.04107,-0.95297 6.45366,-3.59822 -2.04875,1.29492 0.74737,-0.42489 1.43248,-0.92519 2.06015,-1.51059 0.59394,-0.52388 1.08728,-1.13085 1.51987,-1.79084 0.5047,-0.71389 0.92567,-1.48016 1.38102,-2.22486 0.51737,-0.88507 0.99679,-1.79123 1.43455,-2.71828 0.45992,-0.96769 0.82809,-1.97079 1.15985,-2.98791 0.33454,-0.88578 0.47839,-1.81738 0.55957,-2.75546 0.0555,-0.84341 0.0554,-1.68928 0.055,-2.53414 -0.0377,-0.98044 -0.25754,-1.93699 -0.45696,-2.89334 -0.21169,-0.85343 -0.51678,-1.68087 -0.82995,-2.50151 -0.27172,-0.76555 -0.56647,-1.52328 -0.76734,-2.31135 -0.17754,-0.6721 -0.45037,-1.31216 -0.66699,-1.9712 -0.15023,-0.56466 -0.28567,-1.12843 -0.44643,-1.69072 -0.0855,-0.55219 -0.35475,-1.021 -0.65283,-1.48185 -0.26054,-0.45748 -0.69945,-0.70156 -1.10077,-1.00542 -0.4989,-0.30814 -1.01079,-0.59805 -1.54017,-0.85113 -0.67723,-0.35673 -1.34549,-0.74253 -2.05669,-1.02817 -0.95488,-0.33234 -1.97493,-0.36962 -2.97571,-0.40766 -0.83405,-0.0416 -1.67032,0.0368 -2.49764,-0.0829 0,0 4.57131,-3.25099 4.57131,-3.25099 v 0 c 0.82172,0.0453 1.6455,0.0217 2.46748,0.0679 1.0527,0.0612 2.1191,0.14899 3.10208,0.56337 0.70993,0.32254 1.39956,0.68722 2.09111,1.04726 0.54271,0.28743 1.09019,0.56942 1.59432,0.92245 0.4708,0.32267 0.89892,0.69354 1.20354,1.18443 0.33073,0.50232 0.64148,1.0274 0.73964,1.63046 0.15267,0.55912 0.31896,1.10635 0.42868,1.67609 0.21127,0.67539 0.50054,1.32348 0.68172,2.00959 0.17706,0.77073 0.47258,1.50234 0.72822,2.24903 0.33163,0.8471 0.62949,1.7104 0.86569,2.5891 0.1982,0.99274 0.43677,1.9767 0.51535,2.98953 0,0.8578 0.014,1.71637 -0.0343,2.57328 -0.0682,0.9759 -0.17856,1.95877 -0.50839,2.88592 -0.36037,1.02113 -0.66043,2.06164 -1.13681,3.0397 -0.42117,0.95325 -0.91975,1.85942 -1.39274,2.78635 -0.48705,0.72506 -0.86223,1.51705 -1.37592,2.22496 -0.43325,0.68038 -0.84859,1.37225 -1.46478,1.90922 -0.62434,0.61597 -1.25556,1.2012 -2.0248,1.6346 -2.48979,1.44026 -4.92718,3.02827 -7.57164,4.18567 -1.02208,0.42961 -2.03192,0.89847 -3.08766,1.24027 -0.92268,0.2919 -1.85663,0.58592 -2.83512,0.58436 -0.82925,-0.002 -1.65946,-0.0146 -2.48592,-0.0892 -0.90707,-0.0922 -1.80067,-0.25154 -2.69554,-0.42248 -0.83114,-0.11464 -1.64243,-0.30884 -2.46163,-0.48628 -0.77793,-0.20526 -1.53514,-0.4826 -2.29143,-0.75539 -0.76909,-0.29231 -1.53884,-0.60619 -2.20559,-1.09863 -0.62971,-0.48854 -1.21108,-1.03012 -1.77996,-1.58801 -0.50059,-0.51254 -0.90273,-1.09766 -1.34477,-1.6597 -0.45164,-0.6034 -0.8722,-1.21661 -1.11805,-1.93712 -0.23921,-0.78437 -0.351,-1.59019 -0.45336,-2.40358 -0.0109,-0.95909 -0.032,-1.91903 -0.12933,-2.87399 -0.10978,-1.04408 -0.29824,-2.08312 -0.24297,-3.13712 -0.004,-0.92647 -0.003,-1.85296 -0.013,-2.7794 -0.0111,-0.80706 -0.0333,-1.61385 -0.053,-2.42073 -0.008,-0.89922 0.0879,-1.77332 0.23292,-2.6603 0.17383,-0.92817 0.53244,-1.79912 0.88357,-2.67241 0.39476,-0.79794 0.85477,-1.55375 1.33866,-2.30026 0.39468,-0.72463 0.88591,-1.38114 1.36623,-2.05032 0.60357,-0.66875 1.16721,-1.38852 1.87296,-1.95275 2.33595,-1.82578 4.14158,-3.57014 7.24027,-4.6663 1.0269,-0.50621 2.09407,-0.93465 3.19601,-1.24879 1.29206,-0.37867 2.60268,-0.69466 3.9338,-0.90317 1.18708,-0.17078 2.38371,-0.29976 3.58478,-0.22582 1.11093,0.0507 2.22078,0.16262 3.26631,0.57172 1.29585,0.54601 2.54796,1.19183 3.72301,1.96656 0,0 -4.71713,3.03992 -4.71713,3.03992 z"
       inkscape:connector-curvature="0" />
    <path
       style="fill:#000000;stroke-width:0.26458332"
       id="path3823"
       d="m 348.58586,174.20233 c 9.11032,-4.69921 4.37021,-3.01025 3.21287,-1.56545 -0.19479,0.24318 -0.19206,0.29585 -0.2862,0.56086 -0.10803,0.57862 0.38761,0.67332 0.84881,0.74297 0.7375,-0.0605 1.47063,-0.16283 2.20535,-0.24938 0.67667,-0.10265 1.02643,0.27219 1.09773,0.91343 -0.029,0.67297 -0.36965,1.26459 -0.71784,1.82269 -0.42828,0.56457 -0.8522,1.13235 -1.26897,1.70535 -0.29927,0.37802 -0.55896,0.77546 -0.70003,1.23828 -0.0377,-0.0858 -0.0314,0.0534 -0.0246,0.0395 0.0834,-0.16774 0.41122,-0.0954 0.5724,-0.0938 0.51192,-0.1802 1.08194,-0.36806 1.62333,-0.26321 0.62462,0.12326 0.91908,0.58296 0.96641,1.18546 -0.0119,0.71735 -0.2105,1.4093 -0.40542,2.09402 -0.18063,0.64175 -0.50392,1.22575 -0.73141,1.8501 -0.10898,0.62497 -0.31245,0.26116 -0.12565,-0.0483 0.46974,-0.18948 0.90016,-0.4419 1.38543,-0.59907 0.60669,0.0919 0.74108,0.65007 0.76219,1.1831 -0.0857,0.62415 -0.19997,1.24318 -0.26432,1.87039 -0.006,0.0701 -0.0122,0.14024 -0.0177,0.21041 -0.0355,0.44754 -0.0882,-0.0874 -0.0663,-0.11973 0.0284,-0.0419 0.0953,-0.0339 0.14298,-0.0509 0.36209,-0.4274 0.77137,-0.40085 1.27307,-0.31048 0.59714,0.26845 0.88469,0.69919 1.0781,1.30902 0.11007,0.61836 0.16899,1.23646 0.31991,1.84773 0.1474,0.5236 0.47704,0.60463 0.91966,0.81041 0.6545,0.18451 1.304,0.3836 1.96072,0.56509 0.43585,0.10211 0.83768,0.32681 1.21947,0.55691 0.60788,0.38488 0.27173,0.50331 0.16378,0.91689 -0.0802,0.35434 -0.19082,0.70061 -0.30308,1.04577 -0.0864,0.26558 -0.11118,0.33469 -0.11798,0.3313 -0.0458,-0.0229 -0.0435,-0.0927 -0.0653,-0.13909 -6.07211,3.11656 -5.14625,3.45337 -4.2282,-0.026 0.0172,-0.41836 0.51168,-1.50592 0.01,-1.78974 -0.49083,-0.32318 -1.0691,-0.54238 -1.61798,-0.76526 -0.81566,-0.42447 -1.66804,-0.71588 -2.58101,-0.81059 -0.98994,-0.12131 -1.86452,0.32989 -2.70177,0.79958 10.10883,-6.39136 5.31927,-3.03234 3.99124,-2.27112 -1.73016,0.99172 -3.45786,1.98782 -5.19562,2.96614 -0.37576,0.21153 -0.63418,0.2084 -1.0351,0.099 -0.72242,-0.45028 -0.78116,-1.27387 -0.84542,-2.04667 -0.0846,-0.84734 -0.0188,-1.68133 0.11803,-2.51748 0.1738,-0.99625 0.2042,-2.00844 0.23193,-3.01692 0.0293,-1.33023 0.0249,-2.66083 0.0243,-3.99128 -0.0145,-0.98862 0.07,-1.98727 -0.19828,-2.94922 -0.0566,-0.2428 -0.45884,-0.90908 -0.7548,-0.59626 -1.60605,1.1178 -0.0985,0.0625 4.60788,-2.54688 0.0601,-0.0333 -0.11724,0.0719 -0.17627,0.10727 -0.18301,0.10959 -0.31112,0.22189 -0.45881,0.37507 -0.29919,0.41245 -0.50806,0.87197 -0.72933,1.32925 -0.22566,0.50869 -0.27778,1.0645 -0.31128,1.61329 -0.006,0.79864 0.27683,1.47911 0.74967,2.10476 0.5642,0.72396 1.36179,1.14678 2.18083,1.51834 0.91742,0.41767 1.89428,0.69513 2.7528,1.23119 0.73893,0.38884 1.23873,0.99599 1.56636,1.75006 0.16894,0.5193 0.29689,1.04724 0.49515,1.55754 0.0182,0.0177 0.0311,0.0629 0.0544,0.0531 0.003,-0.001 0.33102,-0.47063 0.13724,-0.36508 -0.85262,0.46443 -6.35461,3.66939 -4.50681,2.59315 1.67402,-0.95471 3.33505,-1.93257 5.02206,-2.86413 0.47082,-0.25998 0.9476,0.34524 1.18065,0.65003 0.38518,0.76134 0.61153,1.58618 0.87542,2.39391 0.15841,0.49599 0.38508,0.98096 0.66929,1.41871 0.33409,0.53847 0.41521,1.16561 0.47562,1.78325 0.11401,0.68813 -0.0383,1.35819 -0.11872,2.03636 0.004,0.16747 0,0.35356 0.0791,0.50675 -5.98496,3.73915 -3.54513,3.73191 -5.87854,1.89763 -0.80897,-0.48938 -1.56081,-1.06437 -2.32061,-1.62523 -0.80955,-0.60342 -1.62139,-1.21005 -2.48528,-1.73446 -0.40177,-0.20844 -0.95306,-0.82618 -1.44831,-0.63567 -2.02308,1.55172 2.72016,-2.9313 4.73747,-2.98252 0.55229,-0.0865 1.01611,-0.47184 1.5299,-0.68646 0.13568,-0.0696 0.26916,-0.14375 0.40701,-0.20895 0.98523,-0.46598 -0.0918,0.0996 0.79989,-0.41695 0.11819,-0.0685 0.47953,-0.26166 0.36121,-0.19341 -4.70892,2.71672 -5.90741,3.56522 -4.25434,2.40973 0.0604,-0.0475 0.12083,-0.095 0.18126,-0.14251 0,0 5.22201,-2.1233 5.22201,-2.1233 v 0 c -0.0595,0.0578 -0.11907,0.11552 -0.1786,0.17328 -1.9966,1.75893 -4.55745,2.80843 -6.93084,3.99628 -0.54954,0.28456 -1.12321,0.58448 -1.75852,0.4373 -2.4016,-0.74473 2.48279,-3.84963 4.46749,-3.55332 0.58338,0.19486 1.08119,0.541 1.58429,0.88847 0.85149,0.5606 1.67349,1.16562 2.48989,1.77575 0.77341,0.55843 1.55078,1.1099 2.34897,1.63227 2.40422,1.90578 0.48737,1.30302 -3.74851,3.9749 -0.0167,0.0105 -0.0209,-0.0333 -0.0314,-0.05 -0.13478,-0.2462 -0.1818,-0.52569 -0.20315,-0.80305 -0.0103,-0.66516 0.30086,-1.30116 0.16026,-1.97676 -0.0394,-0.52639 -0.0712,-1.07547 -0.35933,-1.53476 -0.3075,-0.47967 -0.54396,-1.01943 -0.71501,-1.56042 -0.23866,-0.7425 -0.4498,-1.49724 -0.78992,-2.20156 -0.0863,-0.0944 -0.14875,-0.19932 -0.28588,-0.22487 -0.15677,-0.0292 -0.33999,0.1607 -0.47569,0.19511 1.55141,-0.89642 3.10279,-1.79285 4.6542,-2.68927 -1.10424,0.71905 -4.50691,4.4707 -5.88396,2.49625 -0.1801,-0.50947 -0.3379,-1.02314 -0.46315,-1.54801 -0.26538,-0.66218 -0.73906,-1.11574 -1.37015,-1.44854 -0.86889,-0.48005 -1.82737,-0.76415 -2.72116,-1.19353 -0.88172,-0.44264 -1.72667,-0.94113 -2.33021,-1.74564 -0.53726,-0.73232 -0.87215,-1.51837 -0.95049,-2.43203 0.0156,-0.60324 0.0533,-1.20861 0.2213,-1.79199 0.17544,-0.47959 0.39145,-0.98859 0.6895,-1.39639 0.10438,-0.27598 0.25935,-0.57845 0.52705,-0.72969 5.056,-2.85655 3.11838,-2.98926 5.23536,-2.80232 0.53669,0.25178 0.92885,0.62612 1.10525,1.21136 0.31493,1.0121 0.25008,2.06129 0.23884,3.11008 1.6e-4,1.33218 0.003,2.66439 -0.007,3.99654 -0.0164,1.02762 -0.0323,2.05864 -0.1741,3.0783 -0.13652,0.7991 -0.27482,1.58333 -0.1801,2.3993 0.0236,0.38994 -0.069,1.27099 0.44493,1.35539 0.27474,-0.0598 0.20468,-0.0304 0.49712,-0.16731 0.11189,-0.0524 0.43778,-0.22903 0.33121,-0.16651 -1.46654,0.86024 -2.94079,1.70722 -4.41167,2.56002 -0.13446,0.078 0.26829,-0.15699 0.40244,-0.23548 1.73765,-1.00417 3.47527,-2.00834 5.21292,-3.01251 0.93509,-0.42584 1.86778,-0.72797 2.90957,-0.52608 0.9338,0.17162 1.80936,0.51554 2.66483,0.92383 0.60524,0.25854 1.25931,0.46717 1.74988,0.92247 0.63185,0.71866 0.38473,1.46709 0.23876,2.34137 -1.03246,3.81986 0.0696,2.08432 -5.73866,5.24414 -0.24828,-0.51516 0.25511,-1.07245 0.34132,-1.59399 0.0156,-0.10384 0.0407,-0.2067 0.0465,-0.31153 0.006,-0.1025 -0.10835,-0.34412 -0.0124,-0.30771 0.28046,0.10642 0.36468,0.52797 0.12184,0.3226 -0.35142,-0.20314 -0.72181,-0.36177 -1.11807,-0.45643 -0.67141,-0.20908 -1.36459,-0.35188 -2.01063,-0.63366 -0.57684,-0.27015 -0.96903,-0.62547 -1.1812,-1.24154 -0.14476,-0.60583 -0.26043,-1.2037 -0.30665,-1.82558 -0.0977,-0.37795 -0.26303,-0.73298 -0.71708,-0.71789 -0.43855,0.0424 -0.75671,0.39603 -1.19703,0.42717 -0.5189,0.033 -0.68749,-0.51193 -0.59912,-0.93933 0.0642,-0.62204 0.13901,-1.24413 0.26977,-1.85628 0.0959,-0.34563 0.12152,-0.45518 -0.16542,-0.228 -0.47688,0.20035 -0.93197,0.47265 -1.46111,0.51054 -0.52525,-0.18059 -0.68027,-0.46492 -0.46333,-0.95301 0.22201,-0.63176 0.51257,-1.22482 0.75739,-1.84264 0.22662,-0.62174 0.39127,-1.27624 0.4613,-1.93378 0.0735,-0.46118 -0.0446,-0.40849 -0.51334,-0.44013 -0.53888,0.0994 -1.07754,0.27096 -1.62769,0.24984 -0.53208,-0.0543 -0.95462,-0.21211 -1.06431,-0.79375 0.11223,-0.52466 0.27585,-1.02951 0.63349,-1.44451 0.42291,-0.57332 0.83605,-1.145 1.26436,-1.71447 0.39373,-0.41978 0.63963,-0.94586 0.86241,-1.47213 0.008,-0.0642 -0.009,-0.18946 0.0553,-0.18613 0.35737,0.0184 -0.89493,-0.0101 -0.64953,0.0602 -0.76747,0.0823 -1.54924,0.22238 -2.31685,0.0789 -0.70244,-0.23949 -1.28516,-0.6623 -1.28153,-1.47629 0.0799,-0.84525 0.53282,-1.45711 1.26542,-1.89349 1.74175,-1.0375 3.50224,-2.04327 5.25336,-3.06491 0,0 -4.38463,3.5073 -4.38463,3.5073 z"
       inkscape:connector-curvature="0" />
    <path
       style="fill:#000000;stroke-width:0.26458332"
       id="path3825"
       d="m 309.29363,173.36219 c -0.51348,0.9811 -0.92184,2.00783 -1.18965,3.08177 -0.10104,0.4665 -0.25498,1.03601 0.22865,1.30736 0.46673,0.0984 0.94253,0.002 1.39682,0.14855 0.72705,0.45179 0.9045,1.25685 1.04915,2.04405 0.043,0.38436 0.21545,1.82268 0.32528,1.32133 0.26188,-2.001 0.0906,-0.20334 -4.5906,2.41117 -0.0845,0.0472 0.15282,-0.1198 0.21963,-0.18977 0.24141,-0.2528 0.43789,-0.5627 0.64355,-0.84402 1.6538,-2.27572 5.41824,-5.50518 5.8172,-1.93212 0.0596,1.06857 -0.13102,2.13154 -0.24238,3.19166 -0.0827,0.49874 -0.0949,0.96586 0.0691,1.44361 0.0699,0.2318 0.13504,0.5291 0.35012,0.67279 0.29869,0.19243 0.58354,0.0162 0.88053,-0.0678 3.28668,-2.06784 -6.0176,3.88299 -3.36762,1.80035 1.73874,-1.3479 0.29258,-0.24277 5.24651,-3.06 0.31821,-0.18098 0.52953,0.11254 0.68892,0.34814 0.16724,0.37856 0.16878,0.80026 0.18489,1.20731 0.0573,-2.18945 -6.59127,3.6647 -4.29752,2.01525 1.30551,-0.96964 4.32062,-4.32449 6.07494,-2.59868 0.28654,0.32169 0.32901,0.82704 0.64714,1.11842 0.22799,0.0427 0.87609,-0.37885 1.08831,-0.5039 0.0897,-0.0531 0.3597,-0.21114 0.26927,-0.15925 -1.51194,0.8675 -3.01985,1.74198 -4.53372,2.60609 -0.0988,0.0564 0.18937,-0.12631 0.28811,-0.18272 1.35046,-0.77151 3.81677,-2.41328 5.79861,-3.22192 0.51379,-0.2825 1.18078,-0.16071 1.67701,-0.44538 1.71235,-1.00365 -0.003,0.003 -4.4921,2.55667 -0.0593,0.0338 0.1179,-0.0689 0.1764,-0.10412 0.22839,-0.13756 0.35674,-0.3166 0.52128,-0.52587 0.46405,-0.63997 0.89974,-1.30175 1.31236,-1.97625 0.26808,-0.46141 0.60039,-0.87787 0.85923,-1.34475 0.17344,-0.32307 -0.24677,0.40641 0.19416,0.22706 1.62467,-0.66086 3.1325,-1.58184 4.73445,-2.29601 0.13946,-0.0622 -0.21021,0.22166 -0.31986,0.32792 -0.40079,0.38836 -0.41962,0.38446 -0.87402,0.74681 -2.50812,1.84374 -5.20584,3.45467 -8.14644,4.47673 -0.9951,0.34209 -1.9349,0.52923 -2.98059,0.40728 -0.65397,-0.0417 -1.10638,-0.23704 -1.38617,-0.84061 -0.18029,-0.63335 -0.14693,-1.30357 -0.14563,-1.95582 -0.0233,-0.12619 0.0701,-1.21343 -0.0508,-1.21207 -0.36594,0.40168 -1.07664,0.46504 -1.57855,0.64371 -0.927,0.2062 -1.85688,0.53855 -2.80752,0.59888 -0.83185,0.0688 -1.62275,-0.098 -2.42467,-0.2874 -0.71737,-0.22567 -1.18658,-0.6346 -1.51678,-1.30194 -0.29213,-0.75429 -0.12859,-1.57614 -0.0474,-2.35747 -0.008,-0.2042 0.11745,-0.57279 -0.0323,-0.767 -0.0199,-0.0257 -0.0632,0.0163 -0.0956,0.0177 -0.0584,0.18973 -0.007,0.11175 -0.14933,0.23761 1.55292,-0.87428 3.09526,-1.76765 4.65876,-2.62285 0.234,-0.128 -0.27443,0.27758 -0.45411,0.48608 -0.23103,0.26768 -0.0241,0.59233 0.14293,0.83224 0.39434,0.64407 0.942,1.08307 1.52823,1.54238 0.86747,0.67329 1.85936,1.0973 2.91714,1.35932 1.03619,0.28746 2.0375,0.0814 3.05443,-0.15567 0.95134,-0.24304 1.93088,-0.31496 2.90785,-0.3631 0.67911,-0.0347 1.35946,-0.033 2.03928,-0.0321 0.54139,0.0155 1.02684,-0.2515 1.50384,-0.47073 -0.12745,0.2086 0.65375,-0.33302 0.49421,-0.24237 -1.54503,0.8779 -6.2938,3.25889 -4.62171,2.65719 3.40309,-1.22461 3.26424,-3.04976 5.43345,-2.78672 0.30303,0.24741 0.55182,0.56932 0.72589,0.91894 0.16351,0.40011 0.34742,0.79074 0.5284,1.1831 0.27839,0.63766 0.23635,1.30911 0.0287,1.95621 -0.2939,0.81588 -0.78957,1.43636 -1.4891,1.9349 -2.70288,1.72866 -4.89762,3.2917 -7.93057,3.71275 -1.0427,0.048 -2.04568,-0.19868 -3.05684,-0.40528 -0.79004,-0.0719 -1.51468,-0.30404 -2.22027,-0.65521 -0.57021,-0.34656 -0.9946,-0.86542 -1.41111,-1.37652 -0.32141,-0.34376 -0.62319,-0.64621 -1.07143,-0.80512 -0.30731,-0.21089 -0.65288,-0.32678 -1.0092,-0.42272 -0.32768,-0.0108 -0.56218,-0.38637 -0.68262,-0.65622 -0.0916,-0.22537 -0.10729,-0.47045 -0.12303,-0.71054 7.09252,-3.8185 3.23458,-3.45153 5.41557,-2.64069 0.29694,0.1104 0.57155,0.1412 0.87394,0.0365 -6.57905,3.97157 -2.85943,2.77264 -6.24043,2.4924 -0.74102,-0.0323 -1.52395,0.0691 -2.23631,0.28969 1.57789,-0.89676 3.17889,-1.75403 4.73366,-2.69029 0.20203,-0.12166 -0.38651,-0.10173 -0.0238,-0.23748 0.14203,-0.0531 0.9356,0.0468 1.08242,0.0527 1.54474,0.008 3.08215,0.0406 4.62256,0.15721 1.68373,0.16597 3.37981,0.13152 5.06317,0.28439 1.3313,0.1264 2.65319,0.3638 3.93856,0.73132 0.53171,0.11812 0.99317,0.30606 1.4255,0.63115 0.11318,0.0855 0.2165,0.1807 0.29974,0.29519 -4.22045,3.94421 -3.3941,2.34006 -5.73368,3.40336 -0.75676,0.32117 -1.5681,0.49337 -2.33053,0.79254 -0.64497,0.25917 -1.33196,0.31334 -1.979,0.0474 -0.52446,-0.21064 -0.77526,-0.67292 -0.89614,-1.19576 0,0 4.97591,-2.64971 4.97591,-2.64971 v 0 c 0.0395,0.36737 0.1883,0.5773 0.56666,0.65918 0.6201,0.067 1.188,-0.0754 1.7631,-0.31304 0.78727,-0.24212 1.56401,-0.51252 2.33397,-0.80531 2.11728,-0.60637 4.44537,0.0498 -3.57942,2.94538 -0.0227,-0.0183 -0.14218,-0.11615 -0.18782,-0.14777 -0.38524,-0.25635 -0.84537,-0.35147 -1.27982,-0.49565 -1.25312,-0.3502 -2.54619,-0.55584 -3.84199,-0.66485 -1.68232,-0.11257 -3.37023,-0.13665 -5.0506,-0.28711 -1.5535,-0.0991 -3.10597,-0.0891 -4.6617,-0.11925 -0.53842,-0.0374 -1.19554,-0.003 -1.54977,-0.49775 -1.13114,-1.58018 4.06519,-8.76506 4.79783,-3.31193 0.77017,-0.11094 1.5436,-0.2416 2.32264,-0.11679 3.50544,0.52193 1.55406,2.33611 -2.88047,4.10892 -0.35372,-0.048 -0.66836,-0.13546 -1.0033,-0.26127 -1.99022,-0.7476 -0.23005,-0.14097 4.29946,-3.06939 -0.008,0.17582 -0.0127,0.357 0.0188,0.52992 0.0614,0.1967 0.25453,0.17491 0.42238,0.23637 0.35806,0.13583 0.69676,0.30724 1.03698,0.48199 0.47271,0.25835 0.84241,0.63172 1.19825,1.03217 0.3629,0.45055 0.74663,0.90546 1.27577,1.16486 0.67762,0.30516 1.39705,0.43457 2.1269,0.55622 0.9634,0.20224 1.93966,0.38638 2.92741,0.24602 2.58032,-0.48605 6.03094,-2.78288 -1.7644,1.68745 0.75104,-0.45192 1.27079,-0.76146 1.60202,-1.62566 0.26781,-0.46873 0.38918,-1.01371 0.17875,-1.53169 -0.18229,-0.3886 -0.37798,-0.7719 -0.53797,-1.16946 -0.0473,-0.10559 -0.26043,-0.53427 -0.37275,-0.36887 -0.0933,0.0229 -0.35573,0.14109 -0.27273,0.0928 1.54779,-0.90036 6.18014,-3.61923 4.65389,-2.68284 -2.4348,1.49382 -3.51756,2.30347 -5.54506,3.12052 -0.52096,0.21519 -1.07797,0.31452 -1.64203,0.28495 -0.66717,8e-4 -1.33456,0.005 -2.00081,0.0456 -0.96059,0.068 -1.91346,0.19264 -2.84974,0.42502 -1.07633,0.20941 -2.14368,0.26584 -3.20773,-0.0649 -1.10144,-0.33447 -2.13617,-0.82545 -3.04911,-1.53654 -0.62868,-0.49032 -1.19862,-1.00213 -1.64283,-1.67095 -0.29469,-0.42689 -0.48903,-0.87154 -0.43897,-1.40324 0.0756,-0.18109 0.22193,-0.51611 0.39939,-0.62512 0.0597,-0.0367 3.61508,-3.84633 5.44153,-2.8426 0.39714,0.34207 0.50757,0.81698 0.41992,1.33033 -0.0736,0.67991 -0.25218,1.40793 -0.0917,2.07738 0.24572,0.52577 0.68805,0.75113 1.24433,0.87833 0.75814,0.16762 1.52398,0.24251 2.29894,0.13616 0.92501,-0.17866 1.84783,-0.39586 2.74508,-0.68358 0.63926,-0.18597 1.37657,-0.59922 1.97435,-0.13473 0.35589,0.48173 0.23524,1.01457 0.22989,1.59044 -0.003,0.58133 -0.0201,1.16781 0.0579,1.74511 0.12203,0.37346 0.73599,0.26797 1.03484,0.3328 0.97025,0.0257 1.905,-0.25802 2.81395,-0.57519 0.40031,-0.14822 0.74713,-0.26689 1.13371,-0.44809 0.19188,-0.0899 0.74779,-0.39856 0.56518,-0.29105 -7.717,4.54385 -4.7512,2.85619 -3.14759,1.76503 1.70241,-1.20574 5.89809,-5.81444 6.6517,-3.49177 0.0111,0.034 -0.0288,0.0654 -0.0432,0.0981 -0.24085,0.49691 -0.52805,0.95948 -0.88434,1.38297 -0.38124,0.70773 -0.85683,1.35155 -1.26601,2.04176 -0.16182,0.21054 -0.28432,0.46611 -0.44765,0.66987 -1.27293,1.58823 -3.41495,2.49592 -5.38458,3.08201 -0.5619,0.0826 -1.11025,0.23326 -1.62552,0.47659 -0.45927,0.22526 -0.66586,0.32662 -0.6616,0.32413 9.70693,-5.69277 1.66291,-0.8734 -1.15361,0.65205 -0.55684,0.22318 -1.04957,0.39365 -1.52611,-0.0891 -0.24755,-0.3164 -0.38608,-0.69289 -0.5928,-1.03324 -0.14581,-0.0633 -0.22926,-0.0855 -0.37775,-0.0133 -0.0489,0.0238 -0.1897,0.10602 -0.14287,0.0785 4.72337,-2.77791 5.98712,-3.89352 4.45532,-2.56452 -1.67048,1.45163 -4.7152,4.97607 -5.96871,2.64982 0.009,-0.29669 -0.006,-0.59319 -0.0114,-0.88895 0.0931,0.19492 -0.38357,0.39043 -0.22159,0.29652 4.6626,-2.70323 6.23028,-3.43515 4.37772,-2.56049 -1.94839,1.48165 -4.01347,2.98381 -6.35455,3.68922 -0.45281,0.0567 -0.87313,-0.053 -1.20372,-0.38157 -0.22363,-0.26018 -0.41879,-0.55381 -0.47953,-0.89613 -0.18987,-0.55845 -0.27668,-1.09418 -0.14934,-1.68282 0.12595,-1.02331 0.30999,-2.05308 0.28848,-3.08489 -0.014,-0.19603 -0.0497,-0.39098 -0.0498,-0.58753 0,-0.0159 0.01,0.0495 0.0233,0.0416 1.58525,-0.89773 3.15013,-1.83099 4.73199,-2.73464 0.15822,-0.0904 -0.74498,0.49018 -0.38158,0.39132 -1.42822,1.86892 -3.08369,5.11062 -6.09854,4.04095 -0.55483,-0.49238 -0.55118,-1.18328 -0.61299,-1.88368 -0.0802,-0.50166 -0.12292,-1.30418 -0.7231,-1.45358 -0.53309,-0.0273 -1.08897,-0.0379 -1.54125,-0.35921 -0.55775,-0.50773 -0.6875,-1.1588 -0.5165,-1.89113 0.26422,-1.10586 0.63863,-2.16774 1.13229,-3.19394 0,0 5.11561,-2.31446 5.11561,-2.31446 z"
       inkscape:connector-curvature="0" />
    <path
       style="fill:#000000;stroke-width:0.26458332"
       id="path3827"
       d="m 325.07626,197.94336 c -0.86569,0.70102 -1.78176,1.33513 -2.61453,2.07626 -0.3764,0.32032 -0.75303,0.64625 -1.06008,1.0354 -0.27379,0.3524 -0.49025,0.74329 -0.68998,1.14171 -0.24302,0.39677 -0.39659,0.85601 -0.66059,1.23726 -0.19685,0.30462 -0.40132,0.63629 -0.68741,0.86504 -0.25027,0.19012 -0.35497,0.4663 -0.53904,0.70797 -0.1279,0.0994 -0.21688,0.15685 -0.28011,0.32069 -0.0653,0.13429 -0.0482,0.29712 -0.0585,0.44418 -0.15399,0.50837 -0.25572,1.02822 -0.31147,1.55592 -0.0421,0.43804 -0.0513,0.87849 -0.052,1.3183 -0.0307,0.37262 0.004,0.70768 0.12721,1.05796 0.12811,0.34432 0.14335,0.7118 0.29154,1.04719 0.10118,0.28508 0.26668,0.52168 0.4176,0.77794 0.11705,0.27909 0.31908,0.50489 0.45712,0.77077 0.0883,0.31257 0.25688,0.58311 0.39206,0.87604 0.0996,0.11209 0.22762,0.1863 0.36777,0.23253 0.22965,0.17666 0.5553,0.26636 0.83608,0.40265 0.38002,0.17824 0.67545,0.4694 1.0714,0.61271 0.28538,0.049 0.57238,0.0427 0.8604,0.0387 0.35232,0.002 0.69808,-0.0652 1.01555,0.10102 0.53756,0.28184 0.43593,0.14771 0.89281,5.3e-4 0.33457,-0.0996 0.69342,-0.1038 1.0409,-0.10802 0.3425,-0.007 0.68516,-0.005 1.02775,-0.005 0.26307,-2.5e-4 0.52615,0.001 0.78925,0.001 0.21653,9e-5 0.43304,2.7e-4 0.64955,-0.002 1.88151,-0.0261 1.39626,-0.56155 -4.69196,2.65561 -0.0506,0.0268 0.007,-0.13231 0.0554,-0.16262 4.36793,-2.72499 3.27305,-2.22686 5.24529,-3.10536 0.0786,-0.0191 0.16004,-0.029 0.2359,-0.0572 0.11205,-0.0416 0.98806,-0.53599 0.44836,-0.22588 -1.53165,0.88006 -3.06753,1.75273 -4.60166,2.62842 -0.0714,0.0408 0.14232,-0.0825 0.21352,-0.12368 1.67918,-0.97087 3.35841,-1.94165 5.03761,-2.91247 -8.3086,4.73085 -5.37797,3.2482 -3.68625,2.02648 1.71625,-1.39103 2.82308,-1.78743 5.46364,-3.28718 1.51223,-0.85889 -5.83848,3.73389 -4.53014,2.58814 1.77078,-1.32006 3.7011,-2.22597 5.67997,-3.35607 -7.91321,5.33449 -5.66116,3.30235 -3.92247,2.16277 0.28625,-0.34027 0.63727,-0.61771 0.96348,-0.91802 0.34126,-0.30308 0.60555,-0.67967 0.87384,-1.04702 0.17727,-0.30958 0.46781,-0.53607 0.6687,-0.82305 0.17849,-0.30816 0.32901,-0.64068 0.53695,-0.92739 0.24064,-0.44824 0.49866,-0.88738 0.77025,-1.31934 0.1533,-0.35448 0.38246,-0.66158 0.58166,-0.99012 0.031,-0.0638 0.0791,-0.13066 0.11941,-0.18265 6.81887,-3.26069 5.84544,-3.25492 4.35293,-1.23792 -0.39458,0.51106 -0.72316,1.0667 -1.04455,1.62511 -0.26649,0.4762 -0.51742,0.96029 -0.73279,1.46171 -0.23104,0.41089 -0.36997,0.85359 -0.47138,1.31077 -0.17886,0.45731 -0.3084,0.92558 -0.52925,1.36541 -0.25964,0.45604 -0.62135,0.83861 -0.97756,1.21926 -0.38761,0.30254 -0.73972,0.64462 -1.13471,0.93832 -0.26771,0.25656 -0.59677,0.41922 -0.87945,0.65162 -1.56681,1.47416 -4.02376,2.47969 -5.67114,3.42801 0.29578,-0.0526 -0.91805,0.42896 -0.61306,0.25148 1.55067,-0.90241 6.16733,-3.66104 4.6832,-2.65292 -1.59517,1.08354 -3.31425,1.97543 -5.01734,2.87989 -1.57877,0.83843 3.09607,-1.78779 4.64412,-2.68168 -2.95764,1.92867 -10.26755,5.92327 -0.61394,0.4148 0.0771,-0.044 -0.14293,0.10583 -0.21989,0.14994 -4.65289,2.66624 -3.38394,1.99506 -5.353,3.0307 -3.89758,2.24684 16.19634,-9.34213 -0.79531,0.45514 -1.50402,0.86722 3.00829,-1.73409 4.51379,-2.59875 0.0921,-0.0529 -0.18137,0.11046 -0.27342,0.1634 -1.69585,0.97525 -3.39347,1.94743 -5.09021,2.92115 -0.10121,0.0304 -0.20704,0.0482 -0.30361,0.0911 -0.7946,0.35275 0.31766,-0.0393 -0.50464,0.2699 -0.27101,0.10193 -0.5198,0.15081 -0.77737,0.28787 -0.40619,0.23151 -0.89157,0.3213 -1.35517,0.35163 -0.0603,0.004 -0.12351,-0.007 -0.18095,0.0113 -0.0579,0.0189 -0.0989,0.0726 -0.1542,0.098 -0.26839,0.12338 -0.56991,0.16855 -0.85691,0.22425 -0.42637,-0.0289 -0.72795,0.15782 -1.10958,0.29661 -0.27411,0.12185 -0.60153,0.0419 -0.87966,0.11342 -0.1469,0.0378 -0.27445,0.1305 -0.41741,0.18121 -0.36877,0.14378 -0.7625,0.19465 -1.15448,0.21916 -0.32277,0.002 -0.64548,5.3e-4 -0.96824,5.3e-4 -0.26234,-0.037 -0.57931,-0.29553 -0.76478,-0.48902 -0.20532,-0.17024 -0.32036,-0.50778 -0.5769,-0.60132 -0.23971,-0.25595 -0.49569,-0.48007 -0.79041,-0.67235 -0.26226,-0.30449 -0.54015,-0.60768 -0.73507,-0.96051 -0.16711,-0.29948 -0.21468,-0.62885 -0.23797,-0.9652 -0.01,-0.34463 -0.0116,-0.68962 -0.008,-1.03437 0.0262,-0.30129 -0.13563,-0.56014 -0.2303,-0.83704 -0.0741,-0.32995 -0.26974,-0.60588 -0.37785,-0.9264 -0.12845,-0.43496 -0.15422,-0.8889 -0.0693,-1.3332 0.13031,-0.39472 0.21572,-0.79833 0.28266,-1.20771 0.16367,-0.40021 0.27614,-0.81261 0.34647,-1.2384 0.11123,-0.52353 0.22481,-1.06006 0.42844,-1.55688 0.21098,-0.42951 0.26672,-0.90807 0.41957,-1.35612 0.0867,-0.23844 0.21881,-0.44786 0.28602,-0.69299 0.45061,-1.8069 3.6862,-1.73238 5.02986,-2.32625 -0.21564,0.63001 -0.27181,1.29903 -0.312,1.95943 -0.0587,0.62124 -0.0241,1.2224 0.11832,1.82762 0.092,0.55936 0.21389,1.10348 0.36346,1.64989 0.10528,0.4812 0.20021,0.94836 0.37309,1.40974 0.18442,0.25212 0.26085,0.59386 0.54721,0.74451 0.26792,-0.0131 0.44366,0.15763 0.68374,0.27975 0.33917,0.0239 0.58915,0.19793 0.86521,0.37763 0.29218,0.1799 0.45943,0.47749 0.70469,0.70795 0.25422,0.0803 0.39728,0.41886 0.64916,0.48617 0.26223,0.13558 0.47807,0.30633 0.76793,0.38589 0.30554,0.0283 0.6124,0.0305 0.91905,0.0278 0.12761,-0.23281 0.40624,-0.19522 0.60389,-0.29909 0.0566,-0.0298 0.0915,-0.0894 0.13721,-0.13414 0.0639,-0.0314 0.12782,-0.0628 0.19172,-0.0942 3.7067,-2.08663 -16.26942,9.34385 0.59155,-0.33252 1.53506,-0.88096 -3.06324,1.77398 -4.60174,2.6489 -0.15039,0.0855 0.28332,-0.19867 0.42752,-0.29425 1.94437,-1.3366 3.97478,-2.38276 6.06853,-3.58533 -1.5459,0.88664 -11.35396,6.5215 0.43358,-0.28026 0.069,-0.0398 0.14189,-0.0726 0.21283,-0.10886 0.0786,-0.0223 0.16298,-0.0298 0.23574,-0.0669 0.0666,-0.034 0.11581,-0.0948 0.17373,-0.14217 0.0708,-0.0346 0.14163,-0.0693 0.21246,-0.10393 0.41767,-0.13863 0.7376,-0.42185 1.17345,-0.52755 0.42011,-0.0341 0.7294,-0.29665 1.14266,-0.38384 0.36478,-0.0659 0.6188,-0.37006 0.97422,-0.4665 1.92365,-0.35679 0.23304,-0.0605 -4.54779,2.64284 -0.29832,0.16867 0.1339,-0.10643 0.23746,-0.13368 1.16626,2.18259 0.0848,0.65896 4.89572,-2.00111 0.1093,-0.0604 -0.18407,0.1689 -0.27498,0.25454 -0.3016,0.28408 -0.60174,0.56638 -0.9134,0.83953 -0.54081,0.54738 -1.13815,1.03194 -1.73707,1.51326 -0.44667,0.3568 -0.9199,0.67745 -1.37432,1.02402 -13.25909,7.62176 -0.4699,0.25209 -0.35404,0.18612 0.0593,-0.0338 -0.10692,0.0848 -0.16174,0.12548 -0.13576,0.10063 -0.27448,0.18829 -0.42167,0.2708 -1.89849,1.38473 -3.9769,2.5951 -6.13642,3.52954 0.93527,-0.56424 -2.30217,1.26052 -1.3529,0.71408 4.6586,-2.68169 5.95262,-3.50623 4.22728,-2.414 -0.34534,0.2209 -0.65911,0.48554 -0.9679,0.75384 -1.88114,1.11721 -6.80432,3.37386 -4.52679,1.53276 0.6775,-0.54893 1.39857,-1.04096 2.11463,-1.53765 0.59548,-0.48339 1.20404,-0.94997 1.80938,-1.42096 1.73734,-1.20636 3.69015,-2.1595 5.50643,-3.16594 0.14232,-0.0789 0.37682,-0.081 0.53417,-0.0818 0.46342,-0.0157 0.53224,0.11593 0.91048,-0.18608 0.15775,-0.19332 0.57992,-0.0554 0.74481,-0.17338 0.0396,-0.0284 0.0404,-0.0888 0.0606,-0.13315 -15.00627,8.73939 4.39507,-2.96331 -0.38225,1.57046 -0.34324,0.31078 -0.69445,0.6126 -1.04007,0.92077 -0.28705,0.25396 -0.11396,0.19502 -0.42675,-0.4488 0.33475,-1.91308 0.0652,-0.15269 -4.65151,2.51817 -0.0833,0.0472 0.16434,-0.0985 0.24308,-0.15286 0.26397,-0.18237 0.50784,-0.39772 0.75448,-0.60216 0.49985,-0.40472 1.0164,-0.789 1.51503,-1.19561 0.39516,-0.28433 0.76134,-0.58992 1.09244,-0.94802 0.35483,-0.23235 0.59037,-0.57192 0.81894,-0.92034 0.29776,-0.36132 0.66376,-0.65857 1.00237,-0.98027 0.3718,-0.26906 0.76317,-0.50845 1.12604,-0.78959 0.19543,-0.2005 0.44554,-0.38282 0.63567,-0.58918 -8e-5,-0.23689 0.22344,-0.25111 0.32109,-0.40445 0.23776,-0.37328 -0.0823,0.0312 0.16016,-0.26133 1.48079,-1.39385 0.0788,-0.0861 5.08182,-2.94931 1.8891,-1.08114 -4.47982,4.78425 -4.58893,2.72016 0.0284,0.0466 -0.0558,-0.28792 -0.0838,-0.43677 0.0436,-0.2294 0.20743,-0.13876 0.31859,-0.3306 0.10638,-0.14836 0.0863,-0.31367 0.0856,-0.49535 0.0127,-0.22333 0.22093,-0.32023 0.30771,-0.46336 0.0312,-0.0746 0.0469,-0.15442 0.0672,-0.23217 6.2221,-3.27195 5.78506,-3.32993 4.36443,-1.36373 -0.19571,0.36368 -0.43132,0.70747 -0.62354,1.07206 -0.14322,0.20019 -0.0997,0.43172 -0.12883,0.67037 -0.0792,0.20906 -0.0296,0.42934 -0.11382,0.63541 -0.27845,0.40233 -0.61238,0.7732 -0.9384,1.13946 -0.27189,0.40075 -0.65431,0.68026 -1.04764,0.94939 -1.65942,0.95802 -3.31341,1.92548 -4.97825,2.87406 -1.55889,0.88824 3.10563,-1.79774 4.66051,-2.69302 0.0525,-0.0302 -0.10084,0.0673 -0.15317,0.0978 -1.66312,0.96898 -3.35695,1.88664 -4.99308,2.90057 -1.47492,0.91404 5.93971,-3.58185 4.51387,-2.59299 -0.24564,0.25095 -0.56481,0.40685 -0.85051,0.608 -1.68058,0.95485 -3.3628,1.90679 -5.04168,2.86454 -0.11663,0.0665 -0.45548,0.28431 -0.33931,0.21701 1.55919,-0.90342 3.10732,-1.82599 4.67305,-2.71808 0.10858,-0.0619 -0.18201,0.17137 -0.27567,0.2541 -0.29528,0.2374 -0.58029,0.48751 -0.85606,0.74725 -0.26159,0.24507 -0.51591,0.49788 -0.76862,0.75207 -1.67711,1.43059 -4.10268,2.50685 -5.79945,3.48483 1.55498,-0.89797 6.17072,-3.6722 4.66495,-2.69392 -16.62623,10.80189 2.8443,-2.80588 -0.69863,0.43309 -0.0335,0.029 -0.0621,0.0651 -0.1006,0.0871 -1.67666,0.96004 -3.36277,1.90349 -5.04267,2.85785 -0.23383,0.13286 -0.43846,0.27829 -0.68831,0.38044 -0.42164,0.15625 -0.81867,0.37202 -1.2428,0.54347 -0.47813,0.33204 -1.02828,0.45127 -1.59144,0.53853 -0.49054,0.004 -1.0314,0.14773 -1.48858,-0.0583 -0.21261,-0.11485 -0.39915,-0.26719 -0.52898,-0.47166 -0.0897,-0.13002 -0.10049,-0.20869 -0.0808,-0.34874 -0.009,-0.53311 0.0329,-1.04513 0.18127,-1.55793 0.15198,-0.45792 0.44773,-0.82167 0.70816,-1.2163 0.205,-0.19093 0.44188,-0.38218 0.51196,-0.65973 1.68326,-0.92998 3.36035,-1.87121 5.04976,-2.78993 0.30216,-0.1643 0.40643,0.22983 0.50811,0.41571 0.0241,0.12081 0.0122,0.24394 0.006,0.3658 -0.004,0.0196 0,0.0394 0.003,0.0587 0,0 -5.10048,2.47442 -5.10048,2.47442 v 0 c 0.003,-0.004 0.023,-0.0171 0.0161,-0.0296 0.018,-0.083 0.0241,-0.17095 0.0571,-0.24881 0.0752,0.10872 0.2422,0.20233 0.21691,0.3321 -0.0124,0.0633 -0.23421,0.10668 -0.17841,0.0744 1.56324,-0.90361 3.13399,-1.79413 4.70101,-2.6912 -0.0402,-0.0182 -0.0768,-0.0593 -0.12068,-0.0545 -0.037,0.004 -0.38444,0.56867 -0.4486,0.60691 -0.34774,0.18314 -0.62293,0.67779 -0.80592,1.01678 -0.27638,0.40734 -0.29173,0.86848 -0.25855,1.34802 0.0151,0.22095 0.0381,0.20291 -0.0695,0.0507 0.0814,0.0661 0.17124,0.10813 0.27843,0.11643 0.44537,-0.0443 0.90016,-0.0171 1.33694,-0.1359 0.53787,-0.13589 1.01793,-0.39777 1.51902,-0.62882 0.41116,-0.18625 0.81714,-0.38452 1.22669,-0.56956 3.14185,-1.8315 -5.30442,3.84133 -3.81175,2.29777 1.71913,-1.21037 0.11443,-0.086 5.12361,-3.05665 0.076,-0.0451 0.30366,-0.181 0.22725,-0.13659 -1.55631,0.90465 -6.20485,3.65296 -4.66638,2.7183 1.6419,-0.9975 3.31782,-1.9379 4.97676,-2.90685 -9.19816,5.3237 -5.44931,3.05714 -3.80664,2.21502 0.25553,-0.25416 0.5094,-0.51 0.76412,-0.765 0.27654,-0.2665 0.55133,-0.53419 0.84214,-0.7854 2.30253,-1.76899 11.26326,-6.48883 0.96538,-0.64734 0.27909,-0.20905 0.5437,-0.44315 0.87622,-0.56187 1.46953,-1.59403 -0.95136,1.00475 5.10892,-3.07506 1.48892,-1.00234 -3.09615,1.81667 -4.65097,2.71338 -0.0542,0.0313 0.0937,-0.0844 0.14761,-0.11617 1.65827,-0.977 3.37992,-1.85102 4.98752,-2.90929 1.50427,-0.99024 -3.11798,1.80324 -4.67696,2.70485 0.40937,-0.21401 0.78481,-0.45497 1.13382,-0.758 0.26694,-0.39621 0.58399,-0.76313 0.94028,-1.08576 0.0254,-0.0244 0.0511,-0.0487 0.0766,-0.0731 0.0309,1e-5 0.068,0.0186 0.0928,3e-5 0.0607,-0.0454 -0.0143,-0.31989 0.0196,-0.38395 0.10261,-0.27392 0.052,-0.50525 0.0956,-0.77599 0.15812,-0.41416 0.41185,-0.75327 0.60582,-1.15214 0.95506,-1.72037 5.09119,-5.35837 5.84837,-3.45309 0.006,0.11711 -0.006,0.23364 -0.0212,0.34993 -0.0267,0.25852 -0.0505,0.38149 -0.26959,0.54952 -0.20211,-0.0118 -0.0436,0.31595 -0.0965,0.45959 -0.048,0.18187 -0.0167,0.5326 -0.25665,0.46861 -0.2205,-0.22169 -0.14634,-0.13702 -0.0929,0.0757 0.003,0.0407 0.0437,0.0985 0.0103,0.12216 -4.43373,3.14329 -8.17465,5.24757 -0.17211,0.58136 0.0307,-0.0179 -0.0662,0.0263 -0.0993,0.0394 -0.0772,0.0308 -0.17521,0.0214 -0.23731,0.0767 -0.14317,0.12746 -0.0593,0.37546 -0.33867,0.36518 -0.0346,0.10474 -0.043,0.22159 -0.10213,0.31473 -0.119,0.18761 -0.43923,0.20698 -0.45333,0.4824 -0.35621,0.30027 -0.71639,0.58893 -1.11951,0.82591 -0.40783,0.20302 -0.68471,0.5875 -1.05195,0.85469 -0.33854,0.28515 -0.45877,0.70967 -0.7778,1.01901 -0.4341,0.2327 -0.64167,0.74232 -1.10733,0.93686 -0.49536,0.42067 -1.02537,0.79759 -1.50892,1.22825 -1.9117,1.24835 -3.64937,4.43819 -6.1757,3.61208 -0.3938,-0.62857 -0.51895,-0.45282 -0.20727,-0.72232 0.35721,-0.3098 0.71027,-0.62453 1.07431,-0.92628 0.21024,-0.18089 0.59463,-0.61584 0.82762,-0.72832 8.81973,-4.2577 5.34022,-2.43969 0.35618,0.57995 -0.30287,-0.0136 -0.56062,0.1492 -0.83632,0.26267 -0.32652,0.0544 -0.66783,-0.0241 -0.99134,0.0802 -2.84903,1.08841 6.47327,-3.74134 3.70316,-2.20775 -0.64987,0.40189 -1.23222,0.92579 -1.82552,1.40389 -0.6722,0.5505 -1.44359,0.97159 -2.11457,1.52509 -1.45667,1.11962 -7.41641,4.56227 -5.92236,2.70259 0.30359,-0.30218 0.63519,-0.57453 0.96359,-0.84891 2.11706,-1.50395 4.44069,-2.69885 6.76024,-3.85839 2.94409,-1.57641 -6.19546,3.64673 -3.50883,2.05589 0.17666,-0.16234 0.38219,-0.26795 0.58886,-0.3894 6.43829,-3.78333 6.71933,-3.93044 0.33843,-0.2447 0.51495,-0.22947 0.96072,-0.64727 1.40469,-0.98662 0.64231,-0.40206 1.22124,-0.92969 1.77089,-1.44669 0.29517,-0.29314 0.61608,-0.54012 0.91204,-0.83252 1.57322,-1.55438 4.51895,-5.23814 5.72421,-2.7534 0,0.1136 -0.0492,0.31306 -0.15513,0.37658 -3.66172,2.19474 -3.3302,2.01223 -5.10778,2.9827 -0.31017,0.20312 -0.65114,0.3224 -1.00806,0.41684 -0.36986,0.16701 -0.74303,0.27367 -1.12297,0.40814 -0.37248,0.2074 -0.75015,0.38408 -1.1272,0.58044 -0.20363,0.11915 -0.41514,0.19834 -0.61955,0.31584 -0.0674,0.0387 -0.26885,0.15581 -0.20167,0.11682 6.0855,-3.5314 6.31656,-3.66261 -0.45426,0.25602 8.2052,-4.77179 5.27587,-3.22984 3.58561,-1.97496 -0.14748,0.0878 -0.29361,0.1779 -0.44157,0.2649 -16.60048,9.76013 11.35071,-6.59624 -5.62975,3.28267 -0.32139,0.17578 -0.74332,0.34489 -1.11014,0.30684 -0.34975,-0.0183 -0.70506,-0.0454 -1.03081,-0.18527 -0.29057,-0.13745 -0.55058,-0.3305 -0.83341,-0.48202 -0.23554,-0.19971 -0.47387,-0.3904 -0.70832,-0.5901 -0.20365,-0.21192 -0.3706,-0.45806 -0.63876,-0.5955 -0.26821,-0.15384 -0.57189,-0.19289 -0.84317,-0.34447 -0.24985,-0.13346 -0.51231,-0.16736 -0.73623,-0.35945 -0.31308,-0.28713 -0.48305,-0.66617 -0.70128,-1.02573 -0.17439,-0.48063 -0.31639,-0.95095 -0.38875,-1.45916 -0.14666,-0.55373 -0.30951,-1.09313 -0.37354,-1.66496 -0.15431,-0.65552 -0.25821,-1.29348 -0.18383,-1.97102 0.0262,-0.70506 0.0869,-1.40848 0.23479,-2.09984 0.4844,-0.25602 5.45449,-4.72499 5.16464,-2.52422 -0.0462,0.28121 -0.0881,0.55686 -0.25763,0.79419 -0.21878,0.43516 -0.27215,0.89839 -0.42309,1.36117 -0.0626,0.14432 -0.15894,0.27346 -0.21294,0.42123 -0.11636,0.31844 -0.11726,0.68522 -0.27887,0.99174 -0.0375,0.45798 -0.1143,0.91913 -0.29146,1.34538 -0.22178,0.33078 -0.10306,0.82003 -0.298,1.18079 -0.14277,0.34777 -0.17302,0.67056 -0.0732,1.04245 0.0835,0.3274 0.31511,0.58636 0.37636,0.9172 0.099,0.33318 0.30793,0.64498 0.31229,0.99551 8e-5,0.33639 -0.009,0.67278 -0.004,1.00919 0.004,0.25297 -0.004,0.50809 0.11276,0.74013 0.14851,0.27758 0.37296,0.52564 0.59984,0.74076 0.27877,0.2098 0.53613,0.44442 0.79748,0.67407 0.21807,0.1993 0.39479,0.43453 0.60405,0.64239 0.2242,0.11529 0.29035,0.22006 0.54361,0.15418 0.30887,2.7e-4 0.6196,-7.9e-4 0.9254,-0.0492 0.36899,-0.0631 0.72393,-0.18264 1.07863,-0.29956 0.42535,-0.12106 0.88284,-0.11739 1.29064,-0.31199 0.37931,-0.13034 0.75745,-0.15795 1.14834,-0.2452 0.40659,-0.10882 0.79373,-0.28402 1.21947,-0.29965 0.43876,-0.10731 0.85532,-0.254 1.25828,-0.46066 0.53739,-0.18292 1.04478,-0.43296 1.55466,-0.67986 -1.51471,0.87804 -3.02717,1.75998 -4.54416,2.63413 -0.0935,0.0539 0.18023,-0.11904 0.27358,-0.17323 1.70214,-0.98827 3.40124,-1.98194 5.11267,-2.95403 1.51892,-0.86275 -6.05811,3.48155 -4.53514,2.62598 6.46152,-3.62995 3.27057,-2.02719 5.34487,-3.06488 0.0948,-0.0452 0.37497,-0.18856 0.28438,-0.13549 -1.52236,0.89173 -3.05504,1.76574 -4.5806,2.65201 -0.075,0.0436 0.15383,-0.0802 0.22873,-0.12379 1.67714,-0.97719 3.35672,-1.95024 5.02727,-2.93865 1.46142,-0.86469 -6.35341,3.79476 -4.40402,2.56048 1.66238,-0.98323 3.47128,-1.75286 4.98716,-2.9497 1.40293,-1.10768 -6.27502,3.41339 -4.64508,2.6796 1.75604,-0.79053 3.34992,-1.90062 5.02502,-2.85065 0.18526,-0.10506 0.37447,-0.20222 0.56097,-0.30502 -1.53379,0.88793 -3.06842,1.77438 -4.60137,2.66378 -0.0417,0.0242 0.0851,-0.0452 0.12756,-0.0681 0.0992,-0.0536 0.21574,-0.0811 0.30014,-0.15579 0.0436,-0.0386 0.0497,-0.11104 0.0966,-0.14549 0.0379,-0.0279 0.0924,-0.0181 0.13861,-0.0272 0.10057,-0.11847 0.22328,-0.31142 0.35155,-0.39583 0.16415,-0.10801 0.38947,-0.14148 0.51555,-0.32609 0.38597,-0.31081 0.79703,-0.57415 1.13649,-0.93271 0.43251,-0.23973 0.73461,-0.67033 1.05455,-1.03956 0.29675,-0.3836 0.43079,-0.80482 0.56872,-1.26354 0.24749,-0.39878 0.16626,-0.96497 0.4523,-1.36623 0.2794,-0.47578 0.4458,-1.0189 0.72324,-1.49852 0.33936,-0.56528 0.64932,-1.14286 1.01791,-1.6905 1.75567,-2.18264 0.46156,-1.70118 5.98135,-3.32118 -0.0259,0.0812 -0.0694,0.15648 -0.11506,0.23004 -0.1976,0.33543 -0.42524,0.64392 -0.61077,0.97536 -0.21635,0.46873 -0.57589,0.8625 -0.74758,1.34406 -0.0312,0.0601 -0.0624,0.12014 -0.0936,0.18021 -0.0395,0.0321 -0.0921,0.0528 -0.1185,0.0963 -0.11478,0.18905 -0.15769,0.44326 -0.33967,0.6036 -0.13558,0.376 -0.3668,0.6258 -0.63654,0.92067 -0.29025,0.37581 -0.55372,0.76677 -0.83614,1.1392 -0.31771,0.29944 -0.63269,0.60252 -0.97964,0.86865 -1.11268,1.94727 -6.61242,0.0307 -5.6886,3.55115 7.98404,-4.59918 5.6755,-3.42679 3.97823,-2.24746 -1.65333,0.9775 -5.02971,2.97354 -5.10818,3.03728 -1.39534,1.13338 3.10822,-1.80686 4.66235,-2.71029 -0.0615,0.026 -0.12835,0.0416 -0.18433,0.0779 -0.0132,0.008 -0.3016,0.28234 -0.30647,0.28696 -1.83645,1.42545 -4.03447,2.21991 -5.94545,3.59634 1.53347,-0.89074 3.06252,-1.78913 4.60042,-2.67222 0.0736,-0.0423 -0.13301,0.10664 -0.20651,0.14915 -1.68497,0.97447 -3.37392,1.94211 -5.06775,2.90111 -0.21574,0.12215 -0.47313,0.1503 -0.68077,0.28997 -0.0684,0.0354 -0.27075,0.14627 -0.20508,0.10612 11.97422,-7.3218 -0.3678,0.30806 -0.57486,0.31863 -0.21434,-0.003 -0.42868,-0.003 -0.64302,-0.003 -0.26212,-7.9e-4 -0.52427,-7.9e-4 -0.78642,-0.002 -0.33491,5.3e-4 -0.67016,0.003 -1.00433,0.0281 -0.33428,0.0356 -0.66099,0.0961 -0.98372,0.19079 -0.38257,0.0642 -0.69909,-0.13686 -1.06056,-0.23329 -0.307,0.0507 -0.6251,0.0112 -0.93504,0.0132 -0.34131,-0.0205 -0.67995,-0.072 -0.98999,-0.22554 -0.36322,-0.19507 -0.67834,-0.4699 -1.0646,-0.62443 -0.29126,-0.13114 -0.61939,-0.2465 -0.87453,-0.41014 -0.21365,-0.15612 -0.41108,-0.33247 -0.55055,-0.56108 -0.12369,-0.28778 -0.31382,-0.54243 -0.37875,-0.85136 -0.12485,-0.25675 -0.33901,-0.46465 -0.43693,-0.7377 -0.16655,-0.27311 -0.34023,-0.52893 -0.44643,-0.83416 -0.16568,-0.35551 -0.22863,-0.70868 -0.31395,-1.09055 -0.1455,-0.40841 -0.27279,-0.7888 -0.21847,-1.22995 0.004,-0.45669 0.005,-0.91357 0.0373,-1.36942 0.0497,-0.54852 0.10785,-1.09748 0.2635,-1.62821 0.0963,-0.14461 0.0532,-0.25484 0.0534,-0.41555 0.0198,-0.19397 0.0238,-0.48361 0.16002,-0.61046 0.0791,-0.065 0.26202,-0.16912 0.31049,-0.25497 0.0835,-0.14789 0.0735,-0.33838 0.2381,-0.45235 0.33118,-0.4556 -0.0949,0.0736 0.26871,-0.22763 0.13904,-0.11522 0.31779,-0.4176 0.46177,-0.54315 0.0358,-0.0599 0.0716,-0.11984 0.1074,-0.17977 0.0448,-0.0394 0.10141,-0.0686 0.13454,-0.11824 0.17761,-0.26612 0.20966,-0.63927 0.45394,-0.87359 0.18601,-0.42128 0.3873,-0.84623 0.64159,-1.22616 0.28215,-0.44986 0.61775,-0.84996 1.03698,-1.17755 0.85487,-0.71228 1.68908,-1.44878 2.61353,-2.07721 0,0 5.20219,-2.10817 5.20219,-2.10817 z"
       inkscape:connector-curvature="0" />
    <path
       style="fill:#000000;stroke-width:0.26458332"
       id="path3829"
       d="m 261.95337,249.59216 c 0.58324,-1.20421 1.3724,-2.2737 2.16635,-3.34192 0.5156,-0.79506 1.22878,-1.41454 1.85849,-2.11121 0.42638,-0.48686 0.85297,-0.97319 1.29927,-1.44195 0.50953,-0.53673 1.04148,-1.05147 1.56196,-1.57744 0.60132,-0.61452 1.20701,-1.21802 1.85791,-1.77945 3.8095,-2.8112 7.91096,-4.75384 12.15628,-7.20015 0.1283,-0.0379 0.26008,-0.0654 0.38484,-0.11359 0.30371,-0.11728 0.37909,-0.2111 0.67542,-0.3294 0.32833,-0.13109 0.64879,-0.15223 0.97206,-0.30139 0.52681,-0.28461 1.10074,-0.30945 1.68383,-0.3064 0.4509,-0.3072 1.02542,-0.34894 1.5571,-0.36468 0.49533,-0.0809 1.06244,0.12902 1.50244,-0.13268 0.31054,-0.23133 0.7031,-0.13228 1.04751,-0.21797 0.19095,-0.0475 0.35949,-0.16024 0.54107,-0.236 0.5569,-0.16561 1.13581,-0.1671 1.7104,-0.18638 0.57269,-0.0468 1.07225,0.2316 1.62534,0.35168 0.47836,0.0599 0.9616,0.0532 1.44274,0.0507 0.464,-0.005 0.928,-0.009 1.392,-0.009 0.4994,7.9e-4 0.98486,-0.0646 1.44883,0.13138 0.41913,0.18138 0.8677,0.25879 1.32197,0.2609 0.37436,0.29703 0.7766,0.34445 1.22962,0.37759 0.49909,5.3e-4 0.99817,-0.004 1.49723,-0.006 0.39306,0.15867 0.77366,-0.20162 1.04918,-0.21477 0.23653,-0.0113 0.46828,0.0712 0.7031,0.10191 0.71451,0.0817 1.43417,0.0973 2.15252,0.10948 0.37489,0.0804 0.81216,-0.094 1.18245,-0.001 0.19174,0.048 0.35938,0.16516 0.54321,0.23779 0.16822,0.15117 0.42254,0.0613 0.60762,0.12877 0.26318,0.096 0.44841,0.24303 0.72993,0.31032 0.13356,0.0944 0.30348,0.0211 0.44413,0.0735 0.0985,0.0367 0.17775,0.11272 0.27107,0.16109 0.26373,0.13673 0.46826,0.16313 0.72382,0.334 0.51525,0.19555 0.97668,0.49965 1.52498,0.60168 0.57607,0.24082 1.139,0.49643 1.72741,0.70612 0.58502,0.37334 1.24494,0.58065 1.86645,0.87514 0.61433,0.31158 1.21782,0.62633 1.83634,0.92667 0.48276,0.20805 0.80841,0.63192 1.23079,0.93249 0.34141,0.36364 0.77554,0.585 1.17237,0.87282 0.46447,0.21983 0.81687,0.59041 1.23512,0.87973 0.3937,0.29249 0.82447,0.51006 1.2346,0.781 0.46898,0.14807 0.94967,0.3329 1.3208,0.66894 0.40365,0.22423 0.73409,0.54585 1.07532,0.85181 0.40391,0.36625 0.73401,0.79536 1.05288,1.23547 0.3292,0.42736 0.67004,0.8426 0.9769,1.28518 0.29607,0.40095 0.44087,0.89036 0.70178,1.3109 0.22455,0.40435 0.43079,0.81495 0.65183,1.2214 0.2573,0.41403 0.43894,0.86569 0.65786,1.29959 0.19582,0.34739 0.36544,0.72006 0.64447,1.00871 0.37216,0.34196 0.65799,0.76877 0.90469,1.20782 0.22638,0.48263 0.43058,0.98259 0.58692,1.49317 0.20365,0.45061 0.32825,0.92823 0.4821,1.39586 0.20585,0.48201 0.34896,0.98513 0.43762,1.50084 0.0172,0.39087 0.18386,0.7453 0.28848,1.11828 0.10998,0.45898 0.13729,0.93 0.16047,1.39948 0.007,0.31988 0.17925,0.631 0.26283,0.94384 0.0762,0.28274 0.11528,0.60321 0.0893,0.8687 0.13581,0.3839 0.2535,0.76975 0.33044,1.17016 0.0563,0.36013 0.0814,0.72345 0.083,1.08763 0.004,0.32242 0,0.64484 0.003,0.96725 0.036,0.28406 -0.0683,0.59938 0.005,0.86871 0.13267,0.37152 0.2507,0.74423 0.31462,1.13392 -2.4e-4,0.10874 0.13134,0.79556 0.0167,0.7452 0.19246,0.3591 0.30803,0.71237 0.26874,1.12286 -0.0743,0.27638 -0.15804,0.54429 -0.20138,0.83063 -0.0376,0.41367 -0.0357,0.82897 -0.0423,1.24388 0,0.44301 0.008,0.886 0.006,1.329 0,0.15457 0.006,0.30903 0.0119,0.46345 0,0 -10.74526,5.47565 -10.74526,5.47565 v 0 c 0.006,-0.15821 0.0109,-0.31646 0.0114,-0.4748 -0.003,-0.44523 0.004,-0.89047 0.004,-1.33571 -0.006,-0.43322 -0.0111,-0.86662 -0.009,-1.29979 -0.004,-0.33644 -0.0238,-0.71068 0.0983,-1.02505 0.23915,-0.47059 0.39431,0.28287 0.0349,-0.52642 -0.14719,-0.32911 -0.14378,-0.60972 -0.12806,-0.96779 -0.005,-0.30775 -0.0644,-0.5997 -0.17714,-0.88765 -0.16301,-0.41333 -0.25204,-0.77996 -0.20841,-1.22687 0.004,-0.32078 0.004,-0.64154 0.007,-0.96234 -0.003,-0.31449 0.01,-0.62914 -0.005,-0.9435 -0.0283,-0.35148 -0.0915,-0.68799 -0.249,-1.0082 -0.13343,-0.32697 -0.12774,-0.61687 -0.13827,-0.96557 -0.0366,-0.40239 -0.25625,-0.75363 -0.35891,-1.14033 0.004,-0.39205 0.003,-0.78513 -0.0403,-1.17536 -0.0715,-0.42705 -0.30737,-0.80657 -0.34415,-1.23415 -0.0268,-0.42671 -0.10522,-0.8468 -0.28935,-1.23641 -0.21034,-0.49302 -0.26207,-1.04329 -0.5385,-1.51562 -0.0973,-0.4312 -0.30295,-0.82173 -0.44879,-1.23555 -0.21045,-0.37971 -0.50099,-0.69694 -0.80243,-1.0064 -0.29736,-0.38958 -0.5511,-0.81475 -0.77205,-1.25159 -0.21916,-0.42954 -0.39151,-0.87824 -0.65953,-1.28157 -0.19685,-0.39362 -0.40984,-0.77485 -0.60894,-1.16668 -0.23497,-0.4004 -0.40312,-0.83762 -0.65053,-1.23111 -0.31149,-0.42434 -0.62822,-0.84325 -0.95184,-1.2584 -0.28755,-0.36392 -0.57629,-0.73175 -0.94149,-1.02231 -0.31639,-0.27491 -0.66527,-0.50054 -1.00931,-0.73859 -0.45304,-0.12778 -0.88087,-0.40577 -1.28701,-0.63358 -0.43463,-0.27543 -0.88868,-0.52227 -1.28206,-0.85931 -0.37674,-0.3091 -0.79886,-0.54485 -1.19534,-0.82711 -0.43862,-0.27617 -0.82658,-0.61556 -1.23256,-0.93604 -0.33758,-0.28989 -0.66249,-0.58167 -1.08048,-0.75272 -0.57983,-0.3128 -1.18083,-0.59018 -1.77691,-0.87096 -0.63424,-0.24624 -1.22672,-0.58268 -1.86222,-0.82471 -0.55443,-0.23372 -1.11136,-0.46629 -1.68619,-0.6446 -0.55253,-0.23605 -1.09572,-0.49299 -1.63825,-0.75031 -0.45521,-0.11169 -0.87849,-0.31084 -1.33583,-0.41943 -0.43386,-0.17199 -0.87262,-0.25162 -1.31799,-0.39448 -0.48683,-0.0684 -1.02134,0.0816 -1.52231,-0.0188 -0.71924,-0.0282 -1.43761,-0.0875 -2.15744,-0.0895 -0.80356,0.094 0.17598,-0.0449 -0.54215,0.12869 -0.40003,0.0967 -0.80698,-0.0447 -1.21243,0.001 -0.54351,-0.009 -1.0935,-0.018 -1.6252,-0.14251 -0.39087,-0.10056 -0.8037,-0.36934 -1.19904,-0.33146 -0.45038,-0.10036 -0.88837,-0.25978 -1.3457,-0.31911 -0.43497,0.0935 -0.8894,0.0239 -1.33196,0.0446 -0.47149,0.002 -0.94324,0.001 -1.41418,-0.0246 -0.53234,-0.0365 -1.06447,-0.0938 -1.57837,-0.24571 -0.4936,-0.12367 -0.90842,-0.16347 -1.41152,-0.0529 -0.52766,0.065 -1.03699,0.21456 -1.53681,0.39327 -0.56137,0.11956 -1.12511,0.22924 -1.68624,0.33916 -0.51396,-0.0448 -1.02621,-0.006 -1.53366,0.09 -0.52036,0.1294 -1.03283,0.36126 -1.57475,0.33689 -0.51826,0.11915 -0.98755,0.36303 -1.48949,0.53279 -0.67078,0.19036 -1.29599,0.55715 -1.91453,0.87025 3.30391,-1.91205 6.60516,-3.82867 9.91169,-5.73616 0.11171,-0.0644 -0.21394,0.14468 -0.32692,0.20685 -0.44225,0.24341 -0.90051,0.47513 -1.26548,0.83499 -0.74572,0.39902 -1.36035,0.95392 -1.93116,1.57474 -0.52023,0.51471 -1.0314,1.03841 -1.55099,1.55376 -0.45395,0.45785 -0.90826,0.91571 -1.33424,1.40011 -0.28477,0.32459 -0.55351,0.6848 -0.85971,0.98846 -0.34219,0.33933 -0.39534,0.28455 -0.73382,0.6362 -0.12751,0.13246 -0.23482,0.28295 -0.35224,0.42443 -0.78388,1.00457 -1.64963,1.96238 -2.21044,3.11668 0,0 -10.91329,4.93751 -10.91329,4.93751 z"
       inkscape:connector-curvature="0" />
    <path
       style="fill:#000000;stroke-width:0.26458332"
       id="path3927"
       d="m 76.916909,76.740218 c -1.344105,-0.43986 -2.753141,-0.524709 -4.153249,-0.427408 -0.186577,0.03763 -0.376304,0.06207 -0.559729,0.112884 -0.285972,0.07922 -0.746218,0.278842 -1.006891,0.41247 -0.167481,0.08586 -0.654198,0.372509 -0.490733,0.27923 3.837964,-2.190093 4.831935,-2.882267 3.205271,-1.778216 -0.988552,0.813532 -1.839502,1.786469 -2.679888,2.749187 -0.897257,1.095915 -1.766302,2.217833 -2.596716,3.365492 -1.068903,1.427927 -2.038546,2.924953 -2.963875,4.448672 -0.903259,1.60442 -1.475584,3.352822 -1.884852,5.139622 -0.450491,1.64552 -0.552151,3.335144 -0.456671,5.030348 0.07972,1.652309 0.557162,2.737554 1.707605,3.903937 1.394915,1.168764 3.175614,1.471774 4.939196,1.555224 2.428833,-0.0794 4.813345,-0.58651 7.190727,-1.04788 1.610267,-0.31713 3.176344,-0.794541 4.747924,-1.258263 0,0 -3.848357,2.964933 -3.848357,2.964933 v 0 c -1.555316,0.43993 -3.112769,0.86938 -4.702934,1.16939 -2.403909,0.46466 -4.827458,0.96067 -7.285754,0.96499 -1.86908,-0.1578 -3.714972,-0.54955 -5.158933,-1.83403 -1.193956,-1.25505 -1.77419,-2.44953 -1.867874,-4.203768 -0.123656,-1.730404 -0.05112,-3.471936 0.403556,-5.155366 0.391157,-1.831256 0.954241,-3.618712 1.825606,-5.283854 0.913694,-1.53113 1.861143,-3.04523 2.930851,-4.473519 0.810514,-1.166741 1.692325,-2.283402 2.569784,-3.39974 0.822216,-0.995619 1.714963,-1.935345 2.622708,-2.852994 1.843498,-1.403329 0.56451,-0.459105 5.082871,-3.037599 0.664935,-0.37946 1.419736,-0.577242 2.178293,-0.634542 1.443588,-0.04031 2.878204,0.12945 4.263994,0.55096 0,0 -4.01193,2.73984 -4.01193,2.73984 z"
       inkscape:connector-curvature="0" />
    <path
       style="fill:#000000;stroke-width:0.26458332"
       id="path3929"
       d="m 92.151051,87.652079 c -0.196305,0.05764 -0.394698,0.108595 -0.588915,0.172916 -0.540298,0.178932 -0.816989,0.299471 -1.336101,0.538469 -0.228992,0.105428 -0.899226,0.45476 -0.682091,0.326681 5.592885,-3.298978 4.244912,-2.460797 2.826004,-1.56324 -1.500563,1.001588 -2.82634,2.231974 -4.094085,3.508229 -1.436593,1.438735 -2.514381,3.108695 -3.197678,5.016511 -0.380267,1.526291 -0.364215,2.287878 1.021078,3.138103 1.310883,0.606648 2.676244,0.594516 4.051382,0.26283 1.558673,-0.543764 4.554429,-2.263728 -2.18171,1.421832 -0.218654,0.11963 0.415433,-0.27577 0.617041,-0.42232 0.567869,-0.412786 0.664993,-0.51741 1.195424,-0.978208 1.227386,-1.119688 2.132333,-2.478135 2.91333,-3.929089 0.667239,-1.266984 1.206854,-2.596142 1.712269,-3.934341 0.33446,-0.899631 0.478587,-1.843863 0.545037,-2.796114 0.0019,-0.548973 0.07229,-1.108133 -0.003,-1.654522 -0.01873,-0.170256 -0.438605,-0.866756 -0.07878,-0.215103 5.545034,-3.369352 4.227914,-2.94163 2.903415,-0.108413 -0.593701,1.155581 -0.857705,2.407012 -1.013769,3.684735 -0.115287,1.392325 -0.158205,2.794069 -0.08751,4.189572 0.03291,1.253648 0.428194,2.429028 0.883074,3.581683 0.292584,0.693163 0.7045,1.264801 1.251802,1.771401 0.287977,0.248063 0.733009,0.590329 1.120058,0.399689 1.387924,-0.906842 3.030614,-1.748366 -3.685355,2.07916 -0.07114,0.0405 0.141568,-0.0828 0.208132,-0.13049 0.209907,-0.15039 0.273793,-0.22396 0.461877,-0.40299 0.574247,-0.62591 1.036498,-1.32943 1.430179,-2.07887 0.581607,-1.231096 1.299628,-2.383599 2.100971,-3.481948 0.91406,-1.188895 1.94224,-2.290527 2.97967,-3.372565 0.76973,-0.773885 1.5326,-1.548603 2.37556,-2.243129 1.6741,-1.419635 3.49984,-2.709209 5.59703,-3.456287 0.40672,-0.174939 0.67244,-0.0064 0.91112,0.335249 0.27057,0.637378 0.22145,1.365469 0.22847,2.045459 -0.0607,1.194231 -0.29631,2.369008 -0.47553,3.548732 -0.28521,1.341937 -0.43188,2.703862 -0.61939,4.060579 -0.14051,0.997275 -0.28008,1.990108 -0.52073,2.968609 -0.0209,0.04053 -0.17769,0.814991 -0.19079,0.808821 -0.0545,-0.0257 -0.0195,-0.18802 -0.0748,-0.16435 -1.4041,0.60032 -2.75869,1.31037 -4.13803,1.96556 0.80376,-0.88445 1.29087,-1.99965 1.79783,-3.068274 0.64681,-1.482029 1.43287,-2.892792 2.32825,-4.237574 0.85806,-1.222716 1.84081,-2.353614 2.93346,-3.370913 1.59194,-1.353921 3.39554,-2.166044 5.28866,-3.223919 0.27467,-0.153488 0.62398,-0.183013 0.92319,-0.139248 0.6243,0.268835 0.84994,0.767369 0.98272,1.398344 0.12683,0.826421 0.0986,1.65934 -0.006,2.485332 -0.10345,1.026655 -0.33176,2.033114 -0.48291,3.052583 -0.11285,0.984371 -0.31558,1.954625 -0.44218,2.937256 -0.0623,0.492286 -0.0971,0.987499 -0.10563,1.483526 -0.0301,-0.05804 0.0315,0.253327 -2.7e-4,0.196177 -0.0776,-0.139506 -0.0694,-0.490057 -0.21623,-0.427306 -3.39383,1.450846 -4.94163,3.447516 -3.64892,1.852996 0.75711,-1.09314 1.41848,-2.247609 2.05925,-3.411434 0.69994,-1.344388 1.45659,-2.657298 2.25513,-3.945192 0.58625,-0.877014 1.21215,-1.752523 1.99505,-2.466065 1.70134,-1.22623 3.51054,-3.389029 5.67924,-2.985944 0.54816,0.250968 0.73371,0.702561 0.85001,1.263192 0.14845,0.802783 -0.0192,1.606648 -0.12462,2.403335 -0.11835,0.934193 -0.14756,1.876451 -0.16585,2.81696 -0.0135,0.804955 -0.005,1.609977 -0.003,2.414966 -0.0555,0.573593 0.0831,1.116034 0.20878,1.668333 0.16595,0.394547 0.33095,0.785529 0.45415,1.195989 0.046,0.28598 0.18895,0.53137 0.39779,0.7282 0.27185,0.0959 0.60388,0.19961 0.85542,0.0295 2.82075,-1.618346 -5.4514,3.26913 -2.86648,1.60755 0.66268,-0.48127 1.12839,-1.15292 1.59109,-1.81551 0.73305,-1.05619 1.41219,-2.147509 2.09294,-3.237643 0.64679,-1.144159 1.4761,-2.137063 2.40825,-3.05463 0.7834,-0.740201 1.57094,-1.475867 2.34863,-2.222088 1.65141,-1.465307 3.87556,-2.461979 5.69524,-3.510311 0.51322,-0.03653 0.77856,0.247107 1.08779,0.607779 0.37376,0.548019 0.41684,1.185768 0.3568,1.825988 -0.10185,0.967163 -0.24993,1.926084 -0.40104,2.886458 -0.17012,1.157664 -0.18926,2.327328 -0.33628,3.487518 -0.10993,0.988063 -0.22325,1.970294 -0.41427,2.946289 -0.11782,0.54092 -0.19014,1.08978 -0.22345,1.642 -0.003,0.0933 -0.01,0.18634 -0.0128,0.27958 -0.0177,0.52624 0.0516,-0.37854 -0.22782,-0.25949 -1.40247,0.59761 -2.65689,1.49572 -3.98534,2.24358 0.56237,-1.14617 1.11792,-2.29567 1.68148,-3.44128 0.73382,-1.577669 1.6688,-3.044281 2.71066,-4.433497 0.89695,-1.195065 2.01436,-2.193615 3.10775,-3.202472 1.82459,-1.732071 3.77831,-2.587323 6.09075,-3.906065 0.53288,-0.204814 0.88979,0.400754 1.04814,0.821995 0.21523,0.745138 0.0912,1.502703 -0.0111,2.253845 -0.13952,1.08436 -0.3587,2.154018 -0.48102,3.241172 -0.045,1.057876 -0.2065,2.102734 -0.34072,3.151439 -0.04,0.783802 -0.1976,1.546383 -0.3578,2.311623 -0.0567,0.4439 -0.20398,0.86416 -0.38327,1.2713 -0.76567,1.69919 3.03213,-1.01339 -4.45055,1.96219 0.63612,-0.83834 1.18343,-1.74079 1.73042,-2.63867 0.83969,-1.31663 1.42475,-2.764219 2.04314,-4.191323 0.52972,-1.308648 1.38073,-2.432902 2.35386,-3.441076 1.54727,-1.346732 3.43115,-2.163474 5.24152,-3.153939 0.26423,-0.144566 0.63478,-0.142811 0.91585,-0.08829 0.66331,0.15122 0.85924,0.783624 0.98008,1.37601 0.15728,0.911953 0.0401,1.824908 -0.072,2.733239 -0.11174,1.038825 -0.33979,2.058953 -0.47247,3.095334 -0.12117,0.747326 -0.0905,1.485416 0.1136,2.212565 0.17702,0.62635 0.43551,0.77263 0.91067,1.11868 0.54311,0.35012 0.81807,0.2307 1.40085,0.14068 1.50307,-0.6306 3.72428,-2.013185 -3.24158,1.90252 -0.12618,0.0709 0.24766,-0.15025 0.36672,-0.23257 0.35179,-0.24323 0.39193,-0.29581 0.70756,-0.57638 0.80214,-0.85634 1.49739,-1.81363 2.17927,-2.76748 0.88707,-1.37709 1.76212,-2.761964 2.65573,-4.135167 0.62035,-0.958662 1.26501,-1.901124 1.85433,-2.87923 0.16068,-0.282758 0.37785,-0.52746 0.55619,-0.797872 4.22557,-2.161024 4.80618,-3.018497 4.38554,-0.241573 -0.15881,0.856718 -0.22158,1.724578 -0.36762,2.583185 -0.12649,1.015326 -0.34237,2.015466 -0.50495,3.024884 -0.14642,0.859723 -0.14278,1.729967 0.0648,2.577813 0.1475,0.60599 0.48385,1.11814 0.87371,1.59323 0.3994,0.39223 0.91486,0.49253 1.45016,0.5391 0.70127,0.10458 1.36502,-0.0593 2.0495,-0.17961 1.16554,-0.31846 2.2564,-0.85934 3.34477,-1.37421 0.23704,-0.11474 0.47824,-0.22127 0.71113,-0.34421 0.24503,-0.12935 0.96179,-0.550677 0.72179,-0.41223 -1.12497,0.64893 -2.24425,1.3079 -3.37669,1.94368 -0.2595,0.14569 0.50891,-0.30892 0.75717,-0.47301 0.25828,-0.17071 0.51161,-0.34896 0.76198,-0.53108 0.24178,-0.17588 0.4761,-0.3618 0.71416,-0.5427 1.35397,-1.054463 2.51043,-2.341473 3.57499,-3.681365 0.67668,-0.877475 1.3556,-1.750367 1.74602,-2.795511 0.13596,-0.605023 0.16381,-0.938959 -0.47581,-1.1185 -0.29653,0.02901 -0.57441,0.04282 -0.84006,0.193117 -0.0952,0.05387 -0.3656,0.239718 -0.27014,0.186314 3.88959,-2.175888 5.0414,-3.207678 3.63174,-1.983099 -0.79665,0.851749 -1.36534,1.867273 -1.84039,2.923426 -0.57412,1.38812 -0.77178,2.877619 -0.88676,4.363238 -0.10937,1.173679 0.0228,2.32296 0.48892,3.40481 0.45475,1.05156 1.14797,1.87285 2.06438,2.54044 1.22204,0.84157 2.66251,1.20567 4.10313,1.4582 1.01129,0.15513 2.02743,0.21272 3.04791,0.1682 0,0 -3.89691,2.84423 -3.89691,2.84423 v 0 c -1.03985,5.3e-4 -2.07652,-0.0691 -3.10207,-0.25311 -1.49738,-0.30326 -2.98579,-0.72576 -4.245,-1.62761 -0.96393,-0.73646 -1.69693,-1.63913 -2.19824,-2.75362 -0.50293,-1.14807 -0.69468,-2.36546 -0.5861,-3.61928 0.11274,-1.527921 0.29339,-3.061885 0.82591,-4.509294 0.44406,-1.102863 0.99145,-2.133068 1.72645,-3.073307 1.3533,-1.580137 0.27942,-0.388152 4.67528,-2.925456 0.4039,-0.233127 0.94432,-0.164176 1.36425,-0.04184 0.70255,0.387755 0.94454,0.958664 0.81501,1.75547 -0.33202,1.124633 -0.98796,2.051749 -1.71586,2.96155 -1.0428,1.380517 -2.21397,2.688305 -3.54187,3.79952 -2.61461,2.061307 -5.5322,3.702457 -8.5295,5.146797 -1.11657,0.51699 -2.24211,1.06658 -3.45919,1.29985 -0.71357,0.1224 -1.42586,0.1842 -2.14635,0.0624 -0.63221,-0.11959 -1.20842,-0.35644 -1.64945,-0.84564 -0.42714,-0.53166 -0.79295,-1.11239 -0.96924,-1.77875 -0.24456,-0.89915 -0.28261,-1.8375 -0.1405,-2.758418 0.13885,-1.016204 0.39608,-2.010564 0.49895,-3.032202 0.14257,-0.858187 0.22235,-1.718091 0.3573,-2.577444 0.53826,-2.94263 -1.17227,-0.866129 4.52223,-3.774683 -0.27014,0.17042 -0.42599,0.489243 -0.63363,0.7195 -0.66037,0.944919 -1.21839,1.965372 -1.90019,2.899439 -0.89092,1.375095 -1.79461,2.741496 -2.63961,4.14555 -0.66334,0.974947 -1.3766,1.918988 -2.11554,2.836458 -0.30026,0.32808 -0.63338,0.69239 -1.02251,0.92029 -1.39024,0.81425 -3.29392,2.43523 -5.2142,2.75856 -0.59887,0.0532 -1.11695,-0.0718 -1.60905,-0.4352 -0.5126,-0.35644 -0.88163,-0.78825 -1.06547,-1.4 -0.25027,-0.77839 -0.31361,-1.58987 -0.19213,-2.40039 0.1239,-1.039151 0.3473,-2.060056 0.47934,-3.09635 0.0991,-0.862991 0.25147,-1.722183 0.11442,-2.591585 -0.0665,-0.42422 -0.11395,-0.835555 -0.6334,-0.802849 -0.17344,0.04079 -0.2817,0.06152 -0.45738,0.128278 -0.10384,0.03945 -0.40044,0.19106 -0.30504,0.134159 6.91078,-4.122131 4.4766,-2.689934 3.04335,-1.732357 -1.01962,0.918181 -1.89361,2.019835 -2.45485,3.277799 -0.62277,1.4351 -1.18184,2.904628 -2.00378,4.242295 -0.52886,0.90088 -1.07157,1.79773 -1.66196,2.65894 -1.54663,0.69953 -3.09327,1.39906 -4.6399,2.09859 0.0596,-0.009 0.0966,-0.0296 0.13558,-0.11041 0.21818,-0.35352 0.40983,-0.7399 0.46548,-1.15457 0.1412,-0.76335 0.38029,-1.50545 0.38859,-2.28984 0.1322,-1.04789 0.32596,-2.087816 0.35571,-3.146141 0.1029,-1.091827 0.31439,-2.162884 0.46551,-3.247017 0.0824,-0.680805 0.2432,-1.358913 0.0873,-2.042123 -0.11272,-0.391583 -0.27944,-0.31873 -0.58327,-0.133752 7.46302,-4.319384 3.72722,-2.385669 2.20241,-0.976635 -1.09476,1.003027 -2.23729,1.972064 -3.16658,3.136405 -1.058,1.3507 -2.01267,2.782485 -2.73897,4.341815 -0.55518,1.135278 -1.10935,2.271318 -1.63197,3.422068 -0.52522,0.34826 -4.78915,4.76963 -4.5872,1.93953 0.0379,-0.57557 0.0906,-1.15105 0.21409,-1.71569 0.21694,-0.96647 0.35968,-1.93594 0.44675,-2.923188 0.16839,-1.161428 0.19817,-2.328908 0.33062,-3.494577 0.1444,-0.953595 0.31128,-1.899777 0.38751,-2.862159 0.0759,-0.50051 0.13622,-1.013873 -0.17276,-1.455415 -0.2232,-0.2404 -0.42732,-0.297429 -0.70646,-0.07017 7.43256,-4.299616 4.15158,-2.535007 2.60163,-1.408866 -0.78011,0.752038 -1.57045,1.49334 -2.36615,2.228844 -0.94091,0.887172 -1.82855,1.807377 -2.46526,2.947818 -0.67199,1.093645 -1.3505,2.182863 -2.06139,3.251624 -0.46718,0.675947 -0.89135,1.391479 -1.5113,1.943159 -0.32134,0.2942 -0.11407,0.13574 -0.48159,0.35066 -0.6701,0.39187 -3.30676,2.4455 -5.08784,2.79883 -0.41401,-0.0491 -0.81329,-0.13015 -1.12826,-0.42638 -0.23604,-0.26158 -0.46433,-0.58619 -0.51949,-0.93984 -0.1068,-0.42575 -0.2747,-0.82489 -0.45587,-1.22427 -0.12484,-0.58594 -0.31473,-1.15765 -0.25021,-1.76557 5.3e-4,-0.810281 0.007,-1.620557 0.0145,-2.430804 0.0139,-0.95555 0.0371,-1.911649 0.1364,-2.862955 0.0949,-0.749925 0.28122,-1.503453 0.17739,-2.260367 -0.0518,-0.333428 -0.0933,-0.717876 -0.51735,-0.703636 -1.50514,0.168251 -4.95623,2.761237 3.63944,-2.233589 0.0831,-0.04829 -0.16788,0.09372 -0.25042,0.142997 -0.35457,0.211685 -0.24393,0.142079 -0.57549,0.415303 -0.8753,0.580787 -1.4685,1.499463 -2.09238,2.326003 -0.81668,1.271235 -1.5802,2.577195 -2.27444,3.919511 -0.63014,1.172866 -1.28752,2.328875 -1.99956,3.454164 -1.071,1.642903 -3.56,4.712413 -4.9678,2.735913 -0.0345,-0.0484 0.0368,-0.16917 0.003,-0.21573 0.0181,-0.5159 0.0465,-1.03149 0.11096,-1.544 0.13531,-0.985732 0.3303,-1.961145 0.45384,-2.947686 0.13839,-1.019797 0.36994,-2.021308 0.4796,-3.044925 0.10529,-0.779537 0.1667,-1.553835 0.0562,-2.33897 -0.0614,-0.385085 -0.1317,-0.834295 -0.62087,-0.807193 -0.17226,0.05075 -0.28629,0.07988 -0.45935,0.155 -0.1058,0.04593 -0.40966,0.211659 -0.31043,0.152861 6.91899,-4.09988 4.38345,-2.679012 2.98337,-1.660578 -1.11866,0.978876 -2.12591,2.07082 -3.00114,3.27529 -0.91712,1.306838 -1.71591,2.69154 -2.3463,4.160488 -0.50762,1.096034 -1.00232,2.204432 -1.6891,3.203853 -1.53135,0.80613 -4.2613,3.85384 -4.71062,2.18263 -0.0636,-0.23649 0.27004,-0.58163 0.21718,-0.82241 0.24894,-0.97096 0.45412,-1.94117 0.57164,-2.939232 0.21084,-1.353479 0.30938,-2.724396 0.62394,-4.062045 0.16075,-1.156578 0.37957,-2.303293 0.48412,-3.467459 -0.01,-0.582589 0.01,-1.180264 -0.10921,-1.752741 -0.17348,-0.04216 -0.35238,0.147016 -0.53088,0.199684 -1.32691,0.759621 -4.16215,2.383494 3.77296,-2.211895 0.0774,-0.04481 -0.1475,0.10115 -0.22019,0.15322 -0.28559,0.20457 -0.51076,0.464923 -0.81272,0.648157 -0.81947,0.726986 -1.68628,1.398842 -2.42335,2.218944 -1.0634,1.043292 -2.06083,2.168856 -3.00789,3.316359 -0.82821,1.046896 -1.54718,2.178966 -2.10626,3.393221 -0.39209,0.769681 -0.78534,1.527172 -1.3657,2.178587 -1.21134,1.6498 -3.47507,3.06655 -5.417321,3.24531 -0.513615,-0.11361 -0.960406,-0.35411 -1.329875,-0.73567 -0.584378,-0.56557 -1.021289,-1.21677 -1.338969,-1.96883 -0.462177,-1.201118 -0.888254,-2.424644 -0.932635,-3.7261 -0.09853,-1.417129 -0.0468,-2.841945 0.04077,-4.258939 0.134165,-1.311664 0.34785,-2.623389 0.947319,-3.814176 0.273407,-0.669385 0.628896,-1.2638 0.961001,-1.900981 0.05139,-0.0986 0.03705,-0.244739 0.128654,-0.307771 1.392539,-0.958172 2.851568,-1.815933 4.277352,-2.723898 0.226742,0.285377 0.415832,0.568563 0.515443,0.925864 0.155511,0.575657 0.03589,1.19394 0.04499,1.784562 -0.05396,0.995135 -0.1787,1.9856 -0.506375,2.932752 -0.482312,1.367552 -1.065382,2.703534 -1.706981,4.003638 -0.768757,1.490078 -1.629701,2.901352 -2.841736,4.081783 -2.241484,2.115661 -4.975656,3.863976 -7.943882,4.717066 -1.4748,0.24049 -2.937795,0.16341 -4.277648,-0.56767 -1.475515,-1.04774 -1.691341,-1.950452 -1.298313,-3.708018 0.641823,-1.97235 1.676289,-3.716293 3.123186,-5.216266 1.244759,-1.302853 2.560037,-2.546157 4.028435,-3.596915 2.536018,-1.693405 5.167622,-3.404415 8.14609,-4.171508 0,0 -3.872167,2.944773 -3.872167,2.944773 z"
       inkscape:connector-curvature="0" />
    <path
       style="fill:#000000;stroke-width:0.26458332"
       id="path3931"
       d="m 170.52718,79.936046 c 0.57456,1.035666 1.19152,2.044702 1.73838,3.09577 0.12042,0.250971 0.21215,0.513242 0.29837,0.777282 0,0 -4.29237,2.34373 -4.29237,2.34373 v 0 c -0.0625,-0.242909 -0.13276,-0.483545 -0.23598,-0.713113 -0.50389,-1.056296 -1.09796,-2.061342 -1.71183,-3.05716 0,0 4.20343,-2.446509 4.20343,-2.446509 z"
       inkscape:connector-curvature="0" />
    <path
       style="fill:#000000;stroke-width:0.26458332"
       id="path3933"
       d="m 222.93858,90.281489 c 0.0754,1.950019 -0.11643,3.894397 -0.40858,5.819582 -0.28602,2.016776 -0.78711,3.992649 -1.29099,5.963389 -0.33405,1.2715 -0.59965,2.55711 -0.87906,3.84077 -0.11726,0.49927 -0.26382,0.99174 -0.36515,1.4947 0,0 -4.43278,2.08309 -4.43278,2.08309 v 0 c 0.22474,-0.45744 0.22706,-1.00653 0.4254,-1.47619 0.32767,-1.28205 0.5421,-2.5942 0.90932,-3.86789 0.5229,-1.95931 1.04753,-3.9235 1.34037,-5.933397 0.29896,-1.872488 0.49861,-3.768537 0.39092,-5.66729 0,0 4.31055,-2.256764 4.31055,-2.256764 z"
       inkscape:connector-curvature="0" />
    <path
       style="fill:#000000;stroke-width:0.26458332"
       id="path3935"
       d="m 238.74329,93.432796 c -1.50155,-0.24085 -3.00415,-0.119968 -4.49312,0.127286 -0.52038,0.142721 -0.6202,0.134178 -1.07587,0.38722 -0.14212,0.07893 -0.5492,0.347559 -0.40707,0.268626 6.00343,-3.334051 4.29794,-3.068243 3.28056,-1.479523 -0.4961,0.841872 -0.57888,1.754367 -0.45356,2.702515 0.14208,1.053271 0.66085,1.921054 1.41629,2.647719 1.14462,0.781677 2.30181,1.542757 3.43691,2.341511 1.17356,0.75681 2.07957,1.76926 2.68604,3.01984 0.5097,1.26358 0.3809,2.56403 -0.004,3.83476 -0.38231,1.08795 -1.0805,2.02458 -2.08959,2.60844 -1.58467,0.91688 -3.18982,1.79789 -4.78474,2.69684 -1.29002,0.48764 -2.62395,0.60116 -3.98498,0.50344 -1.04137,-0.14983 -2.02665,-0.46602 -2.95661,-0.95121 -0.0966,-0.0758 -0.19313,-0.15152 -0.2897,-0.22727 0,0 4.11789,-2.60921 4.11789,-2.60921 v 0 c 0.0804,0.0547 0.16078,0.10945 0.24116,0.16417 0.88406,0.44193 1.83475,0.70542 2.82049,0.79827 1.31713,0.0474 2.61536,-0.14351 3.82649,-0.69028 -1.16373,0.68973 -2.32737,1.37961 -3.4912,2.06919 -0.20027,0.11866 0.40593,-0.22874 0.60055,-0.35645 0.73483,-0.48221 1.29179,-1.12279 1.61176,-1.94766 0.41042,-1.14636 0.62117,-2.32836 0.16946,-3.504 -0.55993,-1.18682 -1.4404,-2.10557 -2.54457,-2.81646 -1.15756,-0.81374 -2.36438,-1.55407 -3.49494,-2.40181 -0.79995,-0.818251 -1.40931,-1.756453 -1.57748,-2.910671 -0.17756,-1.025409 -0.15681,-2.038324 0.30431,-2.9952 0.0172,-0.03301 0.41823,-0.812173 0.45201,-0.83458 1.89232,-1.255403 3.78474,-2.775961 6.05688,-3.216863 1.53503,-0.207094 3.08917,-0.26263 4.62344,-0.0013 0,0 -3.99721,2.772667 -3.99721,2.772667 z"
       inkscape:connector-curvature="0" />
    <path
       style="fill:#000000;stroke-width:0.26458332"
       id="path3937"
       d="m 274.30589,76.035082 c -0.0198,2.448018 -0.0517,4.892947 -0.15848,7.338933 -0.23096,3.503398 -0.64434,6.992922 -1.04992,10.479741 -0.3493,2.950342 -0.94988,5.862262 -1.56014,8.767324 -0.28327,1.1476 -0.57518,2.29303 -0.86442,3.43917 -1.48892,0.69309 -2.97784,1.38619 -4.46675,2.07928 0,0 4.20084,-2.4938 4.20084,-2.4938 v 0 c -1.39205,0.82187 -2.7841,1.64374 -4.17613,2.46561 0.18423,-0.30525 0.24646,-0.66936 0.33851,-1.00992 0.21682,-0.80236 0.45013,-1.59995 0.66471,-2.40295 0.65574,-2.8975 1.27961,-5.808064 1.64753,-8.758445 0.41275,-3.47059 0.81479,-6.946731 1.0414,-10.434961 0.0894,-2.421601 0.13296,-4.842764 0.0568,-7.265746 0,0 4.32607,-2.204236 4.32607,-2.204236 z"
       inkscape:connector-curvature="0" />
    <path
       style="fill:#000000;stroke-width:0.26458332"
       id="path3939"
       d="m 277.13167,76.588958 c 1.48759,-0.238347 3.13396,-0.149024 4.48469,0.585272 0.30612,0.166412 0.57615,0.391993 0.86421,0.587991 2.04081,1.703771 2.73764,4.275151 3.2716,6.772159 0.60909,3.074939 0.52009,6.177748 0.0298,9.255466 -0.57126,3.045277 -1.95215,5.77756 -3.61376,8.356554 -1.45148,2.23663 -3.16653,4.27421 -5.22602,5.9685 -3.08578,2.26323 -5.72032,4.03717 -9.44306,3.97642 -0.64315,-0.0505 -1.24285,-0.22008 -1.83933,-0.45034 0,0 4.02074,-2.71642 4.02074,-2.71642 v 0 c 0.56041,0.18062 1.12115,0.32376 1.71641,0.33037 0.85108,-0.0277 1.6728,-0.10055 2.49369,-0.35139 1.48688,-0.45435 3.33862,-1.69633 -2.29049,1.56928 -0.31028,0.18001 0.60359,-0.38776 0.9054,-0.58164 2.1264,-1.59886 3.84971,-3.63402 5.32355,-5.8424 1.68087,-2.51711 3.09028,-5.185647 3.70305,-8.180815 0.52105,-3.019195 0.6326,-6.067956 0.0415,-9.092988 -0.50204,-2.370376 -1.14919,-4.845158 -3.12991,-6.422789 -0.27006,-0.168659 -0.52382,-0.366716 -0.81016,-0.505974 -1.34945,-0.656333 -2.94356,-0.62521 -4.37414,-0.312486 0,0 3.87215,-2.94477 3.87215,-2.94477 z"
       inkscape:connector-curvature="0" />
    <path
       style="fill:#000000;stroke-width:0.26458332"
       id="path3941"
       d="m 294.68545,95.897884 c -0.82597,0.1079 -1.64124,0.271873 -2.42146,0.57126 -0.30655,0.11762 -0.60897,0.248155 -0.90051,0.399139 -0.29012,0.150236 -1.13046,0.654918 -0.8413,0.502854 1.10098,-0.578972 2.18514,-1.189394 3.27771,-1.78409 -1.91984,1.412578 -2.79961,3.256282 -3.44024,5.487013 -0.28967,1.53103 -0.53293,3.32916 0.60915,4.59365 0.16362,0.18117 0.37158,0.31672 0.55737,0.47508 0.68347,0.34859 1.42055,0.46108 2.18114,0.34167 1.54401,-0.24239 4.90601,-2.42402 -1.76008,1.298 1.74064,-1.21438 3.22971,-2.74413 4.49614,-4.43908 1.10469,-1.66987 1.50789,-2.8564 1.06042,-4.816125 -0.3651,-1.044337 -1.07225,-1.84981 -1.87274,-2.58205 0,0 4.12295,-2.545061 4.12295,-2.545061 v 0 c 0.84883,0.813485 1.58683,1.715521 1.99487,2.836875 0.51848,2.075717 0.22646,3.3752 -0.90823,5.202631 -1.23,1.75219 -2.72209,3.29436 -4.41476,4.60858 -2.00633,1.15857 -5.36345,4.14176 -8.25444,3.02884 -0.26149,-0.10066 -0.49517,-0.26233 -0.74277,-0.39349 -0.20375,-0.19212 -0.43116,-0.36193 -0.61129,-0.57636 -1.18703,-1.41296 -1.06857,-3.2756 -0.76631,-4.97928 0.56589,-2.22563 1.43073,-4.314144 3.29356,-5.77068 3.19222,-1.950818 5.57736,-3.948721 9.24422,-4.355232 0,0 -3.9034,2.895856 -3.9034,2.895856 z"
       inkscape:connector-curvature="0" />
    <path
       style="fill:#000000;stroke-width:0.26458332"
       id="path3943"
       d="m 307.63792,92.955313 c 0.46609,2.212147 0.83264,4.438586 1.08312,6.684981 0.21299,2.116776 0.27059,4.273496 0.90977,6.316276 0.34851,0.72185 0.54769,1.74945 1.52845,1.26483 -7.50965,4.02747 -4.14351,2.77946 -3.12172,1.42435 0.42085,-0.55813 0.68154,-1.18965 0.93994,-1.83209 0.51144,-1.3221 0.80626,-2.70439 0.97469,-4.10754 0.19992,-2.36252 -0.013,-1.39747 4.59468,-2.936633 0.0901,-0.0301 0.19793,0.498423 0.31805,1.006493 0.28673,1.53707 0.54849,3.07768 0.87429,4.60755 0.18828,0.53778 0.44461,2.01372 1.04024,2.28901 0.0685,0.0316 0.15052,0.01 0.22577,0.0148 0.0808,-0.0384 0.17034,-0.062 0.24225,-0.1151 0.0984,-0.0727 0.37021,-0.31431 0.26204,-0.25712 -1.28288,0.67817 -2.49602,1.4869 -3.79851,2.12661 -0.18884,0.0927 0.28744,-0.30757 0.4228,-0.46863 0.42778,-0.50892 0.63807,-0.82354 1.03891,-1.3777 1.30998,-1.93538 2.34093,-4.03211 3.30288,-6.15583 0.64029,-1.3967 1.06963,-2.870193 1.3141,-4.383983 0.0527,-0.348266 0.0824,-0.699823 0.0836,-1.052023 0,0 4.36618,-2.229019 4.36618,-2.229019 v 0 c 0.007,0.383624 -0.0343,0.766206 -0.0824,1.14631 -0.26982,1.557922 -0.67693,3.090119 -1.33866,4.532098 -0.95281,2.140367 -1.98067,4.248037 -3.24173,6.227057 -1.91526,2.83897 -1.52923,2.13738 -5.85827,4.69169 -0.28913,0.1706 -0.46453,0.0897 -0.76007,0.0402 -0.95805,-0.55828 -1.19181,-1.75151 -1.46827,-2.75169 -0.31412,-1.52586 -0.59108,-3.05828 -0.8953,-4.5856 -0.0365,-0.1641 -0.0616,-0.33111 -0.10933,-0.49229 -0.0339,-0.11446 -0.23151,-0.26205 -0.13464,-0.33181 1.30968,-0.94334 2.74814,-1.69359 4.12223,-2.540383 -0.032,0.03455 -0.0822,0.05862 -0.0962,0.103643 -0.0736,0.23791 0.0183,0.50941 -0.0813,0.74266 -0.16452,1.4378 -0.44612,2.8582 -0.94557,4.22097 -1.17636,3.4661 -2.14921,3.28268 -6.08039,5.38293 -1.16324,-0.0324 -1.47299,-0.93093 -1.86809,-1.8879 -0.62696,-2.08453 -0.70186,-4.26865 -0.89691,-6.42519 -0.24202,-2.223031 -0.5896,-4.433979 -1.15213,-6.600795 0,0 4.28546,-2.291204 4.28546,-2.291204 z"
       inkscape:connector-curvature="0" />
    <path
       style="fill:#000000;stroke-width:0.26458332"
       id="path3945"
       d="m 332.10418,95.66512 c -0.15823,1.679591 -0.35116,3.3558 -0.58233,5.02706 -0.26228,1.61886 -0.50138,3.24309 -0.78282,4.85878 -0.16028,0.81389 -0.32586,1.62715 -0.42704,2.45091 -0.0188,0.13743 -0.0238,0.2841 -0.0458,0.41866 -4.49172,2.46099 -4.66444,3.30292 -4.19163,0.7178 0.21881,-0.9495 0.51834,-1.87955 0.86653,-2.78891 0.39161,-1.16476 0.90805,-2.24466 1.66886,-3.21004 0.742,-0.85032 1.54522,-1.64726 2.41345,-2.36808 1.95908,-1.536827 4.10171,-2.966085 6.46605,-3.772167 0.82423,-0.273717 1.60448,-0.144685 2.37524,0.21118 1.0428,0.525227 1.47617,1.491602 1.77501,2.561905 0.34592,1.417522 0.19624,2.871052 0.10345,4.308002 -0.0652,0.96332 -0.11467,1.92768 -0.13443,2.89303 -0.005,0.29034 0.0246,0.57961 -0.0821,0.85477 0,0 -4.55454,1.81869 -4.55454,1.81869 v 0 c 0.33512,0.0186 0.28173,-0.18079 0.28474,-0.47256 0.0387,-0.97771 0.0923,-1.95478 0.16767,-2.93042 0.0997,-1.3849 0.26961,-2.78841 -0.039,-4.15959 -0.24881,-0.94209 -0.60468,-1.77273 -1.56377,-2.166222 -0.73509,-0.246358 -1.44044,-0.226575 -2.15937,0.08625 -1.53503,0.68487 -3.69739,2.12113 3.04245,-1.825278 0.12731,-0.07455 -0.26652,0.127545 -0.39349,0.202716 -0.34356,0.203428 -0.4716,0.326419 -0.78431,0.579308 -0.88135,0.6956 -1.69981,1.457284 -2.4603,2.285304 -0.8481,0.95842 -1.33446,1.84326 -1.72826,3.06673 -0.35603,0.87769 -0.63222,1.77821 -0.88501,2.6897 -0.45418,2.67166 0.146,1.15509 -4.56334,3.6491 -0.014,-0.16286 0.0266,-0.3262 0.0402,-0.48817 0.11488,-0.83995 0.27453,-1.67187 0.46101,-2.49894 0.329,-1.60485 0.53239,-3.23753 0.81653,-4.85085 0.24331,-1.65336 0.44227,-3.317093 0.54395,-4.985415 0,0 4.35235,-2.163257 4.35235,-2.163257 z"
       inkscape:connector-curvature="0" />
    <path
       style="fill:#000000;stroke-width:0.26458332"
       id="path3947"
       d="m 364.2357,80.502079 c -0.17332,1.741678 -0.33131,3.485169 -0.49323,5.228326 -0.13581,2.005634 -0.39124,4.000037 -0.72263,5.982001 -0.32099,1.91964 -0.65807,3.838319 -1.07844,5.739008 -0.23884,1.201928 -0.55536,2.384701 -0.84961,3.573506 -0.12406,0.37477 -0.0976,0.79762 -0.2844,1.14973 0,0 -4.56385,1.79353 -4.56385,1.79353 v 0 c 0.4763,-0.0121 0.33438,-0.47526 0.46165,-0.83956 0.29191,-1.19928 0.67611,-2.37505 0.90029,-3.591249 0.46001,-1.886887 0.77947,-3.806243 1.10451,-5.719987 0.34298,-1.968813 0.61129,-3.952105 0.73668,-5.947646 0.15854,-1.734968 0.33776,-3.466568 0.42957,-5.206838 0,0 4.35946,-2.160821 4.35946,-2.160821 z"
       inkscape:connector-curvature="0" />
    <path
       style="fill:#000000;stroke-width:0.26458332"
       id="path3949"
       d="m 360.79985,106.60623 c -0.33033,1.14887 -0.66463,2.29622 -0.89416,3.47015 -0.0784,0.42536 -0.13195,0.85536 -0.15631,1.28721 0,0 -4.381,2.20411 -4.381,2.20411 v 0 c 0.0214,-0.45966 0.0954,-0.9154 0.16396,-1.36973 0.2359,-1.17478 0.55467,-2.3272 0.88577,-3.47851 0,0 4.38174,-2.11323 4.38174,-2.11323 z"
       inkscape:connector-curvature="0" />
    <path
       style="fill:#000000;stroke-width:0.26458332"
       id="path3951"
       d="m 52.503837,168.12158 c 0.32653,1.67835 0.478665,3.38027 0.570693,5.08523 0.141136,2.32313 0.02976,4.64484 -0.08651,6.96559 -0.131252,2.5031 -0.307387,5.00564 -0.511318,7.50407 -0.172548,2.37468 -0.452596,4.73916 -0.6341,7.113 -0.116856,2.22763 -0.232976,4.45616 -0.453559,6.67642 -0.167365,1.37634 -0.320138,2.75396 -0.41247,4.1375 -0.01834,0.33492 -0.113305,0.6557 -0.188225,0.98005 0,0 -4.519459,1.90106 -4.519459,1.90106 v 0 c 0.298559,-0.0235 0.284814,-0.49925 0.361575,-0.70571 0.107124,-1.39907 0.279217,-2.7922 0.465576,-4.18269 0.252934,-2.21518 0.360516,-4.44369 0.473295,-6.66954 0.175763,-2.37758 0.465042,-4.74381 0.641612,-7.12138 0.214971,-2.493 0.377965,-4.993 0.522314,-7.49069 0.107132,-2.30113 0.228724,-4.60213 0.07568,-6.90514 -0.09063,-1.67153 -0.213468,-3.34923 -0.590262,-4.985 0,0 4.285158,-2.30277 4.285158,-2.30277 z"
       inkscape:connector-curvature="0" />
    <path
       style="fill:#000000;stroke-width:0.26458332"
       id="path3953"
       d="m 53.763896,168.8811 c 1.778797,-0.0165 3.226816,0.27215 4.790948,1.13003 1.671034,1.25368 2.290789,2.63705 2.915023,4.56147 0.588674,1.95454 0.667438,3.97354 0.53689,5.99452 -0.156382,1.19636 -0.344305,2.43301 -0.9081,3.51801 -0.289796,0.55769 -0.50046,0.77868 -0.883283,1.26309 -2.221314,2.13094 -5.057153,3.65698 -8.100255,4.09659 -0.880235,0.108 -1.766808,0.14044 -2.652726,0.15173 0,0 3.937169,-2.8685 3.937169,-2.8685 v 0 c 0.860928,-0.0119 1.722903,-0.0525 2.574886,-0.18509 0.574048,-0.10746 0.847111,-0.1405 1.407014,-0.31858 0.241837,-0.0769 0.926227,-0.40327 0.714081,-0.264 -6.342403,4.16374 -3.679184,2.23648 -2.323645,1.27316 0.342578,-0.38173 0.668489,-0.71207 0.941536,-1.15162 0.627544,-1.0102 0.822775,-2.21612 1.004292,-3.36904 0.163068,-1.96135 0.10354,-3.92471 -0.457612,-5.82722 -0.565944,-1.76739 -1.141762,-3.14185 -2.73272,-4.23597 -1.451973,-0.72592 -3.043971,-1.0271 -4.667943,-0.86529 0,0 3.904445,-2.90329 3.904445,-2.90329 z"
       inkscape:connector-curvature="0" />
    <path
       style="fill:#000000;stroke-width:0.26458332"
       id="path3955"
       d="m 71.229576,175.0825 c -0.607121,2.15237 -1.022395,4.35214 -1.521129,6.53103 -0.679442,2.89446 -1.560145,5.73782 -2.381575,8.59441 -0.787014,2.42576 -1.650842,4.82621 -2.279425,7.29977 -0.18958,1.10718 -0.427477,2.48619 0.360965,3.44073 0.118094,0.14297 0.273455,0.25053 0.410181,0.3758 1.19879,0.77378 2.600939,0.8152 3.978736,0.76553 1.338172,-0.0185 2.652469,-0.20226 3.969784,-0.41502 0.588163,-0.0982 0.302712,-0.0548 0.856123,-0.13176 0,0 -3.896006,2.91643 -3.896006,2.91643 v 0 c -0.540271,0.0801 -0.26085,0.0381 -0.838223,0.12628 -1.322507,0.20162 -2.650731,0.32473 -3.989597,0.34758 -1.484455,0.004 -2.977576,-0.15206 -4.204255,-1.07278 -0.159621,-0.16141 -0.340032,-0.30462 -0.478867,-0.48422 -0.83878,-1.08511 -0.704451,-2.53866 -0.490696,-3.79961 0.626456,-2.49124 1.504669,-4.90518 2.322419,-7.33799 0.82491,-2.84348 1.692127,-5.67934 2.374289,-8.56078 0.491223,-2.16853 0.921139,-4.34944 1.416135,-6.5169 0,0 4.391141,-2.0785 4.391141,-2.0785 z"
       inkscape:connector-curvature="0" />
    <path
       style="fill:#000000;stroke-width:0.26458332"
       id="path3957"
       d="m 82.628689,180.47935 c 2.010486,0.46559 3.995412,1.03438 5.976821,1.6093 1.457782,0.42767 2.826996,1.07799 3.978473,2.07342 0.805659,0.7058 1.230045,1.54776 1.213054,2.61536 -0.148252,1.20607 -0.664644,2.33072 -1.185278,3.41616 -0.839941,1.55792 -2.095407,2.82229 -3.36473,4.03224 -1.416532,1.22172 -2.960164,2.28146 -4.393015,3.48271 -1.061487,0.84872 -1.914699,1.87743 -2.606934,3.03922 -0.474731,0.76691 -0.860451,1.55922 -0.656082,2.4694 0.459174,0.9514 1.615721,1.02005 2.542342,1.13987 1.798055,0.0898 3.578733,-0.14075 5.358376,-0.35448 0.966676,-0.10402 1.932405,-0.23448 2.90409,-0.28305 0,0 -3.932862,2.89314 -3.932862,2.89314 v 0 c -0.946877,0.0653 -1.891683,0.1553 -2.834335,0.26642 -1.80461,0.20838 -3.621726,0.40556 -5.440085,0.25705 -1.146336,-0.18758 -2.349291,-0.43655 -2.876124,-1.59961 -0.291989,-1.01035 -0.06274,-1.93852 0.509913,-2.81536 0.66295,-1.21924 1.484008,-2.32167 2.567191,-3.20532 1.418553,-1.22399 2.952327,-2.29693 4.416113,-3.4658 1.258877,-1.17192 2.509115,-2.38045 3.409119,-3.86189 0.512228,-1.03225 1.013452,-2.09927 1.234043,-3.23632 0.13952,-0.92826 -0.287025,-1.61896 -0.978321,-2.22394 -1.110824,-0.93361 -2.432063,-1.52571 -3.819567,-1.93339 -1.992447,-0.57897 -3.988138,-1.15462 -6.023001,-1.56807 0,0 4.000799,-2.74706 4.000799,-2.74706 z"
       inkscape:connector-curvature="0" />
    <path
       style="fill:#000000;stroke-width:0.26458332"
       id="path3959"
       d="m 121.26299,178.34994 c 0.12271,1.76355 0.31678,3.52178 0.5295,5.27654 0.25502,2.36068 0.52404,4.71944 0.70315,7.08742 0.14598,2.20447 0.35558,4.40336 0.48347,6.60924 0.13928,1.66686 0.3188,3.32951 0.43354,4.99842 0.0988,0.76405 0.006,1.55111 0.12029,2.31218 -0.12436,0.0349 0.0645,0.0953 0.0628,0.0652 -0.10572,-1.87551 -3.96923,1.99769 -4.12497,2.07997 -0.0816,0.0431 0.11082,-0.14825 0.15732,-0.22804 0.0608,-0.1043 0.10921,-0.21532 0.16381,-0.32298 0.49876,-1.21 0.78495,-2.49234 1.15562,-3.74421 0.41749,-1.32046 0.88959,-2.61279 1.56482,-3.82351 1.19881,-1.80257 3.62704,-4.25697 5.78427,-3.72192 0.89672,0.45915 1.12442,1.44823 1.38446,2.34069 0.43318,1.64613 0.45078,3.35466 0.59279,5.03995 0.18569,0.93502 0.0336,2.56916 0.67995,3.3294 0.20476,0.007 0.10987,0.0414 0.25756,-0.1594 -1.32959,0.73403 -2.65158,1.48199 -3.98876,2.20208 -0.10919,0.0588 0.21354,-0.13026 0.30228,-0.21689 0.31482,-0.3073 0.447,-0.59929 0.67338,-0.9821 1.05314,-2.13967 1.87286,-4.38406 2.7357,-6.60455 0.98749,-2.58332 2.03951,-5.14192 3.11701,-7.68888 0.49521,-1.1162 1.02852,-2.21585 1.46504,-3.35693 0,0 4.40967,-2.04643 4.40967,-2.04643 v 0 c -0.45054,1.1639 -1.00279,2.28233 -1.53652,3.40985 -1.10312,2.5408 -2.1709,5.09832 -3.1552,7.68767 -0.85248,2.21576 -1.65941,4.45109 -2.62625,6.62068 -0.95977,1.95639 -3.54205,5.36118 -5.84827,3.6222 -0.70627,-1.03294 -0.57372,-2.40914 -0.74889,-3.59762 -0.14801,-1.64974 -0.15236,-3.32515 -0.57905,-4.9371 -0.18251,-0.60446 -0.3214,-1.6845 -1.08992,-1.79602 -1.60323,0.59562 -0.33799,0.13825 3.71912,-2.23879 0.0938,-0.055 -0.1886,0.11012 -0.27271,0.17904 -0.32525,0.26654 -0.58359,0.61755 -0.84578,0.94139 -0.19525,0.33077 -0.41166,0.64986 -0.58654,0.99184 -0.44676,0.87359 -0.68937,1.83509 -1.0484,2.74399 -0.39118,1.24779 -0.65007,2.53435 -1.09438,3.76557 -0.61286,1.86945 -3.89983,4.85601 -4.98797,2.75133 -0.18699,-0.77469 0.007,-1.60786 -0.10903,-2.3958 -0.086,-1.67718 -0.24429,-3.34835 -0.39763,-5.02048 -0.10841,-2.20786 -0.32127,-4.40675 -0.4557,-6.61262 -0.17083,-2.35833 -0.44618,-4.70568 -0.71333,-7.05459 -0.22685,-1.74629 -0.40768,-3.49851 -0.59676,-5.24905 0,0 4.31056,-2.25676 4.31056,-2.25676 z"
       inkscape:connector-curvature="0" />
    <path
       style="fill:#000000;stroke-width:0.26458332"
       id="path3961"
       d="m 138.20607,209.12072 c 0.80697,-2.03814 1.72351,-4.02942 2.5626,-6.05426 1.00443,-2.3573 1.90185,-4.75631 2.92375,-7.10605 0.76785,-1.62511 1.35024,-3.33039 2.11628,-4.95554 0.38088,-0.75173 0.74022,-1.52391 1.20252,-2.23053 4.47342,-6.62657 4.7856,-1.9294 5.07187,0.33116 0.34939,2.41523 0.76417,4.81988 1.15939,7.22787 0.44296,2.54671 0.58842,5.12932 0.88089,7.69455 0.20294,0.66971 0.16133,2.22754 0.68782,2.72276 0,0 -4.18567,2.5093 -4.18567,2.5093 v 0 c -0.61113,-0.85511 -0.51975,-2.02174 -0.74802,-3.01153 -0.25503,-2.56578 -0.39006,-5.14583 -0.82883,-7.6902 -0.40702,-2.40321 -0.82961,-4.80332 -1.22584,-7.20827 -0.0741,-0.50051 -0.13175,-1.00341 -0.20947,-1.50337 -0.35127,-2.25992 -0.77619,-0.32065 4.03733,-3.07282 0.0493,-0.0282 -0.10481,0.0438 -0.15722,0.0657 -0.54021,0.64471 -0.87974,1.43345 -1.2782,2.16962 -0.8345,1.60575 -1.40178,3.33289 -2.18666,4.96269 -1.03209,2.34381 -1.94559,4.733 -2.92986,7.09723 -0.82045,2.0081 -1.74484,3.97331 -2.48479,6.0131 0,0 -4.40789,2.03858 -4.40789,2.03858 z"
       inkscape:connector-curvature="0" />
    <path
       style="fill:#000000;stroke-width:0.26458332"
       id="path3963"
       d="m 146.74604,198.74122 c 1.50723,-0.0569 2.99078,0.1423 4.46629,0.42259 0,0 -3.96058,2.76717 -3.96058,2.76717 v 0 c -1.45449,-0.26739 -2.93038,-0.43767 -4.41016,-0.28647 0,0 3.90445,-2.90329 3.90445,-2.90329 z"
       inkscape:connector-curvature="0" />
    <path
       style="fill:#000000;stroke-width:0.26458332"
       id="path3965"
       d="m 164.69279,191.6958 c -0.14736,2.36597 -0.31598,4.72973 -0.5613,7.08773 -0.24073,2.32314 -0.58321,4.63333 -0.80142,6.95901 -0.0478,0.58142 -0.0945,1.16327 -0.11624,1.74636 0,0 -4.3747,2.184 -4.3747,2.184 v 0 c 0.075,-0.59459 0.10903,-1.1938 0.18152,-1.78875 0.25036,-2.33405 0.61115,-4.65361 0.85567,-6.98809 0.24474,-2.3261 0.41198,-4.65812 0.49041,-6.99603 0,0 4.32606,-2.20423 4.32606,-2.20423 z"
       inkscape:connector-curvature="0" />
    <path
       style="fill:#000000;stroke-width:0.26458332"
       id="path3967"
       d="m 163.9743,184.39756 c 0.0543,0.58603 0.11433,1.17149 0.17525,1.75686 0,0 -4.29613,2.24265 -4.29613,2.24265 v 0 c -0.0546,-0.5818 -0.10794,-1.16395 -0.18968,-1.74275 0,0 4.31056,-2.25676 4.31056,-2.25676 z"
       inkscape:connector-curvature="0" />
    <path
       style="fill:#000000;stroke-width:0.26458332"
       id="path3969"
       d="m 173.2635,185.58043 c 2.10068,-0.006 4.19591,0.16096 6.29327,0.26097 1.6103,0.044 3.21161,0.0756 4.80633,0.31354 0.42913,0.0647 0.85884,0.12558 1.28784,0.19112 0.0142,0.002 0.0284,0.005 0.0426,0.007 0,0 -4.02012,2.81697 -4.02012,2.81697 v 0 c -0.0129,-0.002 -0.0258,-0.005 -0.0387,-0.007 -0.41349,-0.0768 -0.82835,-0.14592 -1.24373,-0.21162 -1.56259,-0.23748 -3.13877,-0.24568 -4.71523,-0.31936 -2.11304,-0.10949 -4.22726,-0.2664 -6.3445,-0.19438 0,0 3.93228,-2.85697 3.93228,-2.85697 z"
       inkscape:connector-curvature="0" />
    <path
       style="fill:#000000;stroke-width:0.26458332"
       id="path3971"
       d="m 179.40534,186.33541 c -0.24787,1.73726 -0.44197,3.48001 -0.64169,5.22325 -0.31606,2.36119 -0.76085,4.70102 -1.19703,7.0421 -0.35983,2.19152 -0.79249,4.37003 -1.17227,6.55791 -0.15153,0.89701 -0.26364,1.80045 -0.32661,2.70796 -0.52698,-1.97066 -4.93223,3.73416 -4.17872,1.61722 0,0 4.39608,-2.10792 4.39608,-2.10792 v 0 c -0.28901,1.82276 -3.68989,4.53892 -4.60662,2.66365 0.14907,-0.92181 0.20883,-1.85725 0.39408,-2.77392 0.40026,-2.19401 0.85851,-4.37719 1.20894,-6.58034 0.43626,-2.32658 0.86757,-4.65378 1.18736,-6.99977 0.1985,-1.7291 0.37517,-3.46155 0.57704,-5.18932 0,0 4.35944,-2.16082 4.35944,-2.16082 z"
       inkscape:connector-curvature="0" />
    <path
       style="fill:#000000;stroke-width:0.26458332"
       id="path3973"
       d="m 186.48019,205.95041 c 0.80173,0.55523 1.6589,1.01707 2.54254,1.42617 0.13506,0.0623 0.27234,0.11938 0.41153,0.1717 0,0 -4.0814,2.71636 -4.0814,2.71636 v 0 c -0.13514,-0.067 -0.2702,-0.13416 -0.40421,-0.20341 -0.8739,-0.45475 -1.72405,-0.94954 -2.55664,-1.47622 0,0 4.08818,-2.6346 4.08818,-2.6346 z"
       inkscape:connector-curvature="0" />
    <path
       style="fill:#000000;stroke-width:0.26458332"
       id="path3975"
       d="m 195.56495,206.19 c 0.70392,0.25508 1.40359,0.50682 2.14532,0.61705 0,0 -3.98324,2.77818 -3.98324,2.77818 v 0 c -0.74234,-0.17832 -1.46018,-0.43068 -2.18649,-0.66471 0,0 4.02441,-2.73052 4.02441,-2.73052 z"
       inkscape:connector-curvature="0" />
    <path
       style="fill:#000000;stroke-width:0.26458332"
       id="path3979"
       d="m 202.6226,206.95541 c 0.38431,0.88333 0.77827,1.76243 1.17532,2.64011 0.0664,0.14333 0.12908,0.28845 0.19752,0.43084 0,0 -4.29223,2.38936 -4.29223,2.38936 v 0 c -0.0482,-0.14523 -0.1067,-0.28737 -0.16276,-0.42986 -0.35583,-0.88529 -0.72471,-1.76651 -1.14659,-2.62267 0,0 4.22874,-2.40778 4.22874,-2.40778 z"
       inkscape:connector-curvature="0" />
  </g>
</svg>
