<svg viewBox="0 0 503.772 184.39444" preserveAspectRatio="xMinYMin slice" width="100%" xmlns="http://www.w3.org/2000/svg">
    <path
        d="m306.31836 0c0-.004-.28858.02164063-.64258.05664063-6.742.66599999-15.9242.97570308-32.4082 1.09570317l-7.5918.0566406v3.6992187 3.6972657l5.68164.0429687c4.35.029 5.99567.0689219 7.01367.1699219 2.746.264 4.46311.5732187 6.03711 1.0742187 1.267.4099999 1.28338.4217189 1.48438 1.0117189 1.019 3.15 1.57225 10.128406 1.78125 23.191406.05682 3.000808.07982 10.110304.08789 18.722656-1.87048-.802912-3.93346-1.65152-5.58594-2.246093-2.744-1.083-7.03164-1.962094-11.55664-2.371094-1.99-.181-7.06206-.204922-8.78906-.044922-10.859 1.02-20.63442 5.473984-27.85742 12.708984-4.535 4.523-7.76204 9.784657-9.83204 15.972657-1.12399 3.383-1.7504 6.3565-2.1914 10.4375-.209 1.898-.209 8.374578 0 10.392578.609 6.031001 1.92601 10.862801 4.16601 15.341801 2.679 5.346 6.50021 9.85748 11.53321 13.64648 14.399 10.81 38.89406 16.07609 77.28906 16.62109 7.336.106 10.99594.07185 17.33594-.16015 1.253-.039 2.84945-.09591 3.56445-.12891.715-.016 1.47617-.05645 1.70117-.06445.225-.034 1.23667-.06466 2.26367-.09766 1.02-.031 1.87854-.06426 1.89454-.07226.096-.064 5.66615-.16797 8.41015-.16797 3.123 0 5.43364.04904 11.80664.24804 9.592.289 18.30847.42624 30.35547.49024 4.752-.064 8.6933-.4332 10.7793-.6582 8.291-.842 15.37156-2.83204 20.22656-5.70704 4.125-2.424 6.89488-5.305 8.79688-9.125 1.709-3.451 2.486-7.32779 2.375-11.96679-.088-3.9-.8828-7.12711-2.5918-10.53711-.395-.803-.7066-1.46056-.68359-1.47656.016-.026 24.51157-10.28152 25.01757-10.47852.168-.065.14493-.154-.95507-3-.61-1.613-1.14869-2.972391-1.17969-3.025391-.041-.064-1.67955.400922-5.43555 1.544922-2.961.898-9.03681 2.749469-13.50781 4.105469-23.934 7.272-30.04064 9.12739-30.05664 9.15039-.01 0 .16033.8572.36133 1.9082l.38476 1.89649 1.41211.57031c2.295.932 3.8045 1.78883 5.3125 3.04883 3.306 2.762 4.84033 6.8219 4.48633 11.8789-.336 4.78301-1.98983 7.89018-5.42383 10.20118-3.508 2.336-8.67778 3.61742-16.55078 4.10742-2.672.152-14.62334.06403-21.02734-.16797-6.863-.257-11.42983-.71247-13.29883-1.35547l-.44922-.15234-.18555-.58594c-.85-2.713-1.33972-8.24225-1.63672-18.53125-.201-6.878-.32215-35.768969-.16015-38.167969.2-2.882.91454-5.433093 2.31054-8.246093 2.979-5.966001 8.46657-10.634329 14.10157-11.986329.457-.109.69946-.133265.73047-.072265.024.044 1.82985 5.486703 4.00585 12.095703l3.96485 12.005859 3.16211.007813h3.15429l1.7168-16.314453c.939-8.969 1.6853-16.337235 1.6543-16.365235-.106-.1-3.56452-.951062-4.72852-1.164062-1.773-.328-3.32239-.460938-5.40039-.460938-2.561-.004-4.27881.176172-6.75781.701172-5.026 1.075-9.86477 3.407266-14.13477 6.822266-1.051.831-3.64653 3.345234-4.51953 4.365234l-.43359.519531-.23438-.59375c-1.5-3.861-4.04314-6.168375-8.11914-7.359375-3.074-.899-6.44773-1.382047-11.30273-1.623047-2.263-.109-10.05445-.198875-14.81445-.171874l-3.49024.023437v3.716797 3.720703h4.33399c2.391 0 5.03862.039078 5.89062.080078 6.557.345 9.00588 1.483922 10.29688 4.794922.875 2.236 1.29275 5.349203 1.46875 10.783203.073 2.199.04875 38.678002-.03125 39.375002-.018.224-.06489 1.55712-.0879 2.95312-.16999 9.431-.76392 16.29846-1.66992 19.18946l-.17773.53711-.60938.24023c-1.789.691-4.34157 1.13248-8.01757 1.39648-2.953.224-15.73079.12122-21.55079-.17578-29.847-1.484-49.44773-8.14618-59.55273-20.24218-5.45-6.508-8.17755-14.76824-8.18555-24.740239 0-9.13 2.24766-17.327281 6.34766-23.113281 1.886-2.654 4.32672-5.052813 6.88672-6.757812 3.596-2.396 7.89084-3.857094 12.46484-4.246094 1.526-.129 5.80275-.054047 7.34375.126953 2.359.273 3.96436.610672 6.69336 1.388672.689.201 4.31044 1.578484 6.77344 2.521484v.029297c-.008 18.842-.08799 40.83169-.20899 44.17969-.152 4.655-.21534 7.4157-.15234 7.4707.041.041 4.08567 2.22466 9.01367 4.84766 4.912 2.633 8.95724 4.79297 8.99024 4.79297.08 0 .08017-.05421-.04883-3.65821-.418-10.802-.51413-18.87481-.57813-50.00781-.096-41.433.11296-52.319281 1.25196-64.8632812.16-1.8260001.28906-3.3242188.28906-3.3242188zm-265.730469.01757813c-.015-.013-.93125.05925-2.03125.15625-6.292.575-15.521704.86751568-30.9707035.97851568l-7.5859375.0566406v3.7089844 3.703125l4.7519531.0039062c5.6989999 0 7.8090309.0991406 10.4570309.4941406 1.767.259 3.075657.5764846 4.222657 1.0214844l.544921.212891.16211.486328c.497 1.537.946875 4.952328 1.171875 8.861328.031.469.06389 1.086094.087891 1.371094.12 1.621.289218 6.240953.449218 12.376953.137 4.784.193078 61.570047.080078 70.123051-.209 14.977-.545328 22.60001-1.236328 27.41601-.183 1.309-.577469 2.97105-.730468 3.12305-.273001.256-2.479922.89029-4.044922 1.15429-2.664.45901-4.750907.57796-10.7539066.62696l-5.16015628.04883v3.72265 3.7168l3.85937498-.05664c4.952-.064 8.4109689-.16797 14.5429689-.41797 11.133-.441 14.286047-.441 24.623047 0 6.164.273 8.73264.35397 12.68164.41797l3.330078.05664v-3.72461-3.74023h-1.716796c-2.527 0-6.830907-.14425-8.628907-.28125-2.978-.233-5.440843-.68158-6.964843-1.26758-.619-.232-.63586-.24819-.75586-.61719-.497-1.549-.930875-4.3422-1.171875-7.6582-.048-.625-.103953-1.36316-.126953-1.66016-.072-.955-.20125-3.57195-.28125-5.62695-.232-5.955-.28125-10.27257-.28125-26.601565l-.007812-16.978516.193359-.923828c.625-3.113 2.172172-5.886875 4.701172-8.421875 2.496-2.505 5.457453-4.355672 9.189453-5.763672 2.519-.944 5.312422-1.597797 8.482422-1.966796 1.533-.189001 6.758109-.213829 8.162109-.048829 5.008.586 8.741406 2.079516 11.566407 4.603516 3.836 3.434 5.907546 8.539359 6.685546 16.443359.209 2.184.16811 15.187125-.08789 26.078126-.137 5.506-.330141 12.48856-.369141 13.22656-.024.377-.056265 3.29075-.072265 6.46875-.024 4.383-.007922 6.16414.080078 7.36914.103 1.485.32839 4.0376.40039 4.5586.61 4.357 1.099344 6.46109 2.152344 9.24609.047.137.111047.17672.248047.13672.802-.17 6.461344-.99605 9.527344-1.37305 8.001999-.979 15.079659-1.492 20.722659-1.5h2.64843v-3.7168-3.7246h-1.63671c-5.859-.008-10.64991-.48005-13.62891-1.37305-1.428-.423-1.34092-.35147-1.66992-1.35547-.497-1.564-.83377-3.67531-1.00977-6.44531-.106-1.587-.11376-10.98639-.00976-18.27539.242-17.299003.28265-32.029644.09765-33.931644-.491-4.956-1.48568-8.885406-3.17968-12.441406-4.070005-8.58-11.766755-13.759797-22.593755-15.216797-2.416-.321-3.700047-.389234-6.998047-.365234-3.163.027-4.156515.092219-6.853516.449219-9.589999 1.259999-19.029296 5.278562-25.779296 10.976562l-.970704.822266-.023437-11.179688c-.025-14.174.095578-24.65975.392578-31.71875.185-4.523.370563-7.2125624.851563-12.6015624.161-1.773.282625-3.23418748.265625-3.24218748zm407.527339 46.47070288c-.71321-.007694-1.43604-.00475-2.16992.007813-2.793.052-3.77976.111672-6.25976.388672-8.691.963-18.01791 3.763781-26.00391 7.800781-2.303 1.168-3.54681 1.890875-3.50781 2.046875.041.194 4.47851 27.939625 4.47851 28.015625 0 .036 1.46096.051062 3.25196.039062l3.25-.019531 3.85937-13.507812c2.127-7.424 3.88516-13.575782 3.91016-13.675782.032-.137.30464-.258109 1.55664-.662109 3.227-1.056 6.2835-1.689172 9.4375-1.951172 1.244-.109 4.34387-.108812 5.54687-.007812 3.25.281 6.08425 1.01975 8.53125 2.21875 1.99.976 3.24239 1.887078 4.77539 3.455078 3.516 3.592 5.41 8.47675 6.125 15.71875.152 1.59.10316 10.200765-.08984 18.884765-.361 15.249996-.40786 20.370746-.25586 26.968746.248 10.633.81641 16.21089 2.31641 22.4629.209.875.40378 1.59865.42578 1.59765.025 0 .71501-.10342 1.54101-.23242 6.719-1.068 13.51575-1.82248 20.21875-2.27149 4.236-.281 5.73007-.33795 10.28907-.37695l4.42968-.04883v-3.69922-3.69726l-5.15234-.05078c-2.841-.024-5.30247-.06489-5.48047-.08789-.176-.018-.72294-.06485-1.21094-.08985-2.385-.134-4.76776-.56829-6.50976-1.15429-1.115-.387-1.09203-.36891-1.33203-1.00391-1.316-3.547-2.03931-11.20339-2.32032-24.52539-.07999-4.037-.04717-12.984703.04883-14.720703.023-.354.0801-1.799313.1211-3.195313.047-1.401.09595-3.07675.12695-3.71875.097-2.781.20117-7.746296.20117-10.029296 0-2.748-.08012-4.421657-.32812-6.347657-.939-7.477-3.98213-13.3325-9.07813-17.4375-5.68125-4.58625-14.04403-6.978331-24.74219-7.09375zm-337.14843 2.488281v3.720704 3.720703l3.1289.003906c5.522 0 7.65742.268219 9.60742 1.199219 2.135 1.023 4.14107 3.127047 6.78907 7.123047 3.837 5.787 7.72364 13.524046 13.80664 27.498047 7.006 16.097002 10.97748 25.773062 15.27148 37.164062l1.06836 2.83984-.04883 10.01758c-.089 19.871-.53689 28.9277-1.58789 32.34571-.193.619-.21806.63471-1.41406 1.01171-3.122.994-7.57633 1.38086-16.23633 1.38086l-3.13672.00782v3.68359 3.68359l4.34961-.02343c4.615-.026 5.02302-.03352 13.04102-.35352 12.144-.482 13.54072-.482 25.63672 0 4.534.176 9.90231.33777 12.69531.38477.603.016 2.07277.00904 3.25977-.00196l2.1582-.02343v-3.67579-3.67578l-3.12891-.00781c-5.892 0-9.82467-.18531-12.51367-.57031-1.877-.274-3.65997-.6988-4.54297-1.0918-.394-.168-.42587-.20919-.54687-.61719-1.092-3.748-1.52416-12.94718-1.66016-35.24218l-.07227-10.875-1.4121-3.68555c-5.761-14.959-11.01136-27.982876-14.31836-35.546876-5.706-13.058-8.58782-19.224719-13.25782-28.386719-2.465-4.832-3.10779-5.855312-4.59179-7.320313-3.748-3.724-9.31042-4.683593-27.23243-4.683593zm109.68164.003907c-10.521.004-15.97041.798187-20.44141 2.992187-1.863.916-3.00969 1.728719-4.42969 3.136719-4.166 4.105-7.37784 11.206109-12.71484 28.037109-2.528 7.968-7.75308 25.306876-7.70508 25.546876.016.097 1.10021 2.7675 2.4082 5.9375 1.30101 3.162 2.38402 5.76462 2.41602 5.76562.024 0 .85852-2.15978 1.85352-4.80078 7.472-19.762997 10.87579-28.462731 13.71679-35.052731 7.088-16.441 11.76532-22.050797 19.69532-23.591797 1.927-.373 2.88275-.45286 5.84375-.50586l2.8164-.044921v-3.707032-3.71289z"
        fill="#fff" />
</svg>