<?xml version="1.0" encoding="UTF-8" standalone="no"?>
<!-- Generator: Adobe Illustrator 16.0.0, SVG Export Plug-In . SVG Version: 6.00 Build 0)  -->

<svg
   xmlns:dc="http://purl.org/dc/elements/1.1/"
   xmlns:cc="http://creativecommons.org/ns#"
   xmlns:rdf="http://www.w3.org/1999/02/22-rdf-syntax-ns#"
   xmlns:svg="http://www.w3.org/2000/svg"
   xmlns="http://www.w3.org/2000/svg"
   xmlns:sodipodi="http://sodipodi.sourceforge.net/DTD/sodipodi-0.dtd"
   xmlns:inkscape="http://www.inkscape.org/namespaces/inkscape"
   version="1.1"
   x="0px"
   y="0px"
   width="560px"
   height="560px"
   viewBox="0 0 560 560"
   enable-background="new 0 0 560 560"
   xml:space="preserve"
   id="svg25"
   sodipodi:docname="Logos_Slotmachiin.svg"
   inkscape:version="0.92.3 (2405546, 2018-03-11)"><metadata
   id="metadata31"><rdf:RDF><cc:Work
       rdf:about=""><dc:format>image/svg+xml</dc:format><dc:type
         rdf:resource="http://purl.org/dc/dcmitype/StillImage" /><dc:title></dc:title></cc:Work></rdf:RDF></metadata><defs
   id="defs29">
	

		
		
		
	
			
			
		<clipPath
   clipPathUnits="userSpaceOnUse"
   id="clipPath1008"><path
     d="m 375.54016,125.20168 h 86.56455 v 306.32663 h -86.56455 z m -50.99997,287.98889 h 86.56456 v 21.05563 h -86.56456 z m 50.99999,-287.9889 V 431.52831 H 360.10483 V 125.20167 Z m -50.99999,-2.71787 h 86.56456 v 21.05564 h -86.56456 z m 86.56454,290.70677 h 86.56457 v 21.05563 h -86.56457 z m 50.99999,-287.9889 V 431.52831 H 446.66938 V 125.20167 Z m -50.99999,-2.71787 h 86.56457 v 21.05564 h -86.56457 z"
     style="fill:#fe8f08;fill-opacity:1;stroke:none;stroke-width:8.89726448;stroke-miterlimit:4;stroke-dasharray:none;stroke-opacity:1"
     id="path1010"
     inkscape:connector-curvature="0" /></clipPath><clipPath
   clipPathUnits="userSpaceOnUse"
   id="clipPath1054"><rect
     y="85.128532"
     x="-270.01038"
     height="190.98161"
     width="34.225605"
     id="rect1056"
     style="fill:#666666;fill-opacity:0.60550459;stroke:none;stroke-width:6.05344772;stroke-miterlimit:4;stroke-dasharray:none;stroke-opacity:1" /></clipPath></defs><sodipodi:namedview
   pagecolor="#ffffff"
   bordercolor="#666666"
   borderopacity="1"
   objecttolerance="10"
   gridtolerance="10"
   guidetolerance="10"
   inkscape:pageopacity="0"
   inkscape:pageshadow="2"
   inkscape:window-width="1920"
   inkscape:window-height="1017"
   id="namedview27"
   showgrid="false"
   inkscape:lockguides="true"
   inkscape:zoom="0.84285714"
   inkscape:cx="285.58157"
   inkscape:cy="276.61277"
   inkscape:window-x="0"
   inkscape:window-y="30"
   inkscape:window-maximized="1"
   inkscape:current-layer="svg25" />
<g
   id="Collage">
</g>
<g
   id="Tab">
</g>
<g
   id="Tap">
</g>
<g
   id="Haldis">
</g>
<rect
   x="1"
   y="1"
   width="560"
   height="560"
   id="rect6"
   style="fill:#222222" />
<g
   id="Cammie">
</g>
<g
   id="Gamification">
</g>
<g
   id="Gandalf">
</g>
<g
   id="Blokmap">
</g>
<g
   id="DERP">
</g>
<g
   id="spare_T">
</g>
<g
   id="g896"
   style="stroke:#fe8f08;stroke-opacity:1"
   transform="matrix(0.79161309,0,0,1,65.087801,0)"><g
     style="fill:#fe8f08;fill-opacity:1;stroke:#fe8f08;stroke-opacity:1"
     transform="matrix(1.0005599,0,0,0.98593836,-16.894832,11.660309)"
     id="g873" /><g
     style="fill:#fe8f08;fill-opacity:1;stroke:#fe8f08;stroke-opacity:1"
     id="g886"
     transform="matrix(1.0005599,0,0,0.98593836,-126.24692,11.660309)" /></g><path
   style="fill:#ffffff"
   inkscape:connector-curvature="0"
   id="path8"
   d="m 173.11609,275 c -2.229,-6.91 -21.1,-17.62 -40.58,-24 -13.56,-4.44 -27.42,-6.78 -36.169998,-4.25 -2.58,0.73 -4.71,1.89 -6.26,3.54 -0.22,0.23 -0.42,0.47 -0.61,0.71 -2.18,2.81 -4.21,5.55 -6.1,8.24 -1.69,1.98 -3.3,4.03 -4.811,6.17 -0.64,0.89 -1.26,1.79 -1.859,2.71 -0.42,0.63 -0.82,1.29 -1.221,1.93 -3,4.84 -5.449,10.12 -7.359,15.79 -1.76,5.24 -3.04,10.84 -3.88,16.79 -0.851,5.2 -1.2,10.46 -1.11,15.9 -0.01,0.31 -0.02,0.609 -0.02,0.92 0,4.38 0.3,8.689 0.899,12.93 l 0.275,-0.02 c 1.652,12.14 50.766998,20.46 50.766998,20.46 V 403 h 155 V 275 Z m 21.82,66.36 c 0.6,2.149 1.18,4.31 1.77,6.46 0.75,2.729 1.49,5.46 2.24,8.189 0.89,3.25 1.78,6.561 2.66,9.811 0.28,1.029 0.54,2.18 0.81,3.18 h -26.52 c 0.08,0 0.14,-0.73 0.229,-1.05 1.181,-4.34 2.37,-8.71 3.561,-13.05 1.229,-4.49 2.45,-9 3.68,-13.48 0.08,-0.29 0.07,-0.45 -0.24,-0.61 -2.58,-1.34 -4.55,-3.3 -5.859,-5.92 -1.41,-2.79 -1.71,-5.729 -1.09,-8.76 0.479,-2.33 1.56,-4.38 3.18,-6.14 1.729,-1.87 3.82,-3 6.29,-3.66 0.81,-0.22 1.66,-0.33 2.49,-0.33 h 2.04 c 0.329,0 0.67,-0.05 1,0 3.31,0.52 6.06,1.99 8.199,4.55 2.011,2.42 3.03,5.19 3.061,8.36 0.02,2.67 -0.7,5.1 -2.141,7.33 -1.279,1.979 -3,3.5 -5.109,4.58 -0.271,0.13 -0.331,0.25 -0.251,0.54 z" /><path
   style="fill:#ffffff"
   inkscape:connector-curvature="0"
   id="path10"
   d="m 307.07609,211.87 -62.58,2.75 c -2.68,-15.92 -8.43,-27.38 -17.229,-34.35 -8.811,-6.98 -22.03,-10.47 -39.641,-10.47 -18.189,0 -32.43,3.74 -42.71,11.2 -6.63,4.8 -9.939,11.21 -9.939,19.24 0,7.34 3.1,13.61 9.3,18.82 0.13,0.11 0.27,0.22 0.41,0.33 l -48.319998,27.36 c -2.58,0.73 -4.71,1.89 -6.26,3.54 l -0.79,0.45 c -9.45,-13.57 -14.17,-28.99 -14.17,-46.27 0,-15.78 4.47,-30.55 13.42,-44.29 8.95,-13.74 21.849998,-24.21 38.688998,-31.4 16.841,-7.19 37.181,-10.78 61,-10.78 38.9,0 68.181,8.53 87.851,25.58 19.659,17.06 29.979,39.82 30.969,68.29 z" /><path
   d="m 313.62609,319.27 c -0.72,-3.43 -1.609,-6.729 -2.68,-9.899 -0.11,-0.311 -0.21,-0.62 -0.33,-0.93 -1.85,-5.32 -4.2,-10.28 -7.03,-14.851 -0.399,-0.64 -0.8,-1.27 -1.22,-1.899 -8.12,-12.42 -19.14,-22.291 -33.03,-29.601 -3.859,-2.03 -8.26,-4.04 -13.229,-6.04 -1.97,-0.79 -4.04,-1.58 -6.19,-2.37 -2.45,-0.9 -5.01,-1.79 -7.68,-2.68 -11.41,-3.811 -24.89,-7.55 -40.45,-11.221 -7.79,-1.84 -14.84,-3.659 -21.16,-5.469 -17.949,-5.11 -29.93,-10.09 -35.939,-14.92 0,0 -53.029998,29.25 -54.579998,30.899 l -0.79,0.45 c 0.06,0.09 0.12,0.17 0.18,0.26 0.26,0.37 0.521,0.73 0.8,1.1 3.75,5.19 8.21,10.11 13.390998,14.74 6.76,6.06 16.029,11.65 27.8,16.76 5.14,2.24 10.76,4.37 16.85,6.42 7.86,2.641 16.521,5.141 25.971,7.48 26.069,6.48 42.77,10.99 50.1,13.53 6.73,2.39 12.2,5.05 16.4,7.97 2.479,1.73 4.52,3.54 6.12,5.46 0.3,0.36 0.59,0.72 0.85,1.09 3.12,4.12 4.939,8.9 5.439,14.34 0.11,1.061 0.16,2.16 0.16,3.28 0,11.42 -5.109,21.39 -15.33,29.92 -10.22,8.53 -25.409,12.79 -45.56,12.79 -19.03,0 -34.15,-4.79 -45.35,-14.38 -11.21,-9.58 -18.65,-24.6 -22.311,-45.03 l -60.789998,5.91 -0.1,0.01 c 4.09,34.67 16.63,61.07 37.629998,79.17 21,18.12 51.1,27.171 90.28,27.171 26.92,0 49.399,-3.771 67.449,-11.311 18.04,-7.54 31.99,-19.06 41.86,-34.57 9.86,-15.5 14.8,-32.13 14.8,-49.89 -10e-4,-8.489 -0.771,-16.379 -2.331,-23.689 z"
   id="path14"
   inkscape:connector-curvature="0"
   style="fill:#fe8f08" /><path
   inkscape:connector-curvature="0"
   id="rect964"
   style="fill:#fe8f08;fill-opacity:1;stroke:none;stroke-width:8.89726448;stroke-miterlimit:4;stroke-dasharray:none;stroke-opacity:1"
   d="m 376.73477,125.20168 h 86.56455 V 431.52831 H 376.73477 Z M 325.7348,413.19057 h 86.56456 V 434.2462 H 325.7348 Z m 50.99999,-287.9889 V 431.52831 H 361.29944 V 125.20167 Z M 325.7348,122.4838 h 86.56456 v 21.05564 H 325.7348 Z m 86.56454,290.70677 h 86.56457 v 21.05563 h -86.56457 z m 50.99999,-287.9889 V 431.52831 H 447.86399 V 125.20167 Z m -50.99999,-2.71787 h 86.56457 v 21.05564 h -86.56457 z" /><path
   style="fill:#ffffff;fill-opacity:1;stroke:none;stroke-width:10;stroke-miterlimit:4;stroke-dasharray:none;stroke-opacity:1"
   d="M 237.28813,9.4915241 H 596.77964 L 554.06777,186.27119 269.91525,346.44068 Z"
   id="rect999"
   inkscape:connector-curvature="0"
   sodipodi:nodetypes="ccccc"
   clip-path="url(#clipPath1008)"
   transform="translate(1.194608)" /><path
   style="fill:#222222;fill-opacity:1;stroke:none;stroke-width:10;stroke-miterlimit:4;stroke-dasharray:none;stroke-opacity:1"
   d="m -482.88103,-186.27146 v 646.61133 h 430.677741 v -646.61133 z m 123.4336,20.01368 c 10.15751,-0.0251 22.65527,7.53413 34.95703,18.98632 24.58775,22.89541 48.40724,61.329572 51.2207,86.126962 h 122.38477 V 398.19925 H -346.52751 V 218.12308 c 0,0 -61.99296,-29.85793 -64.07813,-73.42383 l -0.34765,0.0723 c -0.75606,-15.21935 -1.13477,-30.68222 -1.13477,-46.400386 0,-1.11607 0.0128,-2.19027 0.0254,-3.30273 -0.11359,-19.52213 0.32625,-38.397755 1.40039,-57.058595 1.06026,-21.35232 2.67696,-41.4495173 4.89844,-60.253906 2.4108,-20.347491 5.50244,-39.29514 9.28906,-56.664063 0.50614,-2.296722 1.0109,-4.664939 1.54102,-6.925781 0.75607,-3.301535 1.53789,-6.530743 2.3457,-9.724609 1.90719,-7.67964 3.93914,-15.03711 6.07227,-22.14258 2.38556,-9.65339 4.94761,-19.48629 7.69922,-29.57032 0.23982,-0.86126 0.49185,-1.72149 0.76953,-2.54687 1.95642,-5.92123 4.64585,-10.08538 7.90234,-12.70508 3.10621,-2.55353 6.72259,-3.72455 10.69727,-3.73437 z m 108.6582,252.171874 c -0.31624,-0.02522 -0.63582,0.07617 -0.94727,0.07617 h -2.57421 c -1.04763,0 -2.12021,0.39411 -3.14258,1.1836 -3.11765,2.36848 -5.75711,6.42402 -7.93945,13.134756 -2.04478,6.31597 -3.40907,13.67172 -4.01368,22.03321 -0.78255,10.87711 -0.40471,21.42525 1.375,31.4375 1.65223,9.40219 4.14001,16.43539 7.39649,21.24414 0.39124,0.5742 0.40374,1.14874 0.30273,2.18945 -1.55252,16.07703 -3.09524,32.26014 -4.64648,48.37305 -1.50329,15.57462 -3.00347,31.25739 -4.49414,46.83203 -0.11233,1.14834 -0.18806,3.76758 -0.28907,3.76758 h 33.47461 c -0.3408,-3.58863 -0.67001,-7.71746 -1.02343,-11.41016 -1.11075,-11.66304 -2.23406,-23.54597 -3.35743,-35.20898 -0.94666,-9.79335 -1.87951,-19.59338 -2.82617,-29.38672 -0.7447,-7.71553 -1.47704,-15.47165 -2.23437,-23.1836 -0.10097,-1.0407 -0.0257,-1.47099 0.3164,-1.9375 2.662,-3.87573 4.83486,-9.33365 6.44922,-16.43554 1.81883,-8.00264 2.72647,-16.72306 2.70117,-26.30469 -0.0391,-11.37593 -1.32499,-21.31553 -3.86328,-30 -2.69986,-9.186876 -6.17171,-14.462036 -10.34961,-16.328126 -0.10413,-0.04483 -0.20904,-0.06776 -0.31445,-0.07617 z"
   id="rect941"
   inkscape:connector-curvature="0"
   clip-path="url(#clipPath1054)"
   transform="matrix(1.7629942,0,0,1.4145358,858.15631,22.87248)" /></svg>