<?xml version="1.0" encoding="utf-8"?>
<!-- Generator: Adobe Illustrator 16.0.0, SVG Export Plug-In . SVG Version: 6.00 Build 0)  -->
<!DOCTYPE svg PUBLIC "-//W3C//DTD SVG 1.1//EN" "http://www.w3.org/Graphics/SVG/1.1/DTD/svg11.dtd">
<svg version="1.1" xmlns="http://www.w3.org/2000/svg" xmlns:xlink="http://www.w3.org/1999/xlink" x="0px" y="0px" width="560px"
	 height="560px" viewBox="0 0 560 560" enable-background="new 0 0 560 560" xml:space="preserve">
<g id="Collage">
</g>
<g id="Tab">
</g>
<g id="Tap">
</g>
<g id="Haldis">
</g>
<g id="Slotmachien">
	<g>
		<rect x="1" y="1" fill="#222222" width="560" height="560"/>
		<g>
			<path fill="#FFFFFF" d="M275.039,275c-2.229-6.91-21.1-17.62-40.58-24c-13.56-4.44-27.42-6.78-36.17-4.25
				c-2.58,0.73-4.71,1.89-6.26,3.54c-0.22,0.23-0.42,0.47-0.61,0.71c-2.18,2.81-4.21,5.55-6.1,8.24c-1.69,1.98-3.3,4.03-4.811,6.17
				c-0.64,0.89-1.26,1.79-1.859,2.71c-0.42,0.63-0.82,1.29-1.221,1.93c-3,4.84-5.449,10.12-7.359,15.79
				c-1.76,5.24-3.04,10.84-3.88,16.79c-0.851,5.2-1.2,10.46-1.11,15.9c-0.01,0.31-0.02,0.609-0.02,0.92
				c0,4.38,0.3,8.689,0.899,12.93l0.275-0.02C167.885,344.5,217,352.82,217,352.82V403h155V275H275.039z M296.859,341.36
				c0.6,2.149,1.18,4.31,1.77,6.46c0.75,2.729,1.49,5.46,2.24,8.189c0.89,3.25,1.78,6.561,2.66,9.811
				c0.28,1.029,0.54,2.18,0.81,3.18h-26.52c0.08,0,0.14-0.73,0.229-1.05c1.181-4.34,2.37-8.71,3.561-13.05
				c1.229-4.49,2.45-9,3.68-13.48c0.08-0.29,0.07-0.45-0.24-0.61c-2.58-1.34-4.55-3.3-5.859-5.92c-1.41-2.79-1.71-5.729-1.09-8.76
				c0.479-2.33,1.56-4.38,3.18-6.14c1.729-1.87,3.82-3,6.29-3.66c0.81-0.22,1.66-0.33,2.49-0.33h2.04c0.329,0,0.67-0.05,1,0
				c3.31,0.52,6.06,1.99,8.199,4.55c2.011,2.42,3.03,5.19,3.061,8.36c0.02,2.67-0.7,5.1-2.141,7.33c-1.279,1.979-3,3.5-5.109,4.58
				C296.839,340.95,296.779,341.07,296.859,341.36z"/>
			<path fill="#FFFFFF" d="M408.999,211.87l-62.58,2.75c-2.68-15.92-8.43-27.38-17.229-34.35c-8.811-6.98-22.03-10.47-39.641-10.47
				c-18.189,0-32.43,3.74-42.71,11.2c-6.63,4.8-9.939,11.21-9.939,19.24c0,7.34,3.1,13.61,9.3,18.82c0.13,0.11,0.27,0.22,0.41,0.33
				l-48.32,27.36c-2.58,0.73-4.71,1.89-6.26,3.54l-0.79,0.45c-9.45-13.57-14.17-28.99-14.17-46.27c0-15.78,4.47-30.55,13.42-44.29
				c8.95-13.74,21.85-24.21,38.689-31.4c16.841-7.19,37.181-10.78,61-10.78c38.9,0,68.181,8.53,87.851,25.58
				C397.689,160.64,408.009,183.4,408.999,211.87z"/>
		</g>
		<path fill="#FE8F08" d="M415.549,319.27c-0.72-3.43-1.609-6.729-2.68-9.899c-0.11-0.311-0.21-0.62-0.33-0.93
			c-1.85-5.32-4.2-10.28-7.03-14.851c-0.399-0.64-0.8-1.27-1.22-1.899c-8.12-12.42-19.14-22.291-33.03-29.601
			c-3.859-2.03-8.26-4.04-13.229-6.04c-1.97-0.79-4.04-1.58-6.19-2.37c-2.45-0.9-5.01-1.79-7.68-2.68
			c-11.41-3.811-24.89-7.55-40.45-11.221c-7.79-1.84-14.84-3.659-21.16-5.469c-17.949-5.11-29.93-10.09-35.939-14.92
			c0,0-53.03,29.25-54.58,30.899l-0.79,0.45c0.06,0.09,0.12,0.17,0.18,0.26c0.26,0.37,0.521,0.73,0.8,1.1
			c3.75,5.19,8.21,10.11,13.391,14.74c6.76,6.06,16.029,11.65,27.8,16.76c5.14,2.24,10.76,4.37,16.85,6.42
			c7.86,2.641,16.521,5.141,25.971,7.48c26.069,6.48,42.77,10.99,50.1,13.53c6.73,2.39,12.2,5.05,16.4,7.97
			c2.479,1.73,4.52,3.54,6.12,5.46c0.3,0.36,0.59,0.72,0.85,1.09c3.12,4.12,4.939,8.9,5.439,14.34c0.11,1.061,0.16,2.16,0.16,3.28
			c0,11.42-5.109,21.39-15.33,29.92c-10.22,8.53-25.409,12.79-45.56,12.79c-19.03,0-34.15-4.79-45.35-14.38
			c-11.21-9.58-18.65-24.6-22.311-45.03l-60.79,5.91l-0.1,0.01c4.09,34.67,16.63,61.07,37.63,79.17
			c21,18.12,51.1,27.171,90.28,27.171c26.92,0,49.399-3.771,67.449-11.311c18.04-7.54,31.99-19.06,41.86-34.57
			c9.86-15.5,14.8-32.13,14.8-49.89C417.879,334.47,417.109,326.58,415.549,319.27z"/>
	</g>
</g>
<g id="Cammie">
</g>
<g id="Gamification">
</g>
<g id="Gandalf">
</g>
<g id="Blokmap">
</g>
<g id="DERP">
</g>
<g id="spare_T">
</g>
</svg>
