<?xml version="1.0" encoding="UTF-8" standalone="no"?>
<svg xmlns:rdf="http://www.w3.org/1999/02/22-rdf-syntax-ns#" xmlns="http://www.w3.org/2000/svg" enable-background="new 0 0 561 560.047" xml:space="preserve" height="560.047px" width="561px" version="1.1" y="0px" x="0px" xmlns:cc="http://creativecommons.org/ns#" xmlns:dc="http://purl.org/dc/elements/1.1/" viewBox="0 0 561 560.047">
	<path d="m236.766 137.555c-6.13506 0-11.6872 2.39224-15.791 6.29297l-0.0879-0.0879-75.6055 75.5762 205.42 205.275 75.5195-75.5176-0.0586-0.0586c3.90073-4.10381 6.29297-9.65596 6.29297-15.791v-172.783c0-12.6902-10.2161-22.9062-22.9062-22.9062h-172.783z" fill-rule="evenodd" fill="#242424"/>
	<g>
		<path d="m163 212h170c13.85 0 25 11.15 25 25v170c0 13.85-11.15 25-25 25h-170c-13.85 0-25-11.15-25-25v-170c0-13.85 11.15-25 25-25z" fill="#fe8f08"/>
		<path d="m313.012 305.194c0 35.97-65.127 127.649-65.127 127.649s-65.127-91.68-65.127-127.649c0-35.968 29.158-65.126 65.127-65.126 35.968 0 65.127 29.159 65.127 65.126z" fill="#fff"/>
		<circle cy="304.761" cx="247.885" r="26.051" fill="#222"/>
	</g>
</svg>
