<?xml version="1.0" encoding="utf-8"?>
<!-- Generator: Adobe Illustrator 16.0.0, SVG Export Plug-In . SVG Version: 6.00 Build 0)  -->
<!DOCTYPE svg PUBLIC "-//W3C//DTD SVG 1.1//EN" "http://www.w3.org/Graphics/SVG/1.1/DTD/svg11.dtd">
<svg version="1.1" xmlns="http://www.w3.org/2000/svg" xmlns:xlink="http://www.w3.org/1999/xlink" x="0px" y="0px" width="560px"
	 height="560px" viewBox="0 0 560 560" enable-background="new 0 0 560 560" xml:space="preserve">
<g id="Collage">
</g>
<g id="Tab">
</g>
<g id="Tap">
</g>
<g id="Haldis">
	<g display="none">
		<circle display="inline" fill-rule="evenodd" clip-rule="evenodd" fill="#222222" cx="206.115" cy="221.829" r="6.371"/>
		<circle display="inline" fill-rule="evenodd" clip-rule="evenodd" fill="#222222" cx="206.115" cy="251.228" r="6.371"/>
		<circle display="inline" fill-rule="evenodd" clip-rule="evenodd" fill="#222222" cx="206.115" cy="280.626" r="6.371"/>
		
			<line display="inline" fill="none" stroke="#222222" stroke-width="3" stroke-miterlimit="10" x1="190.5" y1="205" x2="190.5" y2="301"/>
	</g>
	<rect x="1" y="1" fill="#FE8F08" width="559" height="559"/>
	<g>
		<g>
			<polygon fill="#222222" points="298.797,142.102 325.007,60 235.074,60 261.561,141.43 215.32,437.385 279.88,495.674 
				345.68,437.188 			"/>
			<g>
				<g>
					<path fill="#FFFFFF" d="M244.4,434.389v-88.873h11.762v36.495h46.193v-36.495h11.761v88.873h-11.761v-41.89h-46.193v41.89
						H244.4z"/>
				</g>
			</g>
		</g>
		<g>
			<g>
				<polygon fill="#FFFFFF" points="126.111,1 264.797,61.109 227.545,163.597 				"/>
			</g>
			<g>
				<polygon fill="#FFFFFF" points="434.889,1 296.203,61.109 333.455,163.597 				"/>
			</g>
		</g>
	</g>
</g>
<g id="Slotmachien">
</g>
<g id="Cammie">
</g>
<g id="Gamification">
</g>
<g id="Gandalf">
</g>
<g id="Blokmap">
</g>
<g id="DERP">
</g>
<g id="spare_T">
</g>
</svg>
