<?xml version="1.0" encoding="utf-8"?>
<!-- Generator: Adobe Illustrator 16.0.0, SVG Export Plug-In . SVG Version: 6.00 Build 0)  -->
<!DOCTYPE svg PUBLIC "-//W3C//DTD SVG 1.1//EN" "http://www.w3.org/Graphics/SVG/1.1/DTD/svg11.dtd">
<svg version="1.1" xmlns="http://www.w3.org/2000/svg" xmlns:xlink="http://www.w3.org/1999/xlink" x="0px" y="0px" width="560px"
	 height="560px" viewBox="0 0 560 560" enable-background="new 0 0 560 560" xml:space="preserve">
<g id="Collage">
</g>
<g id="Tab">
</g>
<g id="Tap">
</g>
<g id="Haldis">
</g>
<g id="Slotmachien">
</g>
<g id="Cammie">
	<g>
		<rect y="1" fill="#222222" width="560" height="560"/>
		<ellipse fill="#FFFFFF" cx="270.779" cy="276.844" rx="123.5" ry="121.5"/>
		<g>
			<path fill="#FFFFFF" d="M422.929,271.363c0,22.5-2.819,42.811-8.47,60.91l-60.21-19.09c-5.22,22.7,4.19-7.28,4.19-46.47
				c0-19.24-1.94-35.71-5.83-49.41l60.41-14.44C419.629,222.844,422.929,245.674,422.929,271.363z"/>
		</g>
		<g>
			<path fill="#FE8F08" d="M413.459,332.273l-60.21-19.09c-5.22,22.7-13.81,39.33-25.79,49.9
				c-11.99,10.569-26.29,15.859-42.92,15.859c-22.561,0-40.881-8.319-54.971-24.949c-8.75-10.32-14.779-24.98-18.109-43.99
				c-2.03-11.62-3.04-24.86-3.04-39.74c0-36.92,7.159-63.64,21.46-80.13c14.311-16.49,32.949-24.74,55.93-24.74
				c16.631,0,30.76,4.66,42.391,13.96c5.01,4,9.27,8.63,12.81,13.891c0.05,0.09,0.11,0.17,0.17,0.26c0.341,0.51,0.67,1.03,0.99,1.56
				c1.51,2.42,2.87,4.96,4.08,7.63c0.1,0.221,0.19,0.431,0.29,0.641c1.92,4.37,3.449,9.06,4.6,14.08l0.471-0.11l60.41-14.44
				l1.059-0.25c-7.049-24.81-17.619-43.84-31.709-57.09c-14.15-13.39-30.85-22.79-50.09-28.17c-12.951-3.64-27.041-5.45-42.301-5.45
				c-43.42,0-78.439,14.28-105.08,42.82c-11.899,12.75-21.14,27.8-27.72,45.15c-8.159,21.489-12.239,46.5-12.239,75.04
				c0,44.18,10.869,79.89,32.619,107.12c0.01,0.02,0.03,0.05,0.051,0.069c2.239,2.811,4.6,5.521,7.08,8.15
				c7.629,8.1,15.879,15.04,24.729,20.8c21.86,14.25,47.45,21.38,76.75,21.38c33.271,0,60.71-8.21,82.351-24.63
				c21.639-16.42,37.109-41.55,46.409-75.38L413.459,332.273z"/>
		</g>
		<path fill="#222222" d="M322.77,271.634c0,7.91-0.541,14.96-1.601,21.18c-0.021,0.17-0.05,0.33-0.08,0.5
			c-0.91,5.19-2.19,9.79-3.84,13.79c-0.21,0.5-0.421,0.99-0.64,1.471c-0.19,0.42-0.381,0.84-0.58,1.239
			c-1.4,2.851-3.01,5.351-4.84,7.511c-7.431,8.77-17.061,13.3-28.801,13.609c-0.04-0.01-0.08,0-0.109,0
			c-0.851-0.03-1.681-0.07-2.5-0.14c-10.601-0.84-19.351-5.33-26.24-13.47c-4.78-5.631-8.07-13.631-9.881-24.011
			c-1.109-6.34-1.659-13.56-1.659-21.68c0-20.16,3.899-34.74,11.71-43.74c6.859-7.91,15.55-12.34,26.07-13.3
			c0.84-0.08,1.689-0.13,2.56-0.16c11.681,0.43,21.31,4.92,28.72,13.46c4.391,5.061,7.551,11.891,9.471,20.49
			c0,0.02,0.01,0.04,0.01,0.07C322.029,255.113,322.77,262.844,322.77,271.634z"/>
	</g>
</g>
<g id="Gamification">
</g>
<g id="Gandalf">
</g>
<g id="Blokmap">
</g>
<g id="DERP">
</g>
<g id="spare_T">
</g>
</svg>
