<?xml version="1.0" encoding="utf-8"?>
<!-- Generator: Adobe Illustrator 16.0.0, SVG Export Plug-In . SVG Version: 6.00 Build 0)  -->
<!DOCTYPE svg PUBLIC "-//W3C//DTD SVG 1.1//EN" "http://www.w3.org/Graphics/SVG/1.1/DTD/svg11.dtd">
<svg version="1.1" xmlns="http://www.w3.org/2000/svg" xmlns:xlink="http://www.w3.org/1999/xlink" x="0px" y="0px" width="560px"
	 height="560px" viewBox="0 0 560 560" enable-background="new 0 0 560 560" xml:space="preserve">
<g id="Collage">
</g>
<g id="Tab">
</g>
<g id="Tap">
</g>
<g id="Haldis">
</g>
<g id="Slotmachien">
</g>
<g id="Cammie">
</g>
<g id="Gamification">
	<g>
		<rect fill="#FE8F08" width="560" height="560"/>
		<path fill-rule="evenodd" clip-rule="evenodd" fill="#252424" d="M179,270.82C179,266,209,168,209,168l71-41l89,40l49.17,34.69
			L418,260c0,0-46,131-52,132s-129,16-129,16l-91-101L179,270.82z"/>
		<polyline fill="#252424" points="123,506.717 195.463,364 303.544,384.879 218.799,547 200.376,486.818 		"/>
		<polygon fill="#252424" points="275.258,417.623 350.476,550.595 369.992,474.921 439.435,494.54 368.694,359.479 		"/>
		<g>
			<path fill="#FFFFFF" d="M287,260v52h69v39.17c-8,6.39-14.9,11.95-25.98,16.68c-1.64,0.69-3.289,1.37-4.979,2.03
				c-5.021,1.96-10.04,3.54-15.04,4.75c-8.15,1.97-16.28,2.96-24.4,2.96c-10.3,0-19.84-1.39-28.6-4.18
				c-7.189-2.26-13.85-5.47-20-9.62c-5.66-3.8-10.891-8.4-15.67-13.79c-16.35-18.39-24.53-45.98-24.53-82.77
				c0-34.11,8.07-59.83,24.21-77.171c4.83-5.189,10.16-9.6,15.99-13.229c6.109-3.82,12.779-6.78,20-8.87
				c5.359-1.58,11.029-2.67,17-3.29c3.939-0.41,8.03-0.62,12.24-0.62c2.649,0,5.24,0.101,7.76,0.28c5.66,0.43,10.99,1.34,16,2.729
				c7.37,2.04,14.04,5.12,20,9.24c0.47,0.311,0.93,0.641,1.38,0.97c12.05,8.811,20.26,20.82,24.63,36.051L387,207.52l19-3.55
				l12.17-2.279c-6.21-28.471-20.13-50.78-41.76-66.921c-21.641-16.14-51.69-24.21-90.17-24.21c-29.6,0-54.34,5.15-74.211,15.44
				c-26.079,13.39-45.879,32.63-59.409,57.72c-13.54,25.09-20.3,53.771-20.3,86.05c0,29.74,6.06,57.261,18.18,82.561
				s30.24,44.75,54.34,58.35c24.1,13.61,52.36,20.4,84.78,20.4c25.51,0,50.62-4.82,75.5-14.48C389.99,406.95,405,395.78,418,383.09
				V260H287z"/>
		</g>
	</g>
</g>
<g id="Gandalf">
</g>
<g id="Blokmap">
</g>
<g id="DERP">
</g>
<g id="spare_T">
</g>
</svg>
