<?xml version="1.0" encoding="utf-8"?>
<!-- Generator: Adobe Illustrator 16.0.0, SVG Export Plug-In . SVG Version: 6.00 Build 0)  -->
<!DOCTYPE svg PUBLIC "-//W3C//DTD SVG 1.1//EN" "http://www.w3.org/Graphics/SVG/1.1/DTD/svg11.dtd">
<svg version="1.1" xmlns="http://www.w3.org/2000/svg" xmlns:xlink="http://www.w3.org/1999/xlink" x="0px" y="0px" width="560px"
	 height="560px" viewBox="0 0 560 560" enable-background="new 0 0 560 560" xml:space="preserve">
<g id="Collage">
</g>
<g id="Tab">
	<g>
		<rect fill="#FE8F08" width="560" height="560"/>
		<g>
			<polygon fill="#FFFFFF" points="311.979,428 311.979,428 281.063,481.463 270.746,463.625 265.369,454.334 252.308,431.793 
				250.002,427.8 			"/>
			<path fill="#222222" d="M291.466,463.437l-10.405,17.978l-10.319-17.815c2.572-2.8,6.298-4.564,10.438-4.564
				C285.234,459.034,288.895,460.723,291.466,463.437z"/>
			<g>
				<path display="none" fill="#222222" d="M312.322,428l-3.587,5.997c-2.273,1.826-5.158,2.72-8.295,2.72
					c-3.715,0-7.06-1.602-9.476-4.05c-2.415,2.448-5.771,3.921-9.476,3.921c-3.716,0-7.06-1.532-9.487-3.98
					c-2.416,2.448-5.77,3.945-9.476,3.945c-4.098,0-7.771-1.854-10.219-4.76l-2.306-3.993c-0.055-0.165-0.12,0.046-0.176-0.129
					c0-0.012-0.01,0.329-0.01,0.329H312.322z"/>
				<g>
					<path fill="#222222" d="M158,119v52h92v257h62V171h92v-52H158z"/>
				</g>
			</g>
		</g>
	</g>
</g>
<g id="Tap">
</g>
<g id="Haldis">
</g>
<g id="Slotmachien">
</g>
<g id="Cammie">
</g>
<g id="Gamification">
</g>
<g id="Gandalf">
</g>
<g id="Blokmap">
</g>
<g id="DERP">
</g>
<g id="spare_T">
</g>
</svg>
