<?xml version="1.0" encoding="UTF-8" standalone="no"?>
<!-- Generator: Adobe Illustrator 16.0.0, SVG Export Plug-In . SVG Version: 6.00 Build 0)  -->

<svg
   xmlns:dc="http://purl.org/dc/elements/1.1/"
   xmlns:cc="http://creativecommons.org/ns#"
   xmlns:rdf="http://www.w3.org/1999/02/22-rdf-syntax-ns#"
   xmlns:svg="http://www.w3.org/2000/svg"
   xmlns="http://www.w3.org/2000/svg"
   xmlns:sodipodi="http://sodipodi.sourceforge.net/DTD/sodipodi-0.dtd"
   xmlns:inkscape="http://www.inkscape.org/namespaces/inkscape"
   version="1.1"
   x="0px"
   y="0px"
   width="560px"
   height="560px"
   viewBox="0 0 560 560"
   enable-background="new 0 0 560 560"
   xml:space="preserve"
   id="svg4377"
   sodipodi:docname="logo_tappb.svg"
   inkscape:version="0.92.4 5da689c313, 2019-01-14"><metadata
   id="metadata4383"><rdf:RDF><cc:Work
       rdf:about=""><dc:format>image/svg+xml</dc:format><dc:type
         rdf:resource="http://purl.org/dc/dcmitype/StillImage" /><dc:title></dc:title></cc:Work></rdf:RDF></metadata><defs
   id="defs4381">
	

		
		
	
			
		
				
			
					
					
				
	

		
		
	</defs><sodipodi:namedview
   pagecolor="#ffffff"
   bordercolor="#666666"
   borderopacity="1"
   objecttolerance="10"
   gridtolerance="10"
   guidetolerance="10"
   inkscape:pageopacity="0"
   inkscape:pageshadow="2"
   inkscape:window-width="1916"
   inkscape:window-height="1041"
   id="namedview4379"
   showgrid="false"
   showguides="true"
   inkscape:guide-bbox="true"
   inkscape:zoom="1.0290929"
   inkscape:cx="441.3"
   inkscape:cy="286.78469"
   inkscape:window-x="0"
   inkscape:window-y="18"
   inkscape:window-maximized="0"
   inkscape:current-layer="svg4377"><sodipodi:guide
     position="250.94916,460.11395"
     orientation="0,1"
     id="guide4585"
     inkscape:locked="false" /></sodipodi:namedview>
<g
   id="Collage">
</g>
<rect
   width="560"
   height="560"
   id="rect4349"
   x="0"
   y="0"
   style="fill:#fe8f08" /><g
   id="g4581"
   transform="translate(7.2879675,-13.604215)"><g
     transform="translate(-152.4415,-7.5990152)"
     id="g4363">
			<polygon
   style="fill:#ffffff"
   id="polygon4351"
   points="311.979,428 281.063,481.463 270.746,463.625 265.369,454.334 252.308,431.793 250.002,427.8 " />
			<path
   style="fill:#222222"
   inkscape:connector-curvature="0"
   id="path4353"
   d="M 291.466,463.437 281.061,481.415 270.742,463.6 c 2.572,-2.8 6.298,-4.564 10.438,-4.564 4.054,-0.002 7.715,1.687 10.286,4.401 z" />
			<g
   id="g4361">
				<path
   style="display:none;fill:#222222"
   inkscape:connector-curvature="0"
   id="path4355"
   d="m 312.322,428 -3.587,5.997 c -2.273,1.826 -5.158,2.72 -8.295,2.72 -3.715,0 -7.06,-1.602 -9.476,-4.05 -2.415,2.448 -5.771,3.921 -9.476,3.921 -3.716,0 -7.06,-1.532 -9.487,-3.98 -2.416,2.448 -5.77,3.945 -9.476,3.945 -4.098,0 -7.771,-1.854 -10.219,-4.76 L 250,427.8 c -0.055,-0.165 -0.12,0.046 -0.176,-0.129 0,-0.012 -0.01,0.329 -0.01,0.329 z"
   display="none" />
				<g
   id="g4359">
					<path
   style="fill:#222222"
   inkscape:connector-curvature="0"
   id="path4357"
   d="m 158,120.94346 v 52 h 92 v 257 h 62 v -257 h 92 v -52 z" />
				</g>
			</g>
		</g></g>
<g
   id="Tap">
</g>
<g
   id="Haldis">
</g>
<g
   id="Slotmachien">
</g>
<g
   id="Cammie">
</g>
<g
   id="Gamification">
</g>
<g
   id="Gandalf">
</g>
<g
   id="Blokmap">
</g>
<g
   id="DERP">
</g>
<g
   id="spare_T">
</g>
<g
   id="Collage-3"
   transform="translate(613.62577,81.110432)">
</g><g
   id="Tab-6"
   transform="translate(613.62577,81.110432)">
</g><g
   id="g4555"
   transform="translate(-460.85257,-6.86658)"><g
     id="g4550"><path
       id="path4460"
       d="m 895.90614,277.54258 c -6.81,6.49 -14.01,12.92 -22.38,20.66 7.38,6.72 14.56,13 21.45,19.6 8.51,8.181 8.36,11.07 -0.03,19.69 -6.69,6.87 -13.31,13.8 -20.89,21.66 6.21,6.529 12.75,13.399 19.32,20.25 8.45,8.84 8.45,10.55 -0.46,18.439 -6.77,5.99 -13.6,11.9 -20.63,18.021 -1.52,1.319 -3.05,2.649 -4.59,4 1.9,3.37 3.6,6.41 5.3,9.45 -0.23,0.369 -0.44,0.77 -0.68,1.149 -4.11,-2.67 -8.6,-4.939 -12.1,-8.26 -0.89,-0.84 -0.43,-4.22 0.6,-6.34 0.19,-0.41 0.41,-0.76 0.64,-1.05 6.88,-8.511 14.28,-16.631 21.96,-25.42 -8.31,-7.931 -16.28,-15.421 -24.11,-23.04 -6.75,-6.551 -6.69,-9.61 -0.02,-16.48 7.06,-7.229 14.11,-14.479 22.56,-23.18 -8.04,-7.4 -15.64,-14.09 -22.87,-21.17 -2.83,-2.78 -4.47,-4.95 -4.97,-7.03 v -2.78 c 0.51,-2.149 2.16,-4.46 4.92,-7.5 3.2,-3.52 6.39,-7.05 9.63,-10.67 3.12,-3.45 6.29,-6.979 9.59,-10.65 -7.59,-7 -14.88,-13.61 -22.06,-20.33 -0.76,-0.71 -1.45,-1.41 -2.08,-2.1 -5.68,-6.22 -6.16,-11.84 0,-17.67 0.41,-0.39 0.85,-0.78 1.32,-1.17 14.55,-12.12 18.48,-26.85 17.13,-45.07 -1.4,-18.639 -18.45,-21.889 -18.45,-21.889 h 55.87 c -3.95,0.42 -8.4,2.33 -10.67,9.71 0.48,12.08 -0.22,24.2 0.36,36.29 0.48,9.62 -2.29,17.13 -10.19,22.84 -3.3,2.4 -6.09,5.5 -9.76,8.89 6.61,7.26 13.07,14.27 19.42,21.35 5.85,6.51 5.92,10.979 -0.33,17.09 -0.92,0.91 -1.86,1.8 -2.8,2.71 z"
       inkscape:connector-curvature="0"
       style="fill:#ffffff" /></g><path
     style="fill:#222222;fill-opacity:1"
     inkscape:connector-curvature="0"
     d="m 1008.0061,106.66258 v 52 c 0,0 -1.46,0 -4,-0.01 -17.27996,-0.03 -84.74996,-0.13 -87.99996,0.01 -0.24,0.01 -0.5,0.01 -0.78,0 -1.41,-0.03 -3.31,-0.21 -5.35,0 h -147.87 v -52 z"
     id="path4462" /></g><g
   id="Haldis-5"
   transform="translate(613.62577,81.110432)">
</g><g
   id="Slotmachien-3"
   transform="translate(613.62577,81.110432)">
</g><g
   id="Cammie-5"
   transform="translate(613.62577,81.110432)">
</g><g
   id="Gamification-6"
   transform="translate(613.62577,81.110432)">
</g><g
   id="Gandalf-2"
   transform="translate(613.62577,81.110432)">
</g><g
   id="Blokmap-9"
   transform="translate(613.62577,81.110432)">
</g><g
   id="DERP-1"
   transform="translate(613.62577,81.110432)">
</g><g
   id="spare_T-2"
   transform="translate(613.62577,81.110432)">
</g></svg>