<?xml version="1.0" encoding="utf-8"?>
<!-- Generator: Adobe Illustrator 16.0.0, SVG Export Plug-In . SVG Version: 6.00 Build 0)  -->
<!DOCTYPE svg PUBLIC "-//W3C//DTD SVG 1.1//EN" "http://www.w3.org/Graphics/SVG/1.1/DTD/svg11.dtd">
<svg version="1.1" xmlns="http://www.w3.org/2000/svg" xmlns:xlink="http://www.w3.org/1999/xlink" x="0px" y="0px" width="560px"
	 height="560px" viewBox="0 0 560 560" enable-background="new 0 0 560 560" xml:space="preserve">
<g id="Collage">
</g>
<g id="Tab">
</g>
<g id="Tap">
</g>
<g id="Haldis">
</g>
<g id="Slotmachien">
</g>
<g id="Cammie">
</g>
<g id="Gamification">
</g>
<g id="Gandalf">
	<g>
		<rect fill="#252424" width="560" height="560"/>
		<g>
			<polygon fill="#FFFFFF" points="276.5,215 127.851,215 202.178,179.141 276.5,143.433 350.825,179.217 425.149,215 			"/>
			<rect x="128" y="407" fill="#FFFFFF" width="297" height="18"/>
			<rect x="145" y="227" fill="#FFFFFF" width="262" height="12"/>
			<g>
				<rect x="186" y="251" fill="#FFFFFF" width="9" height="122"/>
				<rect x="208" y="251" fill="#FFFFFF" width="18" height="122"/>
				<rect x="247" y="251" fill="#FFFFFF" width="9" height="122"/>
				<rect x="281" y="251" fill="#FFFFFF" width="18" height="122"/>
				<rect x="320" y="251" fill="#FFFFFF" width="9" height="122"/>
				<rect x="359" y="251" fill="#FFFFFF" width="18" height="122"/>
				<rect x="340" y="251" fill="#FFFFFF" width="9" height="122"/>
				<rect x="162" y="251" fill="#FFFFFF" width="8" height="122"/>
				<rect x="383" y="251" fill="#FFFFFF" width="8" height="122"/>
			</g>
			<text transform="matrix(1 0 0 1 158.6328 395)" fill="#FFFFFF" font-family="'ArialMT'" font-size="16">3 4 2 1 6  4  2  5   5  3 21 22 4 12</text>
		</g>
		<g>
			<g>
				<g>
					<path opacity="0.1091" fill="#FF3318" d="M81.186,343.966c5.453-0.363,10.91-0.61,16.369-0.877
						c6.713-0.328,13.417-0.793,20.127-1.197c11.043-0.665,22.094-1.116,33.136-1.764c51.779-3.041,103.564-5.948,155.347-8.879
						c75.173-4.255,150.341-8.638,225.525-12.63c2.743-0.146-3.147-4.092-2.782-3.827c-2.319-1.672-4.684-3.28-7.092-4.823
						c-1.207-0.941-2.538-1.625-3.989-2.053c-5.545,0.139-11.098,0.373-16.64,0.584c-6.724,0.255-13.417,0.624-20.116,1.265
						c-11.117,1.063-22.301,1.386-33.454,1.957c-51.603,2.644-103.188,5.597-154.776,8.514
						c-51.906,2.937-103.818,5.862-155.706,9.122c-8.889,0.558-17.73,0.995-26.638,1.076c-3.932,0.269-7.859,0.537-11.79,0.806
						c-3.438,0.266-6.876,0.531-10.314,0.797c-6.69,0.519-13.307,0.323-19.981-0.151c-2.773-0.197,2.805,4.458,2.4,4.098
						c2.148,1.904,4.349,3.747,6.597,5.531C78.52,342.574,79.779,343.392,81.186,343.966z"/>
					<path opacity="0.1091" fill="#FF3318" d="M82.468,355.484c1.517,0.028,3.031,0.055,4.545,0.081
						c4.229,0.073,8.435-0.661,12.662-0.911c17.767-1.048,35.541-1.973,53.313-2.976c51.729-2.922,103.456-5.85,155.187-8.774
						c75.242-4.255,150.484-8.507,225.728-12.761c1.921-0.109-0.308-2.644-0.614-3.011c-1.091-1.286-2.237-2.52-3.441-3.698
						c-0.578-0.749-1.309-1.266-2.187-1.549c-75.243,4.255-150.482,8.508-225.726,12.762c-51.729,2.924-103.459,5.849-155.188,8.773
						c-16.222,0.918-32.44,1.989-48.676,2.633c-2.954,0.193-5.91,0.388-8.864,0.581c-2.031,0.382-4.061,0.763-6.093,1.145
						c-1.528-0.292-3.059-0.584-4.587-0.876c-0.889-0.169-1.777-0.339-2.666-0.51c-2.162-0.411,0.754,3.28,0.684,3.196
						c1.152,1.424,2.361,2.797,3.633,4.117C80.779,354.527,81.543,355.119,82.468,355.484z"/>
					<path opacity="0.1091" fill="#FF3318" d="M74.75,336.821c1.351-0.153,2.699-0.303,4.047-0.455
						c4.05-0.454,8.152-0.351,12.225-0.497c6.674-0.241,13.334-0.664,20-1.072c11.04-0.677,22.09-1.114,33.136-1.733
						c51.79-2.903,103.572-5.993,155.365-8.928c51.683-2.929,103.365-5.842,155.054-8.67c16.354-0.894,32.697-1.868,49.047-2.872
						c7.142-0.439,14.301-0.624,21.442-1.076c-0.194-0.341-0.385-0.682-0.576-1.021c-2.397-2.175-4.969-4.121-7.718-5.841
						c-5.104-3.523-10.253-6.98-15.443-10.371c-2.633-1.896-5.409-3.54-8.327-4.934c-1.21-0.188-2.295-0.155-3.516-0.133
						c-3.44,0.063-6.879,0.089-10.319,0.105c-6.065,0.026-12.119,0.606-18.162,1.072c-4.122,0.468-8.247,0.936-12.371,1.403
						c-2.074,0.079-4.147,0.158-6.221,0.235c-4.498,0.179-8.996,0.367-13.495,0.568c-50.672,2.185-101.319,5.135-151.955,7.993
						c-52.74,2.974-105.466,6.093-158.17,9.622c-9.445,0.632-18.849,1.134-28.316,1.108c-9.278-0.023-18.541,0.999-27.807,1.559
						c-4.396,0.265-8.86-0.325-13.21-0.888c-1.76-0.227-3.775,0.098-5.566,0.145c0.479,1.378,1.37,2.474,2.674,3.284
						c3.945,3.398,7.961,6.712,12.047,9.939c4.048,3.276,8.164,6.467,12.344,9.568C72.037,336.027,73.302,336.656,74.75,336.821z"/>
					<path opacity="0.1091" fill="#FF3318" d="M75.174,342.509c5.45-0.408,10.887-0.595,16.352-0.809
						c6.685-0.263,13.361-0.699,20.039-1.11c11.025-0.677,22.064-1.105,33.094-1.731c51.801-2.937,103.598-5.988,155.401-8.923
						c51.672-2.928,103.349-5.841,155.028-8.67c16.363-0.896,32.717-1.899,49.077-2.878c7.126-0.426,14.263-0.64,21.388-1.064
						c-0.279-1.191-0.975-2.13-2.088-2.816c-3.208-2.807-6.485-5.531-9.835-8.169c-3.311-2.687-6.688-5.287-10.132-7.8
						c-0.913-0.933-1.984-1.404-3.208-1.417c-1.388-0.11-2.868,0.046-4.255,0.076c-4.036,0.09-8.069,0.067-12.103,0.201
						c-6.818,0.223-13.587,0.765-20.363,1.544c-11.073,1.275-22.259,1.39-33.393,1.899c-51.544,2.362-103.063,5.341-154.579,8.263
						c-52.018,2.95-104.021,6.108-156.012,9.499c-8.783,0.573-17.506,0.713-26.303,0.653c-3.97,0.315-7.939,0.632-11.909,0.948
						c-3.41,0.232-6.823,0.467-10.234,0.699c-4.326,0.296-8.678-0.155-12.966-0.671c-1.863-0.225-3.823-0.139-5.705-0.207
						c0.144,1.203,0.728,2.201,1.749,2.993c2.856,3.095,5.791,6.111,8.806,9.053c2.971,2.986,6.019,5.891,9.141,8.716
						C72.964,341.805,73.969,342.377,75.174,342.509z"/>
					<path opacity="0.1091" fill="#FF3318" d="M81.383,341.011c1.796,0.228,3.596,0.439,5.393,0.649
						c1.818,0.389,3.64,0.425,5.467,0.108c2.309-0.224,4.62-0.378,6.934-0.466c17.756-0.966,35.512-1.951,53.261-2.985
						c51.794-3.02,103.592-5.927,155.391-8.858c75.148-4.252,150.298-8.512,225.451-12.65c2.345-0.129-2.112-3.128-1.821-2.938
						c-1.652-1.071-3.347-2.074-5.08-3.011c-0.885-0.629-1.857-0.993-2.914-1.092c-5.562,0.295-11.126,0.484-16.689,0.732
						c-6.702,0.299-13.388,0.621-20.075,1.184c-8.737,0.733-17.489,1.108-26.243,1.569c-50.688,2.667-101.363,5.562-152.041,8.422
						c-52.665,2.975-105.33,5.956-157.987,9.094c-9.583,0.572-19.158,1.214-28.751,1.589c-7.582,0.295-15.133,0.702-22.704,1.232
						c-5.315,0.372-10.633,0.658-15.948,1.003c-3.736,0.244-7.836-1.312-11.454-2.236c-0.596-0.007-0.806,0.274-0.632,0.843
						c0.568,0.995,1.346,1.805,2.334,2.428c1.661,1.34,3.369,2.617,5.124,3.831C79.271,340.23,80.267,340.748,81.383,341.011z"/>
					<path opacity="0.1091" fill="#FF3318" d="M74.174,334.755c5.486-0.368,10.962-0.508,16.457-0.711
						c6.686-0.247,13.356-0.687,20.033-1.101c11.037-0.687,22.085-1.101,33.127-1.727c51.791-2.934,103.578-6,155.372-8.934
						c51.68-2.929,103.362-5.842,155.047-8.665c16.36-0.893,32.704-1.887,49.056-2.883c7.139-0.437,14.289-0.626,21.426-1.058
						c-0.144-0.293-0.287-0.588-0.432-0.883c-1.91-1.724-3.989-3.217-6.242-4.479c-4.149-2.644-8.338-5.219-12.57-7.729
						c-2.143-1.44-4.413-2.623-6.813-3.548c-2.483-0.256-5.174,0.089-7.657,0.147c-3.291,0.077-6.577,0.077-9.868,0.197
						c-6.779,0.247-13.518,0.802-20.261,1.532c-6.411,0.695-12.753,0.95-19.192,1.227c-9.852,0.425-19.704,0.916-29.553,1.402
						c-20.416,1.008-40.823,2.107-61.233,3.212c-42.542,2.301-85.078,4.719-127.611,7.199c-21.78,1.27-43.561,2.58-65.338,3.937
						c-18.426,1.147-36.843,2.644-55.292,3.338c0.329-0.002,0.655-0.004,0.982-0.007c-2.467,0.01-4.934,0.02-7.396,0.03
						c-3.998-0.123-7.984,0.048-11.953,0.511c-5.296,0.417-10.595,0.77-15.893,1.119c0.326,0.001,0.653,0.001,0.979,0.002
						c-3.001-0.021-6.001-0.047-9.002-0.077c0.327,0.006,0.656,0.011,0.982,0.017c-4.097-0.396-8.08-0.568-12.19-0.584
						c0.29,1.148,0.988,2.034,2.09,2.66c3.184,2.59,6.436,5.092,9.755,7.508c3.28,2.465,6.627,4.84,10.034,7.125
						C71.938,334.404,72.989,334.812,74.174,334.755z"/>
					<path opacity="0.1091" fill="#FF3318" d="M77.066,347.221c5.481-0.438,10.948-0.648,16.443-0.877
						c6.68-0.278,13.352-0.707,20.022-1.112c11.037-0.672,22.082-1.127,33.119-1.753c51.796-2.938,103.583-5.971,155.38-8.903
						c51.68-2.926,103.359-5.841,155.044-8.684c16.357-0.9,32.706-1.893,49.059-2.862c7.136-0.423,14.284-0.649,21.417-1.087
						c-0.332-1.323-1.093-2.395-2.281-3.214c-3.487-3.339-7.047-6.596-10.685-9.771c-3.593-3.222-7.261-6.36-10.998-9.415
						c-0.958-1.078-2.115-1.702-3.469-1.872c-1.37-0.135-2.87,0.041-4.238,0.07c-4.024,0.086-8.047,0.051-12.072,0.179
						c-6.831,0.216-13.608,0.76-20.396,1.557c-11.07,1.299-22.26,1.396-33.391,1.902c-51.533,2.342-103.041,5.324-154.543,8.245
						c-52.037,2.95-104.058,6.112-156.066,9.522c-8.764,0.574-17.459,0.717-26.237,0.623c-3.978,0.319-7.956,0.638-11.934,0.956
						c-3.41,0.238-6.823,0.475-10.237,0.712c-4.299,0.299-8.604-0.158-12.855-0.708c-1.844-0.237-3.798-0.145-5.66-0.214
						c0.188,1.34,0.827,2.475,1.918,3.404c3.098,3.645,6.275,7.216,9.539,10.715c3.217,3.54,6.514,7.005,9.889,10.393
						C74.67,346.19,75.749,346.921,77.066,347.221z"/>
					<path opacity="0.1091" fill="#FF3318" d="M77.454,336.443c2.683,0.672,5.661,0.858,8.385,1.266
						c1.074,0.144,2.146,0.08,3.217-0.194c2.242-0.289,4.493-0.472,6.752-0.547c17.747-1.078,35.499-1.981,53.246-3.016
						c51.788-3.021,103.584-5.91,155.377-8.84c75.154-4.251,150.309-8.5,225.465-12.668c0.474-0.14,0.643-0.447,0.51-0.922
						c-0.418-0.74-1.03-1.285-1.835-1.636c-1.307-0.813-2.655-1.555-4.039-2.229c-0.729-0.492-1.515-0.72-2.364-0.68
						c-6.989,0.384-13.982,0.672-20.975,1.007c-9.515,0.456-18.998,1.271-28.51,1.772c-12.063,0.637-24.125,1.303-36.187,1.964
						c-59.699,3.279-119.39,6.671-179.08,10.058c-27.906,1.584-55.813,3.179-83.72,4.79c-13.221,0.764-26.441,1.532-39.66,2.331
						c-10.345,0.625-20.694,0.972-31.037,1.595c-6.22,0.375-12.435,0.837-18.649,1.275c-2.43,0.504-4.857,0.391-7.285-0.34
						c-2.148-0.546-4.297-1.093-6.445-1.639c-0.456-0.122-0.919-0.229-1.384-0.317c-1.115,0.077-0.465,1.274-0.077,1.675
						c1.112,1.001,2.295,1.914,3.543,2.74C74.229,334.949,75.652,335.994,77.454,336.443z"/>
					<path opacity="0.1091" fill="#FF3318" d="M76.197,341.443c1.365-0.162,2.729-0.32,4.095-0.48
						c4.061-0.475,8.183-0.391,12.269-0.551c6.668-0.261,13.329-0.679,19.989-1.083c11.045-0.67,22.101-1.136,33.149-1.756
						c51.787-2.909,103.566-5.972,155.352-8.904c51.688-2.927,103.376-5.842,155.066-8.687c16.35-0.899,32.69-1.864,49.033-2.856
						c7.15-0.434,14.314-0.633,21.463-1.1c-0.635-1.487-1.676-2.668-3.12-3.544c-4.493-3.717-9.055-7.348-13.687-10.891
						c-4.592-3.593-9.251-7.098-13.977-10.514c-1.213-1.178-2.615-1.888-4.216-2.13c-1.263-0.255-2.954,0.02-4.219,0.04
						c-4.062,0.067-8.119,0.041-12.181,0.183c-6.826,0.239-13.607,0.843-20.393,1.631c-11.051,1.281-22.227,1.358-33.338,1.855
						c-51.558,2.302-103.088,5.286-154.615,8.211c-52.01,2.953-103.996,6.212-155.98,9.582c-8.806,0.571-17.559,0.608-26.373,0.58
						c-3.961,0.321-7.922,0.641-11.881,0.962c-3.375,0.207-6.752,0.415-10.126,0.624c-4.338,0.268-8.729-0.336-13.011-0.933
						c-1.771-0.248-3.798,0.055-5.603,0.081c0.498,1.525,1.425,2.782,2.779,3.77c4.127,4.048,8.329,8.015,12.606,11.903
						c4.235,3.934,8.543,7.785,12.925,11.555C73.305,340.26,74.634,341.076,76.197,341.443z"/>
					<path opacity="0.1091" fill="#FF3318" d="M74.957,338.347c5.509-0.099,11.007-0.276,16.513-0.493
						c6.722-0.263,13.429-0.745,20.142-1.164c11.02-0.686,22.055-1.078,33.077-1.72c51.799-3.019,103.601-5.995,155.404-8.929
						c51.672-2.928,103.343-5.839,155.017-8.665c23.486-1.283,46.955-2.739,70.445-3.923c2.896-0.145-3.712-4.376-3.241-4.045
						c-2.602-1.807-5.245-3.547-7.934-5.22c-1.351-1.011-2.826-1.761-4.421-2.255c-5.498,0.019-11.025,0.284-16.521,0.484
						c-6.755,0.246-13.476,0.695-20.2,1.366c-11.108,1.107-22.292,1.379-33.439,1.933c-51.58,2.564-103.144,5.522-154.704,8.439
						c-51.948,2.941-103.894,5.922-155.819,9.242c-8.845,0.564-17.647,0.861-26.509,0.944c-3.95,0.289-7.897,0.578-11.845,0.867
						c-3.438,0.255-6.877,0.511-10.312,0.767c-6.741,0.502-13.39-0.073-20.067-0.869c-2.976-0.355,3.443,4.938,2.826,4.399
						c2.414,2.094,4.881,4.126,7.397,6.097C72.015,336.761,73.41,337.676,74.957,338.347z"/>
					<path opacity="0.1091" fill="#FF3318" d="M81.313,336.97c2.436,0.181,4.866,0.392,7.3,0.587c1.052,0.005,2.092-0.128,3.117-0.4
						c2.3-0.458,4.625-0.703,6.973-0.734c17.791-1.216,35.627-1.995,53.43-3.003c51.729-2.924,103.459-5.848,155.188-8.772
						c75.243-4.256,150.483-8.521,225.729-12.763c0.435-0.152,0.611-0.455,0.529-0.909c-0.308-0.686-0.814-1.19-1.521-1.514
						c-1.473-0.991-3.64-2.683-5.52-2.576c-71.924,4.066-143.851,8.132-215.773,12.198c-52.511,2.97-105.021,5.938-157.53,8.906
						c-17.193,0.972-34.4,2.216-51.611,2.854c-5.4,0.2-11.081,0.202-16.326,1.582c-3.078,0.81-7.048-0.478-10.154-1.011
						c-1.109-0.19-1.963,0.478-0.952,1.515c0.944,0.814,1.952,1.542,3.025,2.18C78.471,335.899,79.796,336.857,81.313,336.97z"/>
					<path opacity="0.1091" fill="#FF3318" d="M74.822,343.809c5.503-0.461,10.983-0.644,16.501-0.865
						c6.674-0.269,13.337-0.696,20.003-1.104c11.039-0.672,22.093-1.128,33.135-1.753c51.791-2.932,103.576-5.973,155.369-8.905
						c51.683-2.928,103.365-5.843,155.053-8.686c16.354-0.898,32.701-1.877,49.05-2.862c7.142-0.43,14.298-0.629,21.438-1.088
						c-0.413-1.394-1.251-2.523-2.517-3.387c-3.778-3.552-7.632-7.021-11.558-10.409c-3.886-3.434-7.842-6.784-11.87-10.051
						c-1.026-1.135-2.259-1.814-3.695-2.039c-1.279-0.235-2.932,0.029-4.207,0.054c-4.048,0.081-8.086,0.059-12.131,0.195
						c-6.832,0.234-13.617,0.812-20.407,1.584c-11.06,1.259-22.234,1.37-33.354,1.876c-51.547,2.348-103.071,5.331-154.588,8.253
						c-52.02,2.949-104.026,6.12-156.019,9.523c-8.786,0.576-17.521,0.663-26.317,0.64c-3.973,0.319-7.945,0.64-11.917,0.961
						c-3.394,0.226-6.79,0.452-10.185,0.68c-4.305,0.287-8.647-0.227-12.908-0.768c-1.838-0.233-3.851-0.024-5.716-0.034
						c0.273,1.413,0.996,2.604,2.164,3.569c3.399,3.843,6.877,7.61,10.437,11.303c3.516,3.735,7.108,7.396,10.779,10.976
						C72.27,342.686,73.424,343.465,74.822,343.809z"/>
				</g>
			</g>
		</g>
	</g>
</g>
<g id="Blokmap">
</g>
<g id="DERP">
</g>
<g id="spare_T">
</g>
</svg>
