<?xml version="1.0" encoding="UTF-8" standalone="no"?>
<!-- Created with Inkscape (http://www.inkscape.org/) -->

<svg
   xmlns:dc="http://purl.org/dc/elements/1.1/"
   xmlns:cc="http://creativecommons.org/ns#"
   xmlns:rdf="http://www.w3.org/1999/02/22-rdf-syntax-ns#"
   xmlns:svg="http://www.w3.org/2000/svg"
   xmlns="http://www.w3.org/2000/svg"
   xmlns:sodipodi="http://sodipodi.sourceforge.net/DTD/sodipodi-0.dtd"
   xmlns:inkscape="http://www.inkscape.org/namespaces/inkscape"
   width="213.64159mm"
   height="183.91913mm"
   viewBox="0 0 213.64159 183.91913"
   version="1.1"
   id="svg8"
   inkscape:version="0.92.3 (2405546, 2018-03-11)"
   sodipodi:docname="VoorRobbeGay2.svg">
  <defs
     id="defs2" />
  <sodipodi:namedview
     id="base"
     pagecolor="#ffffff"
     bordercolor="#666666"
     borderopacity="1.0"
     inkscape:pageopacity="0.0"
     inkscape:pageshadow="2"
     inkscape:zoom="0.7"
     inkscape:cx="308.44099"
     inkscape:cy="382.74421"
     inkscape:document-units="mm"
     inkscape:current-layer="layer1"
     showgrid="false"
     inkscape:window-width="1920"
     inkscape:window-height="1020"
     inkscape:window-x="0"
     inkscape:window-y="32"
     inkscape:window-maximized="1"
     fit-margin-top="10"
     fit-margin-left="10"
     fit-margin-right="10"
     fit-margin-bottom="10" />
  <metadata
     id="metadata5">
    <rdf:RDF>
      <cc:Work
         rdf:about="">
        <dc:format>image/svg+xml</dc:format>
        <dc:type
           rdf:resource="http://purl.org/dc/dcmitype/StillImage" />
        <dc:title></dc:title>
      </cc:Work>
    </rdf:RDF>
  </metadata>
  <g
     inkscape:label="Layer 1"
     inkscape:groupmode="layer"
     id="layer1"
     transform="translate(311.63793,-0.663831)">
    <g
       id="g852">
      <g
         id="text817"
         style="font-style:normal;font-weight:normal;font-size:234.69203186px;line-height:1.25;font-family:sans-serif;letter-spacing:0px;word-spacing:0px;fill:#000000;fill-opacity:1;stroke:none;stroke-width:5.86730051"
         aria-label="2">
        <path
           sodipodi:nodetypes="cccccscsssccccscscscccccc"
           inkscape:connector-curvature="0"
           id="path826"
           style="stroke-width:5.86730051"
           d="m -214.91416,174.53571 v -14.55366 c 3.89626,-8.93847 8.63288,-16.80737 14.20987,-23.60672 5.65339,-6.87574 11.57417,-13.06391 17.76234,-18.56451 6.18817,-5.57699 12.29994,-10.73379 18.33532,-15.47042 6.11177,-4.736621 11.61236,-9.473243 16.50178,-14.209866 4.88941,-4.736623 8.82387,-9.702438 11.80336,-14.897444 3.05589,-5.195006 4.58383,-11.077586 4.58383,-17.64774 0,-8.862069 -2.5975,-15.737813 -7.79251,-20.62723 -5.19501,-4.889417 -12.41454,-7.334126 -21.65859,-7.334126 -8.78567,0 -16.0434,2.40651 -21.77319,7.21953 -5.65339,4.736623 -8.97666,11.421374 -9.96983,20.054251 l -23.81072,0.04725 c 1.52795,-12.911117 9.71545,-25.181907 19.1123,-32.821622 9.47325,-7.639715 21.62039,-11.459572 36.44144,-11.459572 16.27259,0 28.76353,3.858056 37.4728,11.574167 8.78567,7.639715 13.1785,18.526308 13.1785,32.65978 0,6.264566 -1.45154,12.490933 -4.35463,18.679102 -2.82669,6.188169 -7.06674,12.376338 -12.72013,18.564507 -5.65339,6.188171 -16.46358,15.776013 -32.43059,28.763523 -8.78567,7.18133 -15.776,13.67509 -20.97101,19.48127 -5.19501,5.72979 -8.93847,11.26858 -11.23038,16.61638 h 84.22785 v 17.53315 z" />
      </g>
      <g
         id="text821"
         style="font-style:normal;font-weight:normal;font-size:234.69203186px;line-height:1.25;font-family:sans-serif;letter-spacing:0px;word-spacing:0px;fill:#000000;fill-opacity:1;stroke:none;stroke-width:5.86730051"
         transform="matrix(-1,0,0,1,-3.569,0.04725)"
         aria-label="2">
        <path
           sodipodi:nodetypes="cccccscsssccccscscscccccc"
           inkscape:connector-curvature="0"
           id="path823"
           style="stroke-width:5.86730051"
           d="m 191.15112,174.53571 v -14.55366 c 3.89625,-8.93847 8.63288,-16.80737 14.20987,-23.60672 5.65339,-6.87574 11.57417,-13.06391 17.76234,-18.56451 6.18817,-5.57699 12.29994,-10.73379 18.33531,-15.47042 6.11177,-4.736621 11.61237,-9.473243 16.50179,-14.209866 4.88941,-4.736623 8.82387,-9.702438 11.80336,-14.897444 3.05588,-5.195006 4.58382,-11.077586 4.58382,-17.64774 0,-8.862069 -2.5975,-15.737813 -7.79251,-20.62723 -5.195,-4.889417 -12.41453,-7.334126 -21.65859,-7.334126 -8.78567,0 -16.04339,2.40651 -21.77318,7.21953 -5.65339,4.736623 -8.97667,11.421374 -9.96983,20.054251 l -23.81072,-0.04725 c 1.52794,-12.911117 9.71545,-25.087413 19.1123,-32.727128 9.47324,-7.639715 21.62038,-11.459572 36.44143,-11.459572 16.27259,0 28.76353,3.858056 37.4728,11.574167 8.78567,7.639715 13.17851,18.526308 13.17851,32.65978 0,6.264566 -1.45155,12.490933 -4.35464,18.679102 -2.82669,6.188169 -7.06673,12.376338 -12.72012,18.564507 -5.65339,6.188171 -16.46358,15.776019 -32.43059,28.763529 -8.78567,7.18133 -15.77601,13.67509 -20.97102,19.48127 -5.195,5.72979 -8.93846,11.26858 -11.23038,16.61638 h 84.22786 v 17.53315 z" />
      </g>
    </g>
    <rect
       style="fill:#000000;fill-opacity:1;stroke:none;stroke-width:1.32291663;stroke-linecap:round;stroke-linejoin:round;stroke-miterlimit:4;stroke-dasharray:none;stroke-opacity:1;paint-order:normal"
       id="rect897"
       width="25.056517"
       height="40.357697"
       x="-364.82288"
       y="-288.18665" />
    <g
       aria-label="2"
       style="font-style:normal;font-weight:normal;font-size:50.77468872px;line-height:1.25;font-family:sans-serif;letter-spacing:0px;word-spacing:0px;fill:#e10000;fill-opacity:1;stroke:none;stroke-width:1.26936722;stroke-opacity:1"
       id="text892">
      <path
         d="m -367.61653,-250.30952 v -3.14863 q 1.26441,-2.9007 3.07425,-5.10722 1.83464,-2.23131 3.84281,-4.01636 2.00818,-1.80984 3.96678,-3.34696 1.98338,-1.53713 3.57009,-3.07425 1.58671,-1.53712 2.55361,-3.223 0.99169,-1.68588 0.99169,-3.81802 0,-2.87591 -1.68587,-4.46262 -1.68588,-1.58671 -4.68575,-1.58671 -2.85112,0 -4.71055,1.56192 -1.83463,1.53712 -2.15693,4.33865 l -4.56179,-0.42147 q 0.49585,-4.1899 3.54531,-6.66913 3.07424,-2.47923 7.88396,-2.47923 5.28076,0 8.10709,2.50402 2.85112,2.47923 2.85112,7.06581 0,2.03298 -0.94211,4.04115 -0.91732,2.00818 -2.75195,4.01636 -1.83463,2.00818 -7.01623,6.22288 -2.85112,2.33047 -4.537,4.21469 -1.68587,1.85943 -2.42964,3.59489 h 18.22236 v 3.79323 z"
         style="fill:#e10000;fill-opacity:1;stroke:none;stroke-width:1.26936722;stroke-opacity:1"
         id="path894"
         inkscape:connector-curvature="0" />
    </g>
  </g>
</svg>
