<svg width="240" height="44" viewBox="0 0 240 44" fill="none" xmlns="http://www.w3.org/2000/svg">
<g clip-path="url(#clip0_9_14)">
<g clip-path="url(#clip1_9_14)">
<path d="M227.589 6.59099C229.186 6.59099 230.783 6.59918 232.381 6.62374C231.118 4.58504 229.922 2.52177 228.751 0.450316C228.634 0.245627 228.542 0.139189 228.492 0.0982508C228.442 0.057313 228.433 0.0491254 228.358 0.0245627C228.308 0.00818757 228.216 0 228.074 0C223.892 0.0163751 219.711 0.0245627 215.538 0.0245627C211.365 0.0245627 207.092 0.0245627 202.868 0.00818757C202.693 0.00818757 202.609 0.0327503 202.592 0.0409378L202.551 0.0736881C202.551 0.0736881 202.484 0.155564 202.425 0.253815C198.754 6.53368 195.066 12.8054 191.344 19.0688C192.532 19.0607 193.719 19.0443 194.915 19.0443C196.111 19.0443 197.249 19.0525 198.419 19.0934H198.52C198.787 19.0934 198.929 19.0607 199.013 19.0197C199.097 18.987 199.155 18.946 199.264 18.8314C199.331 18.7495 199.423 18.6349 199.515 18.463C201.405 15.1224 203.42 11.8965 205.26 8.61332C205.528 8.13026 205.854 7.7045 206.28 7.36062C206.707 7.01675 207.217 6.78749 207.735 6.68106C208.078 6.60737 208.43 6.58281 208.781 6.58281H208.923C210.662 6.61556 212.402 6.62374 214.141 6.62374C216.291 6.62374 218.448 6.60737 220.614 6.60737H220.681H220.765C223.039 6.60737 225.314 6.59099 227.605 6.59099H227.589Z" fill="white"/>
<path d="M227.831 44C228.107 44 228.274 43.9672 228.375 43.9345C228.475 43.9017 228.517 43.869 228.609 43.7871C228.668 43.7298 228.743 43.6316 228.826 43.4842C232.447 37.2534 236.11 31.0473 239.79 24.8493C238.678 24.8656 237.574 24.8738 236.47 24.8738C235.023 24.8738 233.576 24.8656 232.13 24.8493H232.113H232.013L231.962 24.9066C231.921 24.9639 231.854 25.054 231.778 25.185C229.897 28.4027 227.923 31.5058 226.276 34.7317C226.033 35.1984 225.749 35.6814 225.364 36.1154C224.98 36.5493 224.486 36.9587 223.851 37.2043C223.432 37.3681 222.964 37.4581 222.479 37.4581C222.328 37.4581 222.178 37.4499 222.019 37.4336C221.701 37.4008 221.375 37.3844 221.032 37.3844C220.363 37.3844 219.644 37.4336 218.85 37.4336H218.783C212.067 37.4008 205.344 37.3763 198.62 37.3108C199.833 39.3085 201.037 41.3308 202.174 43.4023C202.308 43.6479 202.417 43.7626 202.492 43.8199C202.567 43.8772 202.626 43.9099 202.793 43.9427C202.902 43.9672 203.052 43.9754 203.253 43.9754H203.32C205.168 43.9509 207.016 43.9427 208.864 43.9427C211.072 43.9427 213.272 43.9509 215.471 43.9509H216.742C218.54 43.9509 220.347 43.9509 222.153 43.9509C223.959 43.9509 225.924 43.9509 227.806 43.9754H227.848L227.831 44Z" fill="#F39223"/>
<path d="M239.773 19.118C238.527 17.0711 237.306 14.9996 236.135 12.9036C236.06 12.7644 235.993 12.6826 235.943 12.6334L235.826 12.5434C235.759 12.5106 235.625 12.4615 235.274 12.4533C231.101 12.4697 226.928 12.4779 222.747 12.4779C218.565 12.4779 214.559 12.4779 210.462 12.4533H210.445C210.186 12.4533 210.027 12.4861 209.943 12.5106C209.86 12.5434 209.835 12.5516 209.768 12.6252C209.717 12.6744 209.659 12.7562 209.584 12.8872C208.396 15.0078 207.125 17.0547 205.921 19.1098C208.697 19.1098 211.482 19.1098 214.258 19.1098C216.692 19.1098 219.126 19.1098 221.559 19.1098L222.83 19.1016C225.858 19.1016 228.877 19.1016 231.904 19.1016C234.53 19.1016 237.156 19.1016 239.782 19.118H239.773Z" fill="#F39223"/>
<path d="M220.99 31.3911C220.99 31.3911 221.016 31.3748 221.066 31.2929C222.345 29.1477 223.65 27.0026 225.021 24.8902C221.241 24.9066 217.47 24.9148 213.698 24.9148C209.651 24.9148 205.603 24.9148 201.555 24.9148C199.448 24.9148 197.332 24.9311 195.216 24.9311C193.929 24.9311 192.632 24.9229 191.336 24.9066C192.524 26.8225 193.686 28.7629 194.748 30.7771C194.907 31.08 195.041 31.2192 195.141 31.3011C195.241 31.3748 195.333 31.4239 195.543 31.4648C195.676 31.4894 195.869 31.5058 196.103 31.5058H196.136C200.217 31.4812 204.298 31.473 208.404 31.473C212.343 31.473 216.299 31.473 220.313 31.473C220.564 31.4566 220.748 31.4484 220.857 31.4321C220.982 31.4157 220.999 31.3993 221.007 31.3911H220.99Z" fill="white"/>
<path d="M14.4632 27.7558C14.4632 25.1522 11.6449 25.0376 8.58412 24.5381C4.86268 23.965 0.790009 22.655 0.790009 16.3669C0.790009 9.39113 6.55197 7.85187 12.0714 7.85187C14.8562 7.85187 17.3985 8.19575 19.8237 8.425V13.9434C17.6661 13.5995 14.7726 13.2147 12.2637 13.2147C8.5005 13.2147 7.36316 14.4838 7.36316 16.1704C7.36316 18.3975 9.59602 18.6595 12.2972 19.0852C16.4117 19.6993 21.1116 20.3543 21.1116 27.4447C21.1116 34.1176 16.1775 36.3774 9.94726 36.3774C6.61887 36.3774 3.80061 35.9925 1.1747 35.4931V29.9747C3.9595 30.4741 7.01192 31.0063 9.43713 31.0063C12.7655 31.0063 14.4548 29.8519 14.4548 27.7477L14.4632 27.7558Z" fill="white"/>
<path d="M57.6569 18.8232V35.9271H51.1925V8.31857H58.1253L69.5655 25.9955V8.31857H75.9463V35.9271H69.1725L57.6569 18.8232Z" fill="white"/>
<path d="M88.8752 8.31857V19.5519H100.55V8.31857H107.014V35.9271H100.55V24.923H88.8752V35.9271H82.4526V8.31857H88.8752Z" fill="white"/>
<path d="M113.512 8.31857H119.976V35.9271H113.512V8.31857Z" fill="white"/>
<path d="M141.402 35.9271H132.663L123.614 8.31857H130.505L136.769 28.9922H137.672L143.467 8.31857H150.4L141.393 35.9271H141.402Z" fill="white"/>
<path d="M45.949 19.3554H25.962V24.6937H45.949V19.3554Z" fill="#F39223"/>
<path d="M173.908 19.3554H153.921V24.6937H173.908V19.3554Z" fill="white"/>
<path d="M153.921 35.7387H169.718L173.9 30.4005H153.921V35.7387Z" fill="white"/>
<path d="M45.949 35.7387H30.4612L25.962 30.4005H45.949V35.7387Z" fill="#F39223"/>
<path d="M45.949 8.31857H31.657L25.962 13.6487H45.949V8.31857Z" fill="#F39223"/>
<path d="M153.921 8.31857H168.213L173.9 13.6487H153.921V8.31857Z" fill="white"/>
</g>
</g>
<defs>
<clipPath id="clip0_9_14">
<rect width="240" height="44" fill="white"/>
</clipPath>
<clipPath id="clip1_9_14">
<rect width="239" height="44" fill="white" transform="translate(0.790009)"/>
</clipPath>
</defs>
</svg>
