<svg class="w-full" data-name="Group 20616" height="41.584" id="Group_20616" viewBox="0 0 305.841 41.584" width="305.841" xmlns="http://www.w3.org/2000/svg" xmlns:xlink="http://www.w3.org/1999/xlink">
<defs>
<clipPath id="clip-path">
<rect data-name="Rectangle 1550" fill="none" height="41.584" id="Rectangle_1550" width="305.841"></rect>
</clipPath>
</defs>
<path d="M34.583,7.631,24.362,31.153,14.071,7.631H0L16.311,40.745H32.342L48.655,7.631Z" data-name="Path 2385" fill="currentColor" id="Path_2385"></path>
<g data-name="Group 20615" id="Group_20615">
<g clip-path="url(#clip-path)" data-name="Group 20614" id="Group_20614">
<path d="M84.15,7.631v5.04h.63c2.24-4.27,6.02-5.88,14.071-5.88,7.911,0,11.972,1.12,14.912,4.13,3.01,3.15,3.641,5.671,3.641,14.772V40.744H105.012V25.693c0-5.321-.21-6.511-1.54-7.771-1.33-1.33-3.711-1.82-8.331-1.82-4.551,0-7,.63-8.47,2.17-1.541,1.61-1.821,3.15-1.821,9.241V40.744H72.459V7.631Z" data-name="Path 2386" fill="currentColor" id="Path_2386"></path>
<path d="M138.891,0V7.631h19.6v8.89h-19.6v9.662c0,3.5.07,3.99.56,4.9.63,1.19,1.89,1.681,4.34,1.681,2.521,0,3.92-.491,4.481-1.681.42-.77.49-1.05.49-4.48H160.1c-.14,6.3-.63,8.331-2.521,10.781-2.519,3.15-6.3,4.2-14.84,4.2-7.912,0-11.132-.7-13.582-3.08-1.75-1.68-2.38-3.5-2.59-7-.071-1.05-.071-1.05-.071-5.32V16.521h-6.51V7.631h6.51V0Z" data-name="Path 2387" fill="currentColor" id="Path_2387"></path>
<path d="M207.563,30.173c-.911,9.171-5.461,11.411-23.173,11.411-9.591,0-14.142-.84-17.152-3.08-3.22-2.45-4.2-5.74-4.2-14.212,0-8.89.981-12.18,4.481-14.631,3.22-2.24,7.421-2.94,18.132-2.94,10.851,0,14.771.63,17.782,2.87,3.22,2.38,4.41,6.161,4.41,13.932,0,.42,0,1.96-.069,3.36H175.429c0,3.36.349,4.48,1.54,5.391,1.33.979,3.921,1.4,8.4,1.4,7.91,0,9.381-.561,9.871-3.5ZM195.381,20.092c-.07-2.59-.21-3.22-.98-3.99-1.121-1.191-3.64-1.68-8.541-1.68-8.331,0-10.291,1.05-10.431,5.67Z" data-name="Path 2388" fill="currentColor" id="Path_2388"></path>
<path d="M256.842,27.442c-.21,5.531-.91,7.911-3.08,10.081-3.15,3.221-7.211,4.061-20.232,4.061-10.152,0-14.421-.7-17.712-3.08-3.22-2.241-4.271-5.811-4.271-14.562,0-7.98.981-11.481,3.921-13.861,3.15-2.591,7.49-3.361,18.691-3.361,10.992,0,15.823.84,18.973,3.431,2.66,2.1,3.57,4.69,3.78,10.921h-12.6c-.42-3.78-2.87-5.041-10.152-5.041-8.61,0-10.22,1.33-10.22,8.261,0,4.2.7,5.951,2.8,6.861,1.471.7,4.2,1.05,7.562,1.05,7.28,0,9.381-.981,9.94-4.761Z" data-name="Path 2389" fill="currentColor" id="Path_2389"></path>
<path d="M305.772,27.442c-.21,5.531-.91,7.911-3.081,10.081-3.15,3.221-7.21,4.061-20.231,4.061-10.152,0-14.422-.7-17.712-3.08-3.221-2.241-4.271-5.811-4.271-14.562,0-7.98.98-11.481,3.92-13.861,3.15-2.591,7.491-3.361,18.692-3.361,10.992,0,15.822.84,18.972,3.431,2.66,2.1,3.57,4.69,3.78,10.921h-12.6c-.421-3.78-2.871-5.041-10.152-5.041-8.611,0-10.221,1.33-10.221,8.261,0,4.2.7,5.951,2.8,6.861,1.47.7,4.2,1.05,7.561,1.05,7.281,0,9.381-.981,9.941-4.761Z" data-name="Path 2390" fill="currentColor" id="Path_2390"></path>
<path d="M69.284,7.7,52.958,40.813H40.565L56.892,7.7Z" data-name="Path 2391" fill="currentColor" id="Path_2391"></path>
</g>
</g>
</svg>